<ttFont>
<head>
    <!-- Most of this table will be recalculated by the compiler -->
    <tableVersion value="1.0"/>
    <fontRevision value="1.0"/>
    <checkSumAdjustment value="0x8cb70bb1"/>
    <magicNumber value="0x5f0f3cf5"/>
    <flags value="00000000 00001011"/>
    <unitsPerEm value="2048"/>
    <created value="Thu Apr 21 07:59:00 2011"/>
    <modified value="Fri Apr 22 19:56:14 2011"/>
    <xMin value="-97"/>
    <yMin value="-607"/>
    <xMax value="2304"/>
    <yMax value="2141"/>
    <macStyle value="00000000 00000000"/>
    <lowestRecPPEM value="9"/>
    <fontDirectionHint value="2"/>
    <indexToLocFormat value="0"/>
    <glyphDataFormat value="0"/>
  </head>
    <TTGlyph name="A" xMin="146" yMin="-306" xMax="1536" yMax="1471">
      <contour>
        <pt x="1534" y="689" on="1"/>
        <pt x="1534" y="670" on="1"/>
        <pt x="1532" y="586" on="0"/>
        <pt x="1501" y="406" on="0"/>
        <pt x="1445" y="226" on="0"/>
        <pt x="1367" y="50" on="0"/>
        <pt x="1270" y="-111" on="0"/>
        <pt x="1158" y="-252" on="0"/>
        <pt x="1096" y="-306" on="1"/>
        <pt x="947" y="-220" on="1"/>
        <pt x="982" y="-161" on="0"/>
        <pt x="1039" y="-22" on="0"/>
        <pt x="1085" y="130" on="0"/>
        <pt x="1118" y="290" on="0"/>
        <pt x="1140" y="448" on="0"/>
        <pt x="1151" y="601" on="0"/>
        <pt x="1151" y="670" on="1"/>
        <pt x="1151" y="724" on="0"/>
        <pt x="1150" y="861" on="0"/>
        <pt x="1135" y="1003" on="0"/>
        <pt x="1101" y="1138" on="0"/>
        <pt x="1034" y="1244" on="0"/>
        <pt x="929" y="1308" on="0"/>
        <pt x="851" y="1308" on="1"/>
        <pt x="782" y="1308" on="0"/>
        <pt x="683" y="1261" on="0"/>
        <pt x="614" y="1182" on="0"/>
        <pt x="573" y="1078" on="0"/>
        <pt x="550" y="963" on="0"/>
        <pt x="543" y="846" on="0"/>
        <pt x="543" y="794" on="1"/>
        <pt x="543" y="515" on="1"/>
        <pt x="974" y="515" on="1"/>
        <pt x="974" y="350" on="1"/>
        <pt x="543" y="350" on="1"/>
        <pt x="543" y="0" on="1"/>
        <pt x="146" y="0" on="1"/>
        <pt x="146" y="732" on="1"/>
        <pt x="146" y="889" on="0"/>
        <pt x="246" y="1159" on="0"/>
        <pt x="429" y="1358" on="0"/>
        <pt x="686" y="1471" on="0"/>
        <pt x="844" y="1471" on="1"/>
        <pt x="951" y="1471" on="0"/>
        <pt x="1138" y="1410" on="0"/>
        <pt x="1292" y="1303" on="0"/>
        <pt x="1413" y="1156" on="0"/>
        <pt x="1494" y="982" on="0"/>
        <pt x="1536" y="788" on="0"/>
      </contour>
    </TTGlyph>
    <TTGlyph name="AE" xMin="147" yMin="-306" xMax="2188" yMax="1440">
      <contour>
        <pt x="2188" y="0" on="1"/>
        <pt x="1337" y="0" on="1"/>
        <pt x="1286" y="-91" on="0"/>
        <pt x="1165" y="-246" on="0"/>
        <pt x="1097" y="-306" on="1"/>
        <pt x="948" y="-220" on="1"/>
        <pt x="983" y="-161" on="0"/>
        <pt x="1040" y="-22" on="0"/>
        <pt x="1086" y="130" on="0"/>
        <pt x="1119" y="290" on="0"/>
        <pt x="1141" y="448" on="0"/>
        <pt x="1152" y="601" on="0"/>
        <pt x="1152" y="670" on="1"/>
        <pt x="1152" y="724" on="0"/>
        <pt x="1150" y="861" on="0"/>
        <pt x="1134" y="1003" on="0"/>
        <pt x="1097" y="1138" on="0"/>
        <pt x="1029" y="1244" on="0"/>
        <pt x="923" y="1308" on="0"/>
        <pt x="845" y="1308" on="1"/>
        <pt x="776" y="1308" on="0"/>
        <pt x="678" y="1261" on="0"/>
        <pt x="611" y="1182" on="0"/>
        <pt x="571" y="1078" on="0"/>
        <pt x="550" y="963" on="0"/>
        <pt x="544" y="846" on="0"/>
        <pt x="544" y="794" on="1"/>
        <pt x="544" y="515" on="1"/>
        <pt x="975" y="515" on="1"/>
        <pt x="975" y="350" on="1"/>
        <pt x="544" y="350" on="1"/>
        <pt x="544" y="0" on="1"/>
        <pt x="147" y="0" on="1"/>
        <pt x="147" y="732" on="1"/>
        <pt x="147" y="889" on="0"/>
        <pt x="247" y="1149" on="0"/>
        <pt x="430" y="1336" on="0"/>
        <pt x="687" y="1440" on="0"/>
        <pt x="845" y="1440" on="1"/>
        <pt x="2188" y="1440" on="1"/>
        <pt x="2188" y="1256" on="1"/>
        <pt x="1551" y="1256" on="1"/>
        <pt x="1551" y="811" on="1"/>
        <pt x="2043" y="811" on="1"/>
        <pt x="2043" y="628" on="1"/>
        <pt x="1551" y="628" on="1"/>
        <pt x="1551" y="184" on="1"/>
        <pt x="2188" y="184" on="1"/>
      </contour>
    </TTGlyph>
    <TTGlyph name="AEacute" xMin="147" yMin="-306" xMax="2188" yMax="1897">
      <component glyphName="AE" x="0" y="0" flags="0x204"/>
      <component glyphName="acute" x="1154" y="457" flags="0x4"/>
    </TTGlyph>
    <TTGlyph name="Aacute" xMin="146" yMin="-306" xMax="1536" yMax="1917">
      <component glyphName="A" x="0" y="0" flags="0x204"/>
      <component glyphName="acute" x="734" y="477" flags="0x4"/>
    </TTGlyph>
    <TTGlyph name="Abreve" xMin="146" yMin="-306" xMax="1536" yMax="1822">
      <component glyphName="A" x="0" y="0" flags="0x204"/>
      <component glyphName="breve" x="589" y="384" flags="0x4"/>
    </TTGlyph>
    <TTGlyph name="Acircumflex" xMin="146" yMin="-306" xMax="1536" yMax="1916">
      <component glyphName="A" x="0" y="0" flags="0x204"/>
      <component glyphName="circumflex" x="576" y="482" flags="0x4"/>
    </TTGlyph>
    <TTGlyph name="Adieresis" xMin="146" yMin="-306" xMax="1536" yMax="1846">
      <component glyphName="A" x="0" y="0" flags="0x204"/>
      <component glyphName="dieresis" x="504" y="442" flags="0x4"/>
    </TTGlyph>
    <TTGlyph name="Agrave" xMin="146" yMin="-306" xMax="1536" yMax="1926">
      <component glyphName="A" x="0" y="0" flags="0x204"/>
      <component glyphName="grave" x="416" y="486" flags="0x4"/>
    </TTGlyph>
    <TTGlyph name="Amacron" xMin="146" yMin="-306" xMax="1536" yMax="1767">
      <component glyphName="A" x="0" y="0" flags="0x204"/>
      <component glyphName="macron" x="575" y="427" flags="0x4"/>
    </TTGlyph>
    <TTGlyph name="Aogonek" xMin="146" yMin="-607" xMax="1536" yMax="1471">
      <contour>
        <pt x="1324" y="-413" on="1"/>
        <pt x="1324" y="-453" on="0"/>
        <pt x="1294" y="-523" on="0"/>
        <pt x="1242" y="-576" on="0"/>
        <pt x="1172" y="-607" on="0"/>
        <pt x="1132" y="-607" on="1"/>
        <pt x="1081" y="-607" on="0"/>
        <pt x="996" y="-576" on="0"/>
        <pt x="933" y="-517" on="0"/>
        <pt x="898" y="-434" on="0"/>
        <pt x="898" y="-382" on="1"/>
        <pt x="898" y="-340" on="0"/>
        <pt x="939" y="-265" on="0"/>
        <pt x="971" y="-233" on="1"/>
        <pt x="947" y="-220" on="1"/>
        <pt x="982" y="-161" on="0"/>
        <pt x="1039" y="-22" on="0"/>
        <pt x="1085" y="130" on="0"/>
        <pt x="1118" y="290" on="0"/>
        <pt x="1140" y="448" on="0"/>
        <pt x="1151" y="601" on="0"/>
        <pt x="1151" y="670" on="1"/>
        <pt x="1151" y="724" on="0"/>
        <pt x="1150" y="861" on="0"/>
        <pt x="1135" y="1003" on="0"/>
        <pt x="1101" y="1138" on="0"/>
        <pt x="1034" y="1244" on="0"/>
        <pt x="929" y="1308" on="0"/>
        <pt x="851" y="1308" on="1"/>
        <pt x="782" y="1308" on="0"/>
        <pt x="683" y="1261" on="0"/>
        <pt x="614" y="1182" on="0"/>
        <pt x="573" y="1078" on="0"/>
        <pt x="550" y="963" on="0"/>
        <pt x="543" y="846" on="0"/>
        <pt x="543" y="794" on="1"/>
        <pt x="543" y="515" on="1"/>
        <pt x="974" y="515" on="1"/>
        <pt x="974" y="350" on="1"/>
        <pt x="543" y="350" on="1"/>
        <pt x="543" y="0" on="1"/>
        <pt x="146" y="0" on="1"/>
        <pt x="146" y="732" on="1"/>
        <pt x="146" y="889" on="0"/>
        <pt x="246" y="1159" on="0"/>
        <pt x="429" y="1358" on="0"/>
        <pt x="686" y="1471" on="0"/>
        <pt x="844" y="1471" on="1"/>
        <pt x="951" y="1471" on="0"/>
        <pt x="1138" y="1410" on="0"/>
        <pt x="1292" y="1303" on="0"/>
        <pt x="1413" y="1156" on="0"/>
        <pt x="1494" y="982" on="0"/>
        <pt x="1536" y="788" on="0"/>
        <pt x="1534" y="689" on="1"/>
        <pt x="1534" y="670" on="1"/>
        <pt x="1532" y="586" on="0"/>
        <pt x="1501" y="406" on="0"/>
        <pt x="1445" y="226" on="0"/>
        <pt x="1367" y="50" on="0"/>
        <pt x="1270" y="-111" on="0"/>
        <pt x="1158" y="-252" on="0"/>
        <pt x="1096" y="-306" on="1"/>
        <pt x="1079" y="-296" on="1"/>
        <pt x="1057" y="-340" on="0"/>
        <pt x="1057" y="-382" on="1"/>
        <pt x="1057" y="-421" on="0"/>
        <pt x="1094" y="-471" on="0"/>
        <pt x="1136" y="-471" on="1"/>
        <pt x="1161" y="-471" on="0"/>
        <pt x="1210" y="-442" on="0"/>
        <pt x="1211" y="-413" on="1"/>
      </contour>
    </TTGlyph>
    <TTGlyph name="Aring" xMin="148" yMin="-306" xMax="1538" yMax="1871">
      <contour>
        <pt x="1068" y="1643" on="1"/>
        <pt x="1068" y="1586" on="0"/>
        <pt x="1017" y="1490" on="0"/>
        <pt x="974" y="1459" on="1"/>
        <pt x="1106" y="1433" on="0"/>
        <pt x="1317" y="1287" on="0"/>
        <pt x="1462" y="1078" on="0"/>
        <pt x="1538" y="823" on="0"/>
        <pt x="1536" y="689" on="1"/>
        <pt x="1536" y="670" on="1"/>
        <pt x="1534" y="586" on="0"/>
        <pt x="1503" y="406" on="0"/>
        <pt x="1447" y="226" on="0"/>
        <pt x="1369" y="50" on="0"/>
        <pt x="1272" y="-111" on="0"/>
        <pt x="1160" y="-252" on="0"/>
        <pt x="1098" y="-306" on="1"/>
        <pt x="949" y="-220" on="1"/>
        <pt x="984" y="-161" on="0"/>
        <pt x="1041" y="-22" on="0"/>
        <pt x="1087" y="130" on="0"/>
        <pt x="1120" y="290" on="0"/>
        <pt x="1142" y="448" on="0"/>
        <pt x="1153" y="601" on="0"/>
        <pt x="1153" y="670" on="1"/>
        <pt x="1153" y="724" on="0"/>
        <pt x="1152" y="861" on="0"/>
        <pt x="1137" y="1003" on="0"/>
        <pt x="1103" y="1138" on="0"/>
        <pt x="1036" y="1244" on="0"/>
        <pt x="931" y="1308" on="0"/>
        <pt x="853" y="1308" on="1"/>
        <pt x="784" y="1308" on="0"/>
        <pt x="685" y="1261" on="0"/>
        <pt x="616" y="1182" on="0"/>
        <pt x="575" y="1078" on="0"/>
        <pt x="552" y="963" on="0"/>
        <pt x="545" y="846" on="0"/>
        <pt x="545" y="794" on="1"/>
        <pt x="545" y="515" on="1"/>
        <pt x="976" y="515" on="1"/>
        <pt x="976" y="350" on="1"/>
        <pt x="545" y="350" on="1"/>
        <pt x="545" y="0" on="1"/>
        <pt x="148" y="0" on="1"/>
        <pt x="148" y="732" on="1"/>
        <pt x="148" y="871" on="0"/>
        <pt x="227" y="1115" on="0"/>
        <pt x="372" y="1307" on="0"/>
        <pt x="579" y="1436" on="0"/>
        <pt x="708" y="1459" on="1"/>
        <pt x="665" y="1490" on="0"/>
        <pt x="615" y="1586" on="0"/>
        <pt x="615" y="1643" on="1"/>
        <pt x="615" y="1690" on="0"/>
        <pt x="650" y="1773" on="0"/>
        <pt x="712" y="1835" on="0"/>
        <pt x="794" y="1871" on="0"/>
        <pt x="841" y="1871" on="1"/>
        <pt x="887" y="1871" on="0"/>
        <pt x="970" y="1835" on="0"/>
        <pt x="1032" y="1773" on="0"/>
        <pt x="1068" y="1690" on="0"/>
      </contour>
      <contour>
        <pt x="925" y="1643" on="1"/>
        <pt x="925" y="1677" on="0"/>
        <pt x="875" y="1727" on="0"/>
        <pt x="841" y="1727" on="1"/>
        <pt x="806" y="1727" on="0"/>
        <pt x="759" y="1677" on="0"/>
        <pt x="759" y="1643" on="1"/>
        <pt x="759" y="1609" on="0"/>
        <pt x="806" y="1559" on="0"/>
        <pt x="841" y="1559" on="1"/>
        <pt x="875" y="1559" on="0"/>
        <pt x="925" y="1608" on="0"/>
      </contour>
    </TTGlyph>
    <TTGlyph name="Atilde" xMin="146" yMin="-306" xMax="1536" yMax="1881">
      <component glyphName="A" x="0" y="0" flags="0x204"/>
      <component glyphName="tilde" x="451" y="468" flags="0x4"/>
    </TTGlyph>
    <TTGlyph name="B" xMin="163" yMin="0" xMax="1489" yMax="1440">
      <contour>
        <pt x="1489" y="391" on="1"/>
        <pt x="1489" y="330" on="0"/>
        <pt x="1449" y="224" on="0"/>
        <pt x="1379" y="137" on="0"/>
        <pt x="1286" y="69" on="0"/>
        <pt x="1179" y="23" on="0"/>
        <pt x="1065" y="0" on="0"/>
        <pt x="1010" y="0" on="1"/>
        <pt x="163" y="0" on="1"/>
        <pt x="163" y="1440" on="1"/>
        <pt x="937" y="1440" on="1"/>
        <pt x="988" y="1440" on="0"/>
        <pt x="1100" y="1425" on="0"/>
        <pt x="1207" y="1393" on="0"/>
        <pt x="1304" y="1341" on="0"/>
        <pt x="1377" y="1266" on="0"/>
        <pt x="1420" y="1168" on="0"/>
        <pt x="1420" y="1105" on="1"/>
        <pt x="1420" y="1045" on="0"/>
        <pt x="1372" y="947" on="0"/>
        <pt x="1291" y="870" on="0"/>
        <pt x="1186" y="811" on="0"/>
        <pt x="1128" y="789" on="1"/>
        <pt x="1201" y="769" on="0"/>
        <pt x="1332" y="703" on="0"/>
        <pt x="1431" y="607" on="0"/>
        <pt x="1489" y="476" on="0"/>
      </contour>
      <contour>
        <pt x="1017" y="1070" on="1"/>
        <pt x="1017" y="1192" on="0"/>
        <pt x="888" y="1304" on="0"/>
        <pt x="769" y="1304" on="1"/>
        <pt x="560" y="1304" on="1"/>
        <pt x="560" y="837" on="1"/>
        <pt x="735" y="837" on="1"/>
        <pt x="789" y="837" on="0"/>
        <pt x="891" y="864" on="0"/>
        <pt x="970" y="921" on="0"/>
        <pt x="1017" y="1009" on="0"/>
      </contour>
      <contour>
        <pt x="1087" y="416" on="1"/>
        <pt x="1087" y="475" on="0"/>
        <pt x="1057" y="578" on="0"/>
        <pt x="995" y="653" on="0"/>
        <pt x="902" y="696" on="0"/>
        <pt x="839" y="696" on="1"/>
        <pt x="560" y="696" on="1"/>
        <pt x="560" y="140" on="1"/>
        <pt x="804" y="140" on="1"/>
        <pt x="865" y="140" on="0"/>
        <pt x="969" y="180" on="0"/>
        <pt x="1045" y="252" on="0"/>
        <pt x="1087" y="354" on="0"/>
      </contour>
    </TTGlyph>
    <TTGlyph name="C" xMin="81" yMin="-29" xMax="1471" yMax="1474">
      <contour>
        <pt x="1471" y="1083" on="1"/>
        <pt x="1300" y="1011" on="1"/>
        <pt x="1280" y="1076" on="0"/>
        <pt x="1213" y="1184" on="0"/>
        <pt x="1120" y="1261" on="0"/>
        <pt x="1002" y="1304" on="0"/>
        <pt x="932" y="1304" on="1"/>
        <pt x="857" y="1304" on="0"/>
        <pt x="732" y="1255" on="0"/>
        <pt x="633" y="1169" on="0"/>
        <pt x="559" y="1055" on="0"/>
        <pt x="509" y="926" on="0"/>
        <pt x="485" y="788" on="0"/>
        <pt x="485" y="722" on="1"/>
        <pt x="485" y="617" on="0"/>
        <pt x="534" y="409" on="0"/>
        <pt x="641" y="243" on="0"/>
        <pt x="811" y="140" on="0"/>
        <pt x="932" y="140" on="1"/>
        <pt x="996" y="140" on="0"/>
        <pt x="1110" y="183" on="0"/>
        <pt x="1203" y="258" on="0"/>
        <pt x="1273" y="360" on="0"/>
        <pt x="1294" y="419" on="1"/>
        <pt x="1467" y="350" on="1"/>
        <pt x="1429" y="255" on="0"/>
        <pt x="1297" y="112" on="0"/>
        <pt x="1128" y="18" on="0"/>
        <pt x="935" y="-29" on="0"/>
        <pt x="837" y="-29" on="1"/>
        <pt x="731" y="-29" on="0"/>
        <pt x="536" y="23" on="0"/>
        <pt x="368" y="119" on="0"/>
        <pt x="231" y="255" on="0"/>
        <pt x="134" y="421" on="0"/>
        <pt x="81" y="616" on="0"/>
        <pt x="81" y="722" on="1"/>
        <pt x="81" y="828" on="0"/>
        <pt x="134" y="1023" on="0"/>
        <pt x="231" y="1190" on="0"/>
        <pt x="368" y="1326" on="0"/>
        <pt x="536" y="1422" on="0"/>
        <pt x="731" y="1474" on="0"/>
        <pt x="837" y="1474" on="1"/>
        <pt x="939" y="1474" on="0"/>
        <pt x="1134" y="1426" on="0"/>
        <pt x="1302" y="1329" on="0"/>
        <pt x="1433" y="1182" on="0"/>
      </contour>
    </TTGlyph>
    <TTGlyph name="Cacute" xMin="81" yMin="-29" xMax="1471" yMax="1931">
      <component glyphName="C" x="0" y="0" flags="0x204"/>
      <component glyphName="acute" x="749" y="491" flags="0x4"/>
    </TTGlyph>
    <TTGlyph name="Ccaron" xMin="81" yMin="-29" xMax="1471" yMax="1927">
      <component glyphName="C" x="0" y="0" flags="0x204"/>
      <component glyphName="caron" x="584" y="487" flags="0x4"/>
    </TTGlyph>
    <TTGlyph name="Ccedilla" xMin="84" yMin="-457" xMax="1474" yMax="1474">
      <contour>
        <pt x="1041" y="-247" on="1"/>
        <pt x="1041" y="-300" on="0"/>
        <pt x="1005" y="-378" on="0"/>
        <pt x="942" y="-431" on="0"/>
        <pt x="856" y="-457" on="0"/>
        <pt x="807" y="-457" on="1"/>
        <pt x="767" y="-457" on="0"/>
        <pt x="697" y="-426" on="0"/>
        <pt x="645" y="-374" on="0"/>
        <pt x="615" y="-303" on="0"/>
        <pt x="615" y="-263" on="1"/>
        <pt x="728" y="-263" on="1"/>
        <pt x="729" y="-292" on="0"/>
        <pt x="778" y="-321" on="0"/>
        <pt x="803" y="-321" on="1"/>
        <pt x="844" y="-321" on="0"/>
        <pt x="881" y="-289" on="0"/>
        <pt x="881" y="-247" on="1"/>
        <pt x="881" y="-225" on="0"/>
        <pt x="850" y="-201" on="0"/>
        <pt x="806" y="-189" on="0"/>
        <pt x="760" y="-186" on="0"/>
        <pt x="744" y="-186" on="1"/>
        <pt x="780" y="-26" on="1"/>
        <pt x="631" y="-16" on="0"/>
        <pt x="377" y="107" on="0"/>
        <pt x="190" y="306" on="0"/>
        <pt x="84" y="570" on="0"/>
        <pt x="84" y="722" on="1"/>
        <pt x="84" y="828" on="0"/>
        <pt x="137" y="1023" on="0"/>
        <pt x="234" y="1190" on="0"/>
        <pt x="371" y="1326" on="0"/>
        <pt x="539" y="1422" on="0"/>
        <pt x="734" y="1474" on="0"/>
        <pt x="840" y="1474" on="1"/>
        <pt x="942" y="1474" on="0"/>
        <pt x="1137" y="1426" on="0"/>
        <pt x="1305" y="1329" on="0"/>
        <pt x="1436" y="1182" on="0"/>
        <pt x="1474" y="1083" on="1"/>
        <pt x="1303" y="1011" on="1"/>
        <pt x="1283" y="1076" on="0"/>
        <pt x="1216" y="1184" on="0"/>
        <pt x="1123" y="1261" on="0"/>
        <pt x="1005" y="1304" on="0"/>
        <pt x="935" y="1304" on="1"/>
        <pt x="860" y="1304" on="0"/>
        <pt x="735" y="1255" on="0"/>
        <pt x="636" y="1169" on="0"/>
        <pt x="562" y="1055" on="0"/>
        <pt x="512" y="926" on="0"/>
        <pt x="488" y="788" on="0"/>
        <pt x="488" y="722" on="1"/>
        <pt x="488" y="617" on="0"/>
        <pt x="537" y="409" on="0"/>
        <pt x="644" y="243" on="0"/>
        <pt x="814" y="140" on="0"/>
        <pt x="935" y="140" on="1"/>
        <pt x="999" y="140" on="0"/>
        <pt x="1113" y="183" on="0"/>
        <pt x="1206" y="258" on="0"/>
        <pt x="1276" y="360" on="0"/>
        <pt x="1297" y="419" on="1"/>
        <pt x="1470" y="350" on="1"/>
        <pt x="1435" y="261" on="0"/>
        <pt x="1314" y="125" on="0"/>
        <pt x="1160" y="31" on="0"/>
        <pt x="982" y="-21" on="0"/>
        <pt x="891" y="-27" on="1"/>
        <pt x="872" y="-102" on="1"/>
        <pt x="903" y="-102" on="0"/>
        <pt x="964" y="-121" on="0"/>
        <pt x="1012" y="-158" on="0"/>
        <pt x="1041" y="-212" on="0"/>
      </contour>
    </TTGlyph>
    <TTGlyph name="Ccircumflex" xMin="81" yMin="-29" xMax="1471" yMax="1928">
      <component glyphName="C" x="0" y="0" flags="0x204"/>
      <component glyphName="circumflex" x="603" y="494" flags="0x4"/>
    </TTGlyph>
    <TTGlyph name="Cdotaccent" xMin="81" yMin="-29" xMax="1471" yMax="1868">
      <component glyphName="C" x="0" y="0" flags="0x204"/>
      <component glyphName="dotaccent" x="724" y="464" flags="0x4"/>
    </TTGlyph>
    <TTGlyph name="D" xMin="163" yMin="0" xMax="1559" yMax="1440">
      <contour>
        <pt x="1559" y="722" on="1"/>
        <pt x="1559" y="617" on="0"/>
        <pt x="1503" y="428" on="0"/>
        <pt x="1402" y="268" on="0"/>
        <pt x="1262" y="139" on="0"/>
        <pt x="1093" y="49" on="0"/>
        <pt x="900" y="0" on="0"/>
        <pt x="798" y="0" on="1"/>
        <pt x="163" y="0" on="1"/>
        <pt x="163" y="1440" on="1"/>
        <pt x="798" y="1440" on="1"/>
        <pt x="900" y="1440" on="0"/>
        <pt x="1092" y="1392" on="0"/>
        <pt x="1261" y="1303" on="0"/>
        <pt x="1402" y="1175" on="0"/>
        <pt x="1503" y="1016" on="0"/>
        <pt x="1559" y="827" on="0"/>
      </contour>
      <contour>
        <pt x="1156" y="722" on="1"/>
        <pt x="1156" y="839" on="0"/>
        <pt x="1099" y="1050" on="0"/>
        <pt x="979" y="1210" on="0"/>
        <pt x="794" y="1304" on="0"/>
        <pt x="665" y="1304" on="1"/>
        <pt x="560" y="1304" on="1"/>
        <pt x="560" y="140" on="1"/>
        <pt x="665" y="140" on="1"/>
        <pt x="792" y="140" on="0"/>
        <pt x="977" y="235" on="0"/>
        <pt x="1098" y="396" on="0"/>
        <pt x="1156" y="606" on="0"/>
      </contour>
    </TTGlyph>
    <TTGlyph name="Dcaron" xMin="163" yMin="0" xMax="1559" yMax="1894">
      <component glyphName="D" x="0" y="0" flags="0x204"/>
      <component glyphName="caron" x="486" y="454" flags="0x4"/>
    </TTGlyph>
    <TTGlyph name="Dcroat" xMin="30" yMin="0" xMax="1625" yMax="1440">
      <contour>
        <pt x="229" y="629" on="1"/>
        <pt x="30" y="629" on="1"/>
        <pt x="30" y="813" on="1"/>
        <pt x="229" y="813" on="1"/>
        <pt x="229" y="1440" on="1"/>
        <pt x="864" y="1440" on="1"/>
        <pt x="966" y="1440" on="0"/>
        <pt x="1158" y="1392" on="0"/>
        <pt x="1327" y="1303" on="0"/>
        <pt x="1468" y="1175" on="0"/>
        <pt x="1569" y="1016" on="0"/>
        <pt x="1625" y="827" on="0"/>
        <pt x="1625" y="722" on="1"/>
        <pt x="1625" y="617" on="0"/>
        <pt x="1569" y="428" on="0"/>
        <pt x="1468" y="268" on="0"/>
        <pt x="1328" y="139" on="0"/>
        <pt x="1159" y="49" on="0"/>
        <pt x="966" y="0" on="0"/>
        <pt x="864" y="0" on="1"/>
        <pt x="229" y="0" on="1"/>
      </contour>
      <contour>
        <pt x="866" y="629" on="1"/>
        <pt x="626" y="629" on="1"/>
        <pt x="626" y="140" on="1"/>
        <pt x="731" y="140" on="1"/>
        <pt x="858" y="140" on="0"/>
        <pt x="1043" y="235" on="0"/>
        <pt x="1164" y="396" on="0"/>
        <pt x="1223" y="606" on="0"/>
        <pt x="1223" y="722" on="1"/>
        <pt x="1223" y="839" on="0"/>
        <pt x="1166" y="1050" on="0"/>
        <pt x="1046" y="1210" on="0"/>
        <pt x="860" y="1304" on="0"/>
        <pt x="731" y="1304" on="1"/>
        <pt x="626" y="1304" on="1"/>
        <pt x="626" y="813" on="1"/>
        <pt x="866" y="813" on="1"/>
      </contour>
    </TTGlyph>
    <TTGlyph name="Delta" xMin="93" yMin="399" xMax="736" yMax="1014">
      <contour>
        <pt x="736" y="710" on="1"/>
        <pt x="539" y="664" on="1"/>
        <pt x="672" y="518" on="1"/>
        <pt x="517" y="399" on="1"/>
        <pt x="413" y="572" on="1"/>
        <pt x="310" y="399" on="1"/>
        <pt x="154" y="518" on="1"/>
        <pt x="290" y="664" on="1"/>
        <pt x="93" y="710" on="1"/>
        <pt x="152" y="893" on="1"/>
        <pt x="336" y="810" on="1"/>
        <pt x="316" y="1014" on="1"/>
        <pt x="511" y="1014" on="1"/>
        <pt x="491" y="812" on="1"/>
        <pt x="672" y="893" on="1"/>
      </contour>
    </TTGlyph>
    <TTGlyph name="E" xMin="163" yMin="0" xMax="1197" yMax="1440">
      <contour>
        <pt x="1197" y="0" on="1"/>
        <pt x="163" y="0" on="1"/>
        <pt x="163" y="1440" on="1"/>
        <pt x="1197" y="1440" on="1"/>
        <pt x="1197" y="1256" on="1"/>
        <pt x="560" y="1256" on="1"/>
        <pt x="560" y="811" on="1"/>
        <pt x="1052" y="811" on="1"/>
        <pt x="1052" y="628" on="1"/>
        <pt x="560" y="628" on="1"/>
        <pt x="560" y="184" on="1"/>
        <pt x="1197" y="184" on="1"/>
      </contour>
    </TTGlyph>
    <TTGlyph name="Eacute" xMin="163" yMin="0" xMax="1197" yMax="1890">
      <component glyphName="E" x="0" y="0" flags="0x204"/>
      <component glyphName="acute" x="584" y="450" flags="0x4"/>
    </TTGlyph>
    <TTGlyph name="Ebreve" xMin="163" yMin="0" xMax="1197" yMax="1788">
      <component glyphName="E" x="0" y="0" flags="0x204"/>
      <component glyphName="breve" x="404" y="350" flags="0x4"/>
    </TTGlyph>
    <TTGlyph name="Ecaron" xMin="163" yMin="0" xMax="1197" yMax="1894">
      <component glyphName="E" x="0" y="0" flags="0x204"/>
      <component glyphName="caron" x="407" y="454" flags="0x4"/>
    </TTGlyph>
    <TTGlyph name="Ecircumflex" xMin="163" yMin="0" xMax="1197" yMax="1893">
      <component glyphName="E" x="0" y="0" flags="0x204"/>
      <component glyphName="circumflex" x="417" y="459" flags="0x4"/>
    </TTGlyph>
    <TTGlyph name="Edieresis" xMin="163" yMin="0" xMax="1197" yMax="1831">
      <component glyphName="E" x="0" y="0" flags="0x204"/>
      <component glyphName="dieresis" x="344" y="427" flags="0x4"/>
    </TTGlyph>
    <TTGlyph name="Edotaccent" xMin="163" yMin="0" xMax="1197" yMax="1830">
      <component glyphName="E" x="0" y="0" flags="0x204"/>
      <component glyphName="dotaccent" x="512" y="426" flags="0x4"/>
    </TTGlyph>
    <TTGlyph name="Egrave" xMin="163" yMin="0" xMax="1197" yMax="1894">
      <component glyphName="E" x="0" y="0" flags="0x204"/>
      <component glyphName="grave" x="279" y="454" flags="0x4"/>
    </TTGlyph>
    <TTGlyph name="Emacron" xMin="163" yMin="0" xMax="1197" yMax="1735">
      <component glyphName="E" x="0" y="0" flags="0x204"/>
      <component glyphName="macron" x="367" y="395" flags="0x4"/>
    </TTGlyph>
    <TTGlyph name="Eng" xMin="163" yMin="-606" xMax="1479" yMax="1440">
      <contour>
        <pt x="347" y="0" on="1"/>
        <pt x="163" y="0" on="1"/>
        <pt x="163" y="1440" on="1"/>
        <pt x="421" y="1440" on="1"/>
        <pt x="1296" y="451" on="1"/>
        <pt x="1296" y="1440" on="1"/>
        <pt x="1479" y="1440" on="1"/>
        <pt x="1479" y="410" on="1"/>
        <pt x="1479" y="271" on="0"/>
        <pt x="1408" y="-16" on="0"/>
        <pt x="1281" y="-285" on="0"/>
        <pt x="1103" y="-519" on="0"/>
        <pt x="996" y="-606" on="1"/>
        <pt x="842" y="-513" on="1"/>
        <pt x="890" y="-446" on="0"/>
        <pt x="967" y="-284" on="0"/>
        <pt x="1025" y="-107" on="0"/>
        <pt x="1064" y="78" on="0"/>
        <pt x="1073" y="167" on="1"/>
        <pt x="347" y="988" on="1"/>
      </contour>
    </TTGlyph>
    <TTGlyph name="Eogonek" xMin="163" yMin="-417" xMax="1197" yMax="1440">
      <contour>
        <pt x="1197" y="-223" on="1"/>
        <pt x="1197" y="-263" on="0"/>
        <pt x="1167" y="-333" on="0"/>
        <pt x="1115" y="-386" on="0"/>
        <pt x="1045" y="-417" on="0"/>
        <pt x="1005" y="-417" on="1"/>
        <pt x="954" y="-417" on="0"/>
        <pt x="869" y="-386" on="0"/>
        <pt x="806" y="-327" on="0"/>
        <pt x="771" y="-244" on="0"/>
        <pt x="771" y="-192" on="1"/>
        <pt x="771" y="-164" on="0"/>
        <pt x="791" y="-110" on="0"/>
        <pt x="825" y="-61" on="0"/>
        <pt x="870" y="-18" on="0"/>
        <pt x="895" y="0" on="1"/>
        <pt x="163" y="0" on="1"/>
        <pt x="163" y="1440" on="1"/>
        <pt x="1197" y="1440" on="1"/>
        <pt x="1197" y="1256" on="1"/>
        <pt x="560" y="1256" on="1"/>
        <pt x="560" y="811" on="1"/>
        <pt x="1052" y="811" on="1"/>
        <pt x="1052" y="628" on="1"/>
        <pt x="560" y="628" on="1"/>
        <pt x="560" y="184" on="1"/>
        <pt x="1197" y="184" on="1"/>
        <pt x="1197" y="0" on="1"/>
        <pt x="1032" y="0" on="1"/>
        <pt x="1012" y="-20" on="0"/>
        <pt x="975" y="-65" on="0"/>
        <pt x="947" y="-115" on="0"/>
        <pt x="930" y="-167" on="0"/>
        <pt x="930" y="-192" on="1"/>
        <pt x="930" y="-231" on="0"/>
        <pt x="967" y="-281" on="0"/>
        <pt x="1009" y="-281" on="1"/>
        <pt x="1034" y="-281" on="0"/>
        <pt x="1083" y="-252" on="0"/>
        <pt x="1084" y="-223" on="1"/>
      </contour>
    </TTGlyph>
    <TTGlyph name="Eth" xMin="30" yMin="0" xMax="1625" yMax="1440">
      <contour>
        <pt x="229" y="629" on="1"/>
        <pt x="30" y="629" on="1"/>
        <pt x="30" y="813" on="1"/>
        <pt x="229" y="813" on="1"/>
        <pt x="229" y="1440" on="1"/>
        <pt x="864" y="1440" on="1"/>
        <pt x="966" y="1440" on="0"/>
        <pt x="1158" y="1392" on="0"/>
        <pt x="1327" y="1303" on="0"/>
        <pt x="1468" y="1175" on="0"/>
        <pt x="1569" y="1016" on="0"/>
        <pt x="1625" y="827" on="0"/>
        <pt x="1625" y="722" on="1"/>
        <pt x="1625" y="617" on="0"/>
        <pt x="1569" y="428" on="0"/>
        <pt x="1468" y="268" on="0"/>
        <pt x="1328" y="139" on="0"/>
        <pt x="1159" y="49" on="0"/>
        <pt x="966" y="0" on="0"/>
        <pt x="864" y="0" on="1"/>
        <pt x="229" y="0" on="1"/>
      </contour>
      <contour>
        <pt x="866" y="629" on="1"/>
        <pt x="626" y="629" on="1"/>
        <pt x="626" y="140" on="1"/>
        <pt x="731" y="140" on="1"/>
        <pt x="858" y="140" on="0"/>
        <pt x="1043" y="235" on="0"/>
        <pt x="1164" y="396" on="0"/>
        <pt x="1223" y="606" on="0"/>
        <pt x="1223" y="722" on="1"/>
        <pt x="1223" y="839" on="0"/>
        <pt x="1166" y="1050" on="0"/>
        <pt x="1046" y="1210" on="0"/>
        <pt x="860" y="1304" on="0"/>
        <pt x="731" y="1304" on="1"/>
        <pt x="626" y="1304" on="1"/>
        <pt x="626" y="813" on="1"/>
        <pt x="866" y="813" on="1"/>
      </contour>
    </TTGlyph>
    <TTGlyph name="Euro" xMin="66" yMin="121" xMax="1440" yMax="1323">
      <contour>
        <pt x="974" y="520" on="1"/>
        <pt x="680" y="520" on="1"/>
        <pt x="697" y="465" on="0"/>
        <pt x="754" y="369" on="0"/>
        <pt x="835" y="298" on="0"/>
        <pt x="941" y="257" on="0"/>
        <pt x="1008" y="257" on="1"/>
        <pt x="1060" y="257" on="0"/>
        <pt x="1151" y="291" on="0"/>
        <pt x="1226" y="351" on="0"/>
        <pt x="1281" y="432" on="0"/>
        <pt x="1298" y="479" on="1"/>
        <pt x="1436" y="425" on="1"/>
        <pt x="1406" y="348" on="0"/>
        <pt x="1300" y="234" on="0"/>
        <pt x="1165" y="159" on="0"/>
        <pt x="1010" y="121" on="0"/>
        <pt x="932" y="121" on="1"/>
        <pt x="831" y="121" on="0"/>
        <pt x="651" y="179" on="0"/>
        <pt x="502" y="284" on="0"/>
        <pt x="391" y="431" on="0"/>
        <pt x="361" y="520" on="1"/>
        <pt x="66" y="520" on="1"/>
        <pt x="99" y="667" on="1"/>
        <pt x="330" y="667" on="1"/>
        <pt x="328" y="681" on="0"/>
        <pt x="328" y="708" on="0"/>
        <pt x="328" y="722" on="1"/>
        <pt x="328" y="754" on="0"/>
        <pt x="331" y="784" on="1"/>
        <pt x="126" y="784" on="1"/>
        <pt x="159" y="931" on="1"/>
        <pt x="363" y="931" on="1"/>
        <pt x="394" y="1018" on="0"/>
        <pt x="505" y="1163" on="0"/>
        <pt x="653" y="1266" on="0"/>
        <pt x="832" y="1323" on="0"/>
        <pt x="932" y="1323" on="1"/>
        <pt x="1013" y="1323" on="0"/>
        <pt x="1170" y="1285" on="0"/>
        <pt x="1305" y="1208" on="0"/>
        <pt x="1410" y="1090" on="0"/>
        <pt x="1440" y="1011" on="1"/>
        <pt x="1303" y="953" on="1"/>
        <pt x="1287" y="1005" on="0"/>
        <pt x="1233" y="1092" on="0"/>
        <pt x="1159" y="1154" on="0"/>
        <pt x="1064" y="1188" on="0"/>
        <pt x="1008" y="1188" on="1"/>
        <pt x="947" y="1188" on="0"/>
        <pt x="846" y="1147" on="0"/>
        <pt x="766" y="1077" on="0"/>
        <pt x="707" y="984" on="0"/>
        <pt x="688" y="931" on="1"/>
        <pt x="1068" y="931" on="1"/>
        <pt x="1034" y="784" on="1"/>
        <pt x="654" y="784" on="1"/>
        <pt x="651" y="752" on="0"/>
        <pt x="651" y="722" on="1"/>
        <pt x="651" y="708" on="0"/>
        <pt x="651" y="681" on="0"/>
        <pt x="653" y="667" on="1"/>
        <pt x="1008" y="667" on="1"/>
      </contour>
    </TTGlyph>
    <TTGlyph name="F" xMin="163" yMin="0" xMax="1197" yMax="1440">
      <contour>
        <pt x="560" y="0" on="1"/>
        <pt x="163" y="0" on="1"/>
        <pt x="163" y="1440" on="1"/>
        <pt x="1197" y="1440" on="1"/>
        <pt x="1197" y="1256" on="1"/>
        <pt x="560" y="1256" on="1"/>
        <pt x="560" y="811" on="1"/>
        <pt x="1052" y="811" on="1"/>
        <pt x="1052" y="628" on="1"/>
        <pt x="560" y="628" on="1"/>
      </contour>
    </TTGlyph>
    <TTGlyph name="G" xMin="81" yMin="-29" xMax="1471" yMax="1474">
      <contour>
        <pt x="1471" y="1083" on="1"/>
        <pt x="1300" y="1011" on="1"/>
        <pt x="1280" y="1076" on="0"/>
        <pt x="1213" y="1184" on="0"/>
        <pt x="1120" y="1261" on="0"/>
        <pt x="1002" y="1304" on="0"/>
        <pt x="932" y="1304" on="1"/>
        <pt x="857" y="1304" on="0"/>
        <pt x="732" y="1254" on="0"/>
        <pt x="633" y="1169" on="0"/>
        <pt x="559" y="1055" on="0"/>
        <pt x="510" y="926" on="0"/>
        <pt x="485" y="788" on="0"/>
        <pt x="485" y="722" on="1"/>
        <pt x="485" y="617" on="0"/>
        <pt x="534" y="409" on="0"/>
        <pt x="641" y="243" on="0"/>
        <pt x="811" y="140" on="0"/>
        <pt x="932" y="140" on="1"/>
        <pt x="998" y="140" on="0"/>
        <pt x="1072" y="199" on="0"/>
        <pt x="1072" y="273" on="1"/>
        <pt x="1072" y="715" on="1"/>
        <pt x="1469" y="715" on="1"/>
        <pt x="1469" y="0" on="1"/>
        <pt x="1354" y="0" on="1"/>
        <pt x="1284" y="113" on="1"/>
        <pt x="1188" y="40" on="0"/>
        <pt x="957" y="-29" on="0"/>
        <pt x="837" y="-29" on="1"/>
        <pt x="731" y="-29" on="0"/>
        <pt x="536" y="23" on="0"/>
        <pt x="368" y="119" on="0"/>
        <pt x="231" y="255" on="0"/>
        <pt x="134" y="421" on="0"/>
        <pt x="81" y="616" on="0"/>
        <pt x="81" y="722" on="1"/>
        <pt x="81" y="828" on="0"/>
        <pt x="134" y="1023" on="0"/>
        <pt x="231" y="1190" on="0"/>
        <pt x="368" y="1326" on="0"/>
        <pt x="536" y="1422" on="0"/>
        <pt x="731" y="1474" on="0"/>
        <pt x="837" y="1474" on="1"/>
        <pt x="939" y="1474" on="0"/>
        <pt x="1134" y="1426" on="0"/>
        <pt x="1302" y="1329" on="0"/>
        <pt x="1433" y="1182" on="0"/>
      </contour>
    </TTGlyph>
    <TTGlyph name="Gbreve" xMin="81" yMin="-29" xMax="1471" yMax="1828">
      <component glyphName="G" x="0" y="0" flags="0x204"/>
      <component glyphName="breve" x="542" y="390" flags="0x4"/>
    </TTGlyph>
    <TTGlyph name="Gcircumflex" xMin="81" yMin="-29" xMax="1471" yMax="1930">
      <component glyphName="G" x="0" y="0" flags="0x204"/>
      <component glyphName="circumflex" x="530" y="496" flags="0x4"/>
    </TTGlyph>
    <TTGlyph name="Gcommaaccent" xMin="81" yMin="-534" xMax="1471" yMax="1474">
      <component glyphName="G" x="0" y="0" flags="0x204"/>
      <component glyphName="uni0326" x="565" y="0" flags="0x4"/>
    </TTGlyph>
    <TTGlyph name="Gdotaccent" xMin="81" yMin="-29" xMax="1471" yMax="1864">
      <component glyphName="G" x="0" y="0" flags="0x204"/>
      <component glyphName="dotaccent" x="646" y="460" flags="0x4"/>
    </TTGlyph>
    <TTGlyph name="H" xMin="163" yMin="0" xMax="1483" yMax="1440">
      <contour>
        <pt x="560" y="0" on="1"/>
        <pt x="163" y="0" on="1"/>
        <pt x="163" y="1440" on="1"/>
        <pt x="560" y="1440" on="1"/>
        <pt x="560" y="811" on="1"/>
        <pt x="1086" y="811" on="1"/>
        <pt x="1086" y="1440" on="1"/>
        <pt x="1483" y="1440" on="1"/>
        <pt x="1483" y="0" on="1"/>
        <pt x="1086" y="0" on="1"/>
        <pt x="1086" y="628" on="1"/>
        <pt x="560" y="628" on="1"/>
      </contour>
    </TTGlyph>
    <TTGlyph name="Hbar" xMin="62" yMin="0" xMax="1584" yMax="1440">
      <contour>
        <pt x="560" y="0" on="1"/>
        <pt x="163" y="0" on="1"/>
        <pt x="163" y="936" on="1"/>
        <pt x="62" y="936" on="1"/>
        <pt x="62" y="1134" on="1"/>
        <pt x="163" y="1134" on="1"/>
        <pt x="163" y="1440" on="1"/>
        <pt x="560" y="1440" on="1"/>
        <pt x="560" y="1134" on="1"/>
        <pt x="1086" y="1134" on="1"/>
        <pt x="1086" y="1440" on="1"/>
        <pt x="1483" y="1440" on="1"/>
        <pt x="1483" y="1134" on="1"/>
        <pt x="1584" y="1134" on="1"/>
        <pt x="1584" y="936" on="1"/>
        <pt x="1483" y="936" on="1"/>
        <pt x="1483" y="0" on="1"/>
        <pt x="1086" y="0" on="1"/>
        <pt x="1086" y="628" on="1"/>
        <pt x="560" y="628" on="1"/>
      </contour>
      <contour>
        <pt x="1086" y="811" on="1"/>
        <pt x="1086" y="936" on="1"/>
        <pt x="560" y="936" on="1"/>
        <pt x="560" y="811" on="1"/>
      </contour>
    </TTGlyph>
    <TTGlyph name="Hcircumflex" xMin="163" yMin="0" xMax="1483" yMax="1893">
      <component glyphName="H" x="0" y="0" flags="0x204"/>
      <component glyphName="circumflex" x="559" y="459" flags="0x4"/>
    </TTGlyph>
    <TTGlyph name="I" xMin="163" yMin="0" xMax="560" yMax="1440">
      <contour>
        <pt x="560" y="0" on="1"/>
        <pt x="163" y="0" on="1"/>
        <pt x="163" y="1440" on="1"/>
        <pt x="560" y="1440" on="1"/>
      </contour>
    </TTGlyph>
    <TTGlyph name="IJ" xMin="163" yMin="-564" xMax="1288" yMax="1440">
      <component glyphName="I" x="0" y="0" flags="0x4"/>
      <component glyphName="J" x="723" y="0" flags="0x4"/>
    </TTGlyph>
    <TTGlyph name="Iacute" xMin="163" yMin="0" xMax="777" yMax="1894">
      <component glyphName="I" x="0" y="0" flags="0x204"/>
      <component glyphName="acute" x="261" y="454" flags="0x4"/>
    </TTGlyph>
    <TTGlyph name="Ibreve" xMin="110" yMin="0" xMax="612" yMax="1787">
      <component glyphName="I" x="0" y="0" flags="0x204"/>
      <component glyphName="breve" x="110" y="349" flags="0x4"/>
    </TTGlyph>
    <TTGlyph name="Icircumflex" xMin="98" yMin="0" xMax="625" yMax="1892">
      <component glyphName="I" x="0" y="0" flags="0x204"/>
      <component glyphName="circumflex" x="98" y="458" flags="0x4"/>
    </TTGlyph>
    <TTGlyph name="Idieresis" xMin="26" yMin="0" xMax="698" yMax="1830">
      <component glyphName="I" x="0" y="0" flags="0x204"/>
      <component glyphName="dieresis" x="26" y="426" flags="0x4"/>
    </TTGlyph>
    <TTGlyph name="Idotaccent" xMin="163" yMin="0" xMax="560" yMax="1834">
      <component glyphName="I" x="0" y="0" flags="0x204"/>
      <component glyphName="dotaccent" x="214" y="430" flags="0x4"/>
    </TTGlyph>
    <TTGlyph name="Igrave" xMin="-47" yMin="0" xMax="560" yMax="1894">
      <component glyphName="I" x="0" y="0" flags="0x204"/>
      <component glyphName="grave" x="-47" y="454" flags="0x4"/>
    </TTGlyph>
    <TTGlyph name="Imacron" xMin="89" yMin="0" xMax="634" yMax="1735">
      <component glyphName="I" x="0" y="0" flags="0x204"/>
      <component glyphName="macron" x="89" y="395" flags="0x4"/>
    </TTGlyph>
    <TTGlyph name="Iogonek" xMin="144" yMin="-417" xMax="570" yMax="1440">
      <contour>
        <pt x="570" y="-223" on="1"/>
        <pt x="570" y="-263" on="0"/>
        <pt x="540" y="-333" on="0"/>
        <pt x="488" y="-386" on="0"/>
        <pt x="418" y="-417" on="0"/>
        <pt x="378" y="-417" on="1"/>
        <pt x="327" y="-417" on="0"/>
        <pt x="242" y="-386" on="0"/>
        <pt x="179" y="-327" on="0"/>
        <pt x="144" y="-244" on="0"/>
        <pt x="144" y="-192" on="1"/>
        <pt x="144" y="-164" on="0"/>
        <pt x="164" y="-110" on="0"/>
        <pt x="198" y="-61" on="0"/>
        <pt x="243" y="-18" on="0"/>
        <pt x="268" y="0" on="1"/>
        <pt x="163" y="0" on="1"/>
        <pt x="163" y="1440" on="1"/>
        <pt x="560" y="1440" on="1"/>
        <pt x="560" y="0" on="1"/>
        <pt x="405" y="0" on="1"/>
        <pt x="385" y="-20" on="0"/>
        <pt x="348" y="-65" on="0"/>
        <pt x="320" y="-115" on="0"/>
        <pt x="303" y="-167" on="0"/>
        <pt x="303" y="-192" on="1"/>
        <pt x="303" y="-231" on="0"/>
        <pt x="340" y="-281" on="0"/>
        <pt x="382" y="-281" on="1"/>
        <pt x="407" y="-281" on="0"/>
        <pt x="456" y="-252" on="0"/>
        <pt x="457" y="-223" on="1"/>
      </contour>
    </TTGlyph>
    <TTGlyph name="Itilde" xMin="-26" yMin="0" xMax="752" yMax="1853">
      <component glyphName="I" x="0" y="0" flags="0x204"/>
      <component glyphName="tilde" x="-26" y="440" flags="0x4"/>
    </TTGlyph>
    <TTGlyph name="J" xMin="-72" yMin="-564" xMax="565" yMax="1440">
      <contour>
        <pt x="565" y="452" on="1"/>
        <pt x="565" y="313" on="0"/>
        <pt x="494" y="26" on="0"/>
        <pt x="367" y="-243" on="0"/>
        <pt x="189" y="-477" on="0"/>
        <pt x="82" y="-564" on="1"/>
        <pt x="-72" y="-471" on="1"/>
        <pt x="-12" y="-389" on="0"/>
        <pt x="78" y="-181" on="0"/>
        <pt x="138" y="43" on="0"/>
        <pt x="168" y="269" on="0"/>
        <pt x="168" y="371" on="1"/>
        <pt x="168" y="1440" on="1"/>
        <pt x="565" y="1440" on="1"/>
      </contour>
    </TTGlyph>
    <TTGlyph name="Jcircumflex" xMin="-72" yMin="-564" xMax="624" yMax="1893">
      <component glyphName="J" x="0" y="0" flags="0x204"/>
      <component glyphName="circumflex" x="97" y="459" flags="0x4"/>
    </TTGlyph>
    <TTGlyph name="K" xMin="163" yMin="0" xMax="1483" yMax="1441">
      <contour>
        <pt x="560" y="0" on="1"/>
        <pt x="163" y="0" on="1"/>
        <pt x="163" y="1440" on="1"/>
        <pt x="560" y="1440" on="1"/>
        <pt x="560" y="754" on="1"/>
        <pt x="744" y="895" on="0"/>
        <pt x="1063" y="1239" on="0"/>
        <pt x="1178" y="1441" on="1"/>
        <pt x="1449" y="1441" on="1"/>
        <pt x="1343" y="1260" on="0"/>
        <pt x="1069" y="946" on="0"/>
        <pt x="908" y="812" on="1"/>
        <pt x="1483" y="0" on="1"/>
        <pt x="1069" y="0" on="1"/>
        <pt x="636" y="612" on="1"/>
        <pt x="617" y="599" on="0"/>
        <pt x="580" y="575" on="0"/>
        <pt x="560" y="563" on="1"/>
      </contour>
    </TTGlyph>
    <TTGlyph name="Kcommaaccent" xMin="163" yMin="-534" xMax="1483" yMax="1441">
      <component glyphName="K" x="0" y="0" flags="0x204"/>
      <component glyphName="uni0326" x="505" y="0" flags="0x4"/>
    </TTGlyph>
    <TTGlyph name="L" xMin="163" yMin="0" xMax="1197" yMax="1440">
      <contour>
        <pt x="1197" y="0" on="1"/>
        <pt x="163" y="0" on="1"/>
        <pt x="163" y="1440" on="1"/>
        <pt x="560" y="1440" on="1"/>
        <pt x="560" y="183" on="1"/>
        <pt x="1197" y="183" on="1"/>
      </contour>
    </TTGlyph>
    <TTGlyph name="Lacute" xMin="163" yMin="0" xMax="1197" yMax="1894">
      <component glyphName="L" x="0" y="0" flags="0x204"/>
      <component glyphName="acute" x="264" y="454" flags="0x4"/>
    </TTGlyph>
    <TTGlyph name="Lcaron" xMin="163" yMin="0" xMax="1197" yMax="1466">
      <component glyphName="L" x="0" y="0" flags="0x204"/>
      <component glyphName="quoteright" x="608" y="0" flags="0x4"/>
    </TTGlyph>
    <TTGlyph name="Lcommaaccent" xMin="163" yMin="-534" xMax="1197" yMax="1440">
      <component glyphName="L" x="0" y="0" flags="0x204"/>
      <component glyphName="uni0326" x="415" y="0" flags="0x4"/>
    </TTGlyph>
    <TTGlyph name="Ldot" xMin="163" yMin="0" xMax="1197" yMax="1440">
      <component glyphName="L" x="0" y="0" flags="0x204"/>
      <component glyphName="periodcentered" x="597" y="0" flags="0x4"/>
    </TTGlyph>
    <TTGlyph name="Lslash" xMin="38" yMin="0" xMax="1271" yMax="1440">
      <contour>
        <pt x="874" y="819" on="1"/>
        <pt x="634" y="690" on="1"/>
        <pt x="634" y="183" on="1"/>
        <pt x="1271" y="183" on="1"/>
        <pt x="1271" y="0" on="1"/>
        <pt x="237" y="0" on="1"/>
        <pt x="237" y="476" on="1"/>
        <pt x="38" y="369" on="1"/>
        <pt x="38" y="583" on="1"/>
        <pt x="237" y="690" on="1"/>
        <pt x="237" y="1440" on="1"/>
        <pt x="634" y="1440" on="1"/>
        <pt x="634" y="904" on="1"/>
        <pt x="874" y="1033" on="1"/>
      </contour>
    </TTGlyph>
    <TTGlyph name="M" xMin="93" yMin="0" xMax="1946" yMax="1440">
      <contour>
        <pt x="450" y="1074" on="1"/>
        <pt x="338" y="0" on="1"/>
        <pt x="93" y="0" on="1"/>
        <pt x="338" y="1440" on="1"/>
        <pt x="701" y="1440" on="1"/>
        <pt x="1038" y="341" on="1"/>
        <pt x="1379" y="1440" on="1"/>
        <pt x="1742" y="1440" on="1"/>
        <pt x="1946" y="0" on="1"/>
        <pt x="1542" y="0" on="1"/>
        <pt x="1423" y="1046" on="1"/>
        <pt x="1142" y="0" on="1"/>
        <pt x="779" y="0" on="1"/>
      </contour>
    </TTGlyph>
    <TTGlyph name="N" xMin="163" yMin="0" xMax="1479" yMax="1440">
      <contour>
        <pt x="347" y="0" on="1"/>
        <pt x="163" y="0" on="1"/>
        <pt x="163" y="1440" on="1"/>
        <pt x="421" y="1440" on="1"/>
        <pt x="1296" y="451" on="1"/>
        <pt x="1296" y="1440" on="1"/>
        <pt x="1479" y="1440" on="1"/>
        <pt x="1479" y="0" on="1"/>
        <pt x="1221" y="0" on="1"/>
        <pt x="347" y="988" on="1"/>
      </contour>
    </TTGlyph>
    <TTGlyph name="Nacute" xMin="163" yMin="0" xMax="1479" yMax="1740">
      <component glyphName="N" x="0" y="0" flags="0x204"/>
      <component glyphName="acute" x="725" y="300" flags="0x4"/>
    </TTGlyph>
    <TTGlyph name="Ncaron" xMin="163" yMin="0" xMax="1479" yMax="1740">
      <component glyphName="N" x="0" y="0" flags="0x204"/>
      <component glyphName="caron" x="561" y="300" flags="0x4"/>
    </TTGlyph>
    <TTGlyph name="Ncommaaccent" xMin="163" yMin="-534" xMax="1479" yMax="1440">
      <component glyphName="N" x="0" y="0" flags="0x204"/>
      <component glyphName="uni0326" x="575" y="0" flags="0x4"/>
    </TTGlyph>
    <TTGlyph name="Ntilde" xMin="163" yMin="0" xMax="1479" yMax="1853">
      <component glyphName="N" x="0" y="0" flags="0x204"/>
      <component glyphName="tilde" x="432" y="440" flags="0x4"/>
    </TTGlyph>
    <TTGlyph name="O" xMin="84" yMin="-29" xMax="1666" yMax="1474">
      <contour>
        <pt x="1666" y="722" on="1"/>
        <pt x="1666" y="548" on="0"/>
        <pt x="1546" y="269" on="0"/>
        <pt x="1334" y="75" on="0"/>
        <pt x="1044" y="-29" on="0"/>
        <pt x="875" y="-29" on="1"/>
        <pt x="706" y="-29" on="0"/>
        <pt x="416" y="75" on="0"/>
        <pt x="204" y="269" on="0"/>
        <pt x="84" y="548" on="0"/>
        <pt x="84" y="722" on="1"/>
        <pt x="84" y="899" on="0"/>
        <pt x="203" y="1178" on="0"/>
        <pt x="414" y="1371" on="0"/>
        <pt x="704" y="1474" on="0"/>
        <pt x="875" y="1474" on="1"/>
        <pt x="1046" y="1474" on="0"/>
        <pt x="1336" y="1371" on="0"/>
        <pt x="1547" y="1178" on="0"/>
        <pt x="1666" y="899" on="0"/>
      </contour>
      <contour>
        <pt x="1262" y="722" on="1"/>
        <pt x="1262" y="788" on="0"/>
        <pt x="1250" y="926" on="0"/>
        <pt x="1218" y="1056" on="0"/>
        <pt x="1163" y="1170" on="0"/>
        <pt x="1077" y="1255" on="0"/>
        <pt x="956" y="1304" on="0"/>
        <pt x="875" y="1304" on="1"/>
        <pt x="793" y="1304" on="0"/>
        <pt x="671" y="1255" on="0"/>
        <pt x="585" y="1171" on="0"/>
        <pt x="531" y="1057" on="0"/>
        <pt x="500" y="928" on="0"/>
        <pt x="488" y="789" on="0"/>
        <pt x="488" y="722" on="1"/>
        <pt x="488" y="656" on="0"/>
        <pt x="500" y="518" on="0"/>
        <pt x="532" y="389" on="0"/>
        <pt x="587" y="275" on="0"/>
        <pt x="673" y="190" on="0"/>
        <pt x="794" y="140" on="0"/>
        <pt x="875" y="140" on="1"/>
        <pt x="954" y="140" on="0"/>
        <pt x="1072" y="191" on="0"/>
        <pt x="1158" y="278" on="0"/>
        <pt x="1215" y="393" on="0"/>
        <pt x="1248" y="522" on="0"/>
        <pt x="1262" y="658" on="0"/>
      </contour>
    </TTGlyph>
    <TTGlyph name="OE" xMin="84" yMin="-29" xMax="2304" yMax="1474">
      <contour>
        <pt x="1262" y="722" on="1"/>
        <pt x="1262" y="788" on="0"/>
        <pt x="1250" y="926" on="0"/>
        <pt x="1218" y="1056" on="0"/>
        <pt x="1163" y="1170" on="0"/>
        <pt x="1077" y="1255" on="0"/>
        <pt x="956" y="1304" on="0"/>
        <pt x="875" y="1304" on="1"/>
        <pt x="793" y="1304" on="0"/>
        <pt x="671" y="1255" on="0"/>
        <pt x="585" y="1171" on="0"/>
        <pt x="531" y="1057" on="0"/>
        <pt x="500" y="928" on="0"/>
        <pt x="488" y="789" on="0"/>
        <pt x="488" y="722" on="1"/>
        <pt x="488" y="656" on="0"/>
        <pt x="500" y="518" on="0"/>
        <pt x="532" y="389" on="0"/>
        <pt x="587" y="275" on="0"/>
        <pt x="673" y="190" on="0"/>
        <pt x="794" y="140" on="0"/>
        <pt x="875" y="140" on="1"/>
        <pt x="954" y="140" on="0"/>
        <pt x="1072" y="191" on="0"/>
        <pt x="1158" y="278" on="0"/>
        <pt x="1215" y="393" on="0"/>
        <pt x="1248" y="522" on="0"/>
        <pt x="1262" y="658" on="0"/>
      </contour>
      <contour>
        <pt x="2304" y="0" on="1"/>
        <pt x="1270" y="0" on="1"/>
        <pt x="1270" y="107" on="1"/>
        <pt x="1235" y="67" on="0"/>
        <pt x="1144" y="14" on="0"/>
        <pt x="1041" y="-17" on="0"/>
        <pt x="930" y="-29" on="0"/>
        <pt x="875" y="-29" on="1"/>
        <pt x="706" y="-29" on="0"/>
        <pt x="416" y="75" on="0"/>
        <pt x="204" y="269" on="0"/>
        <pt x="84" y="548" on="0"/>
        <pt x="84" y="722" on="1"/>
        <pt x="84" y="899" on="0"/>
        <pt x="203" y="1178" on="0"/>
        <pt x="414" y="1371" on="0"/>
        <pt x="704" y="1474" on="0"/>
        <pt x="875" y="1474" on="1"/>
        <pt x="930" y="1474" on="0"/>
        <pt x="1044" y="1453" on="0"/>
        <pt x="1149" y="1417" on="0"/>
        <pt x="1239" y="1368" on="0"/>
        <pt x="1270" y="1340" on="1"/>
        <pt x="1270" y="1440" on="1"/>
        <pt x="2304" y="1440" on="1"/>
        <pt x="2304" y="1256" on="1"/>
        <pt x="1667" y="1256" on="1"/>
        <pt x="1667" y="811" on="1"/>
        <pt x="2159" y="811" on="1"/>
        <pt x="2159" y="628" on="1"/>
        <pt x="1667" y="628" on="1"/>
        <pt x="1667" y="184" on="1"/>
        <pt x="2304" y="184" on="1"/>
      </contour>
    </TTGlyph>
    <TTGlyph name="Oacute" xMin="84" yMin="-29" xMax="1666" yMax="1918">
      <component glyphName="O" x="0" y="0" flags="0x204"/>
      <component glyphName="acute" x="789" y="478" flags="0x4"/>
    </TTGlyph>
    <TTGlyph name="Obreve" xMin="84" yMin="-29" xMax="1666" yMax="1834">
      <component glyphName="O" x="0" y="0" flags="0x204"/>
      <component glyphName="breve" x="624" y="396" flags="0x4"/>
    </TTGlyph>
    <TTGlyph name="Ocircumflex" xMin="84" yMin="-29" xMax="1666" yMax="1921">
      <component glyphName="O" x="0" y="0" flags="0x204"/>
      <component glyphName="circumflex" x="611" y="487" flags="0x4"/>
    </TTGlyph>
    <TTGlyph name="Odieresis" xMin="84" yMin="-29" xMax="1666" yMax="1849">
      <component glyphName="O" x="0" y="0" flags="0x204"/>
      <component glyphName="dieresis" x="539" y="445" flags="0x4"/>
    </TTGlyph>
    <TTGlyph name="Ograve" xMin="84" yMin="-29" xMax="1666" yMax="1918">
      <component glyphName="O" x="0" y="0" flags="0x204"/>
      <component glyphName="grave" x="441" y="478" flags="0x4"/>
    </TTGlyph>
    <TTGlyph name="Ohungarumlaut" xMin="84" yMin="-29" xMax="1666" yMax="1931">
      <component glyphName="O" x="0" y="0" flags="0x204"/>
      <component glyphName="hungarumlaut" x="598" y="491" flags="0x4"/>
    </TTGlyph>
    <TTGlyph name="Omacron" xMin="84" yMin="-29" xMax="1666" yMax="1781">
      <component glyphName="O" x="0" y="0" flags="0x204"/>
      <component glyphName="macron" x="602" y="441" flags="0x4"/>
    </TTGlyph>
    <TTGlyph name="Oslash" xMin="84" yMin="-29" xMax="1666" yMax="1474">
      <contour>
        <pt x="516" y="455" on="1"/>
        <pt x="1151" y="1177" on="1"/>
        <pt x="1107" y="1235" on="0"/>
        <pt x="973" y="1304" on="0"/>
        <pt x="875" y="1304" on="1"/>
        <pt x="793" y="1304" on="0"/>
        <pt x="671" y="1255" on="0"/>
        <pt x="585" y="1171" on="0"/>
        <pt x="531" y="1057" on="0"/>
        <pt x="500" y="928" on="0"/>
        <pt x="488" y="789" on="0"/>
        <pt x="488" y="722" on="1"/>
        <pt x="488" y="656" on="0"/>
        <pt x="500" y="520" on="0"/>
      </contour>
      <contour>
        <pt x="1232" y="998" on="1"/>
        <pt x="594" y="274" on="1"/>
        <pt x="639" y="214" on="0"/>
        <pt x="775" y="140" on="0"/>
        <pt x="875" y="140" on="1"/>
        <pt x="954" y="140" on="0"/>
        <pt x="1072" y="191" on="0"/>
        <pt x="1158" y="278" on="0"/>
        <pt x="1215" y="393" on="0"/>
        <pt x="1248" y="522" on="0"/>
        <pt x="1262" y="658" on="0"/>
        <pt x="1262" y="722" on="1"/>
        <pt x="1262" y="791" on="0"/>
        <pt x="1249" y="932" on="0"/>
      </contour>
      <contour>
        <pt x="1621" y="1440" on="1"/>
        <pt x="1460" y="1257" on="1"/>
        <pt x="1557" y="1160" on="0"/>
        <pt x="1666" y="892" on="0"/>
        <pt x="1666" y="722" on="1"/>
        <pt x="1666" y="548" on="0"/>
        <pt x="1546" y="269" on="0"/>
        <pt x="1334" y="75" on="0"/>
        <pt x="1044" y="-29" on="0"/>
        <pt x="875" y="-29" on="1"/>
        <pt x="747" y="-29" on="0"/>
        <pt x="522" y="29" on="0"/>
        <pt x="428" y="85" on="1"/>
        <pt x="353" y="0" on="1"/>
        <pt x="115" y="0" on="1"/>
        <pt x="287" y="195" on="1"/>
        <pt x="191" y="292" on="0"/>
        <pt x="84" y="557" on="0"/>
        <pt x="84" y="722" on="1"/>
        <pt x="84" y="899" on="0"/>
        <pt x="203" y="1178" on="0"/>
        <pt x="414" y="1371" on="0"/>
        <pt x="704" y="1474" on="0"/>
        <pt x="875" y="1474" on="1"/>
        <pt x="1001" y="1474" on="0"/>
        <pt x="1223" y="1419" on="0"/>
        <pt x="1317" y="1365" on="1"/>
        <pt x="1383" y="1440" on="1"/>
      </contour>
    </TTGlyph>
    <TTGlyph name="Oslashacute" xMin="84" yMin="-29" xMax="1666" yMax="1927">
      <contour>
        <pt x="516" y="455" on="1"/>
        <pt x="1151" y="1177" on="1"/>
        <pt x="1107" y="1235" on="0"/>
        <pt x="973" y="1304" on="0"/>
        <pt x="875" y="1304" on="1"/>
        <pt x="793" y="1304" on="0"/>
        <pt x="671" y="1255" on="0"/>
        <pt x="585" y="1171" on="0"/>
        <pt x="531" y="1057" on="0"/>
        <pt x="500" y="928" on="0"/>
        <pt x="488" y="789" on="0"/>
        <pt x="488" y="722" on="1"/>
        <pt x="488" y="656" on="0"/>
        <pt x="500" y="520" on="0"/>
      </contour>
      <contour>
        <pt x="1232" y="998" on="1"/>
        <pt x="594" y="274" on="1"/>
        <pt x="639" y="214" on="0"/>
        <pt x="775" y="140" on="0"/>
        <pt x="875" y="140" on="1"/>
        <pt x="954" y="140" on="0"/>
        <pt x="1072" y="191" on="0"/>
        <pt x="1158" y="278" on="0"/>
        <pt x="1215" y="393" on="0"/>
        <pt x="1248" y="522" on="0"/>
        <pt x="1262" y="658" on="0"/>
        <pt x="1262" y="722" on="1"/>
        <pt x="1262" y="791" on="0"/>
        <pt x="1249" y="932" on="0"/>
      </contour>
      <contour>
        <pt x="1621" y="1440" on="1"/>
        <pt x="1460" y="1257" on="1"/>
        <pt x="1557" y="1160" on="0"/>
        <pt x="1666" y="892" on="0"/>
        <pt x="1666" y="722" on="1"/>
        <pt x="1666" y="548" on="0"/>
        <pt x="1546" y="269" on="0"/>
        <pt x="1334" y="75" on="0"/>
        <pt x="1044" y="-29" on="0"/>
        <pt x="875" y="-29" on="1"/>
        <pt x="747" y="-29" on="0"/>
        <pt x="522" y="29" on="0"/>
        <pt x="428" y="85" on="1"/>
        <pt x="353" y="0" on="1"/>
        <pt x="115" y="0" on="1"/>
        <pt x="287" y="195" on="1"/>
        <pt x="191" y="292" on="0"/>
        <pt x="84" y="557" on="0"/>
        <pt x="84" y="722" on="1"/>
        <pt x="84" y="899" on="0"/>
        <pt x="203" y="1178" on="0"/>
        <pt x="414" y="1371" on="0"/>
        <pt x="704" y="1474" on="0"/>
        <pt x="875" y="1474" on="1"/>
        <pt x="1001" y="1474" on="0"/>
        <pt x="1223" y="1419" on="0"/>
        <pt x="1317" y="1365" on="1"/>
        <pt x="1383" y="1440" on="1"/>
      </contour>
      <contour>
        <pt x="1286" y="1927" on="1"/>
        <pt x="969" y="1573" on="1"/>
        <pt x="770" y="1573" on="1"/>
        <pt x="968" y="1927" on="1"/>
      </contour>
    </TTGlyph>
    <TTGlyph name="Otilde" xMin="84" yMin="-29" xMax="1666" yMax="1881">
      <component glyphName="O" x="0" y="0" flags="0x204"/>
      <component glyphName="tilde" x="486" y="468" flags="0x4"/>
    </TTGlyph>
    <TTGlyph name="P" xMin="163" yMin="0" xMax="1454" yMax="1440">
      <contour>
        <pt x="560" y="0" on="1"/>
        <pt x="163" y="0" on="1"/>
        <pt x="163" y="1440" on="1"/>
        <pt x="941" y="1440" on="1"/>
        <pt x="1042" y="1440" on="0"/>
        <pt x="1227" y="1386" on="0"/>
        <pt x="1369" y="1277" on="0"/>
        <pt x="1454" y="1112" on="0"/>
        <pt x="1454" y="1001" on="1"/>
        <pt x="1454" y="931" on="0"/>
        <pt x="1414" y="808" on="0"/>
        <pt x="1343" y="706" on="0"/>
        <pt x="1247" y="624" on="0"/>
        <pt x="1133" y="568" on="0"/>
        <pt x="1006" y="538" on="0"/>
        <pt x="941" y="538" on="1"/>
        <pt x="560" y="538" on="1"/>
      </contour>
      <contour>
        <pt x="1052" y="1001" on="1"/>
        <pt x="1052" y="1140" on="0"/>
        <pt x="911" y="1299" on="0"/>
        <pt x="769" y="1299" on="1"/>
        <pt x="560" y="1299" on="1"/>
        <pt x="560" y="674" on="1"/>
        <pt x="769" y="674" on="1"/>
        <pt x="845" y="674" on="0"/>
        <pt x="952" y="723" on="0"/>
        <pt x="1020" y="811" on="0"/>
        <pt x="1052" y="930" on="0"/>
      </contour>
    </TTGlyph>
    <TTGlyph name="Q" xMin="86" yMin="-590" xMax="1668" yMax="1474">
      <contour>
        <pt x="1612" y="-384" on="1"/>
        <pt x="1236" y="-590" on="1"/>
        <pt x="1175" y="-538" on="0"/>
        <pt x="1056" y="-407" on="0"/>
        <pt x="950" y="-261" on="0"/>
        <pt x="862" y="-105" on="0"/>
        <pt x="833" y="-28" on="1"/>
        <pt x="672" y="-21" on="0"/>
        <pt x="398" y="88" on="0"/>
        <pt x="199" y="282" on="0"/>
        <pt x="86" y="553" on="0"/>
        <pt x="86" y="722" on="1"/>
        <pt x="86" y="899" on="0"/>
        <pt x="205" y="1178" on="0"/>
        <pt x="416" y="1371" on="0"/>
        <pt x="706" y="1474" on="0"/>
        <pt x="877" y="1474" on="1"/>
        <pt x="1048" y="1474" on="0"/>
        <pt x="1338" y="1371" on="0"/>
        <pt x="1549" y="1178" on="0"/>
        <pt x="1668" y="899" on="0"/>
        <pt x="1668" y="722" on="1"/>
        <pt x="1668" y="573" on="0"/>
        <pt x="1580" y="327" on="0"/>
        <pt x="1421" y="139" on="0"/>
        <pt x="1201" y="15" on="0"/>
        <pt x="1069" y="-11" on="1"/>
        <pt x="1125" y="-70" on="0"/>
        <pt x="1257" y="-180" on="0"/>
        <pt x="1398" y="-276" on="0"/>
        <pt x="1543" y="-355" on="0"/>
      </contour>
      <contour>
        <pt x="1264" y="722" on="1"/>
        <pt x="1264" y="788" on="0"/>
        <pt x="1252" y="926" on="0"/>
        <pt x="1220" y="1056" on="0"/>
        <pt x="1165" y="1170" on="0"/>
        <pt x="1079" y="1255" on="0"/>
        <pt x="958" y="1304" on="0"/>
        <pt x="877" y="1304" on="1"/>
        <pt x="795" y="1304" on="0"/>
        <pt x="673" y="1255" on="0"/>
        <pt x="587" y="1171" on="0"/>
        <pt x="533" y="1057" on="0"/>
        <pt x="502" y="928" on="0"/>
        <pt x="490" y="789" on="0"/>
        <pt x="490" y="722" on="1"/>
        <pt x="490" y="656" on="0"/>
        <pt x="502" y="518" on="0"/>
        <pt x="534" y="389" on="0"/>
        <pt x="589" y="275" on="0"/>
        <pt x="675" y="190" on="0"/>
        <pt x="796" y="140" on="0"/>
        <pt x="877" y="140" on="1"/>
        <pt x="956" y="140" on="0"/>
        <pt x="1074" y="191" on="0"/>
        <pt x="1160" y="278" on="0"/>
        <pt x="1217" y="393" on="0"/>
        <pt x="1250" y="522" on="0"/>
        <pt x="1264" y="658" on="0"/>
      </contour>
    </TTGlyph>
    <TTGlyph name="R" xMin="163" yMin="0" xMax="1454" yMax="1440">
      <contour>
        <pt x="560" y="0" on="1"/>
        <pt x="163" y="0" on="1"/>
        <pt x="163" y="1440" on="1"/>
        <pt x="871" y="1440" on="1"/>
        <pt x="971" y="1440" on="0"/>
        <pt x="1157" y="1393" on="0"/>
        <pt x="1300" y="1292" on="0"/>
        <pt x="1385" y="1132" on="0"/>
        <pt x="1385" y="1018" on="1"/>
        <pt x="1385" y="929" on="0"/>
        <pt x="1310" y="772" on="0"/>
        <pt x="1185" y="649" on="0"/>
        <pt x="1023" y="568" on="0"/>
        <pt x="936" y="555" on="1"/>
        <pt x="975" y="489" on="0"/>
        <pt x="1060" y="371" on="0"/>
        <pt x="1147" y="268" on="0"/>
        <pt x="1233" y="181" on="0"/>
        <pt x="1272" y="145" on="1"/>
        <pt x="1364" y="61" on="0"/>
        <pt x="1454" y="0" on="1"/>
        <pt x="959" y="0" on="1"/>
        <pt x="899" y="57" on="0"/>
        <pt x="845" y="137" on="1"/>
        <pt x="799" y="205" on="0"/>
        <pt x="706" y="406" on="0"/>
        <pt x="681" y="538" on="1"/>
        <pt x="560" y="538" on="1"/>
      </contour>
      <contour>
        <pt x="982" y="1018" on="1"/>
        <pt x="982" y="1163" on="0"/>
        <pt x="841" y="1299" on="0"/>
        <pt x="700" y="1299" on="1"/>
        <pt x="560" y="1299" on="1"/>
        <pt x="560" y="674" on="1"/>
        <pt x="700" y="674" on="1"/>
        <pt x="775" y="674" on="0"/>
        <pt x="882" y="731" on="0"/>
        <pt x="950" y="826" on="0"/>
        <pt x="982" y="950" on="0"/>
      </contour>
    </TTGlyph>
    <TTGlyph name="Racute" xMin="163" yMin="0" xMax="1454" yMax="1894">
      <component glyphName="R" x="0" y="0" flags="0x204"/>
      <component glyphName="acute" x="569" y="454" flags="0x4"/>
    </TTGlyph>
    <TTGlyph name="Rcaron" xMin="163" yMin="0" xMax="1454" yMax="1890">
      <component glyphName="R" x="0" y="0" flags="0x204"/>
      <component glyphName="caron" x="400" y="450" flags="0x4"/>
    </TTGlyph>
    <TTGlyph name="Rcommaaccent" xMin="163" yMin="-534" xMax="1454" yMax="1440">
      <component glyphName="R" x="0" y="0" flags="0x204"/>
      <component glyphName="uni0326" x="455" y="0" flags="0x4"/>
    </TTGlyph>
    <TTGlyph name="S" xMin="77" yMin="-29" xMax="1343" yMax="1475">
      <contour>
        <pt x="1343" y="440" on="1"/>
        <pt x="1343" y="347" on="0"/>
        <pt x="1296" y="205" on="0"/>
        <pt x="1211" y="101" on="0"/>
        <pt x="1095" y="31" on="0"/>
        <pt x="958" y="-11" on="0"/>
        <pt x="805" y="-29" on="0"/>
        <pt x="726" y="-29" on="1"/>
        <pt x="622" y="-29" on="0"/>
        <pt x="446" y="2" on="0"/>
        <pt x="291" y="69" on="0"/>
        <pt x="148" y="175" on="0"/>
        <pt x="77" y="251" on="1"/>
        <pt x="281" y="458" on="1"/>
        <pt x="309" y="389" on="0"/>
        <pt x="407" y="272" on="0"/>
        <pt x="524" y="188" on="0"/>
        <pt x="650" y="140" on="0"/>
        <pt x="706" y="140" on="1"/>
        <pt x="772" y="140" on="0"/>
        <pt x="888" y="159" on="0"/>
        <pt x="974" y="203" on="0"/>
        <pt x="1023" y="276" on="0"/>
        <pt x="1023" y="331" on="1"/>
        <pt x="1023" y="373" on="0"/>
        <pt x="985" y="433" on="0"/>
        <pt x="924" y="476" on="0"/>
        <pt x="846" y="506" on="0"/>
        <pt x="765" y="527" on="0"/>
        <pt x="687" y="544" on="0"/>
        <pt x="657" y="553" on="1"/>
        <pt x="598" y="570" on="0"/>
        <pt x="470" y="609" on="0"/>
        <pt x="346" y="659" on="0"/>
        <pt x="235" y="724" on="0"/>
        <pt x="151" y="813" on="0"/>
        <pt x="101" y="930" on="0"/>
        <pt x="101" y="1006" on="1"/>
        <pt x="101" y="1097" on="0"/>
        <pt x="146" y="1238" on="0"/>
        <pt x="228" y="1342" on="0"/>
        <pt x="340" y="1413" on="0"/>
        <pt x="474" y="1456" on="0"/>
        <pt x="625" y="1475" on="0"/>
        <pt x="704" y="1475" on="1"/>
        <pt x="812" y="1475" on="0"/>
        <pt x="989" y="1435" on="0"/>
        <pt x="1139" y="1361" on="0"/>
        <pt x="1264" y="1258" on="0"/>
        <pt x="1319" y="1195" on="1"/>
        <pt x="1115" y="988" on="1"/>
        <pt x="1091" y="1060" on="0"/>
        <pt x="1006" y="1176" on="0"/>
        <pt x="902" y="1259" on="0"/>
        <pt x="788" y="1304" on="0"/>
        <pt x="735" y="1304" on="1"/>
        <pt x="666" y="1304" on="0"/>
        <pt x="550" y="1285" on="0"/>
        <pt x="467" y="1242" on="0"/>
        <pt x="421" y="1169" on="0"/>
        <pt x="421" y="1115" on="1"/>
        <pt x="421" y="1072" on="0"/>
        <pt x="455" y="1012" on="0"/>
        <pt x="512" y="970" on="0"/>
        <pt x="584" y="943" on="0"/>
        <pt x="661" y="923" on="0"/>
        <pt x="736" y="908" on="0"/>
        <pt x="767" y="899" on="1"/>
        <pt x="827" y="882" on="0"/>
        <pt x="959" y="844" on="0"/>
        <pt x="1087" y="793" on="0"/>
        <pt x="1203" y="727" on="0"/>
        <pt x="1291" y="636" on="0"/>
        <pt x="1343" y="517" on="0"/>
      </contour>
    </TTGlyph>
    <TTGlyph name="Sacute" xMin="77" yMin="-29" xMax="1343" yMax="1927">
      <component glyphName="S" x="0" y="0" flags="0x204"/>
      <component glyphName="acute" x="603" y="487" flags="0x4"/>
    </TTGlyph>
    <TTGlyph name="Scaron" xMin="77" yMin="-29" xMax="1343" yMax="1931">
      <component glyphName="S" x="0" y="0" flags="0x204"/>
      <component glyphName="caron" x="432" y="491" flags="0x4"/>
    </TTGlyph>
    <TTGlyph name="Scedilla" xMin="77" yMin="-437" xMax="1343" yMax="1475">
      <contour>
        <pt x="926" y="-227" on="1"/>
        <pt x="926" y="-280" on="0"/>
        <pt x="890" y="-358" on="0"/>
        <pt x="827" y="-411" on="0"/>
        <pt x="741" y="-437" on="0"/>
        <pt x="692" y="-437" on="1"/>
        <pt x="652" y="-437" on="0"/>
        <pt x="582" y="-406" on="0"/>
        <pt x="530" y="-354" on="0"/>
        <pt x="500" y="-283" on="0"/>
        <pt x="500" y="-243" on="1"/>
        <pt x="613" y="-243" on="1"/>
        <pt x="614" y="-272" on="0"/>
        <pt x="663" y="-301" on="0"/>
        <pt x="688" y="-301" on="1"/>
        <pt x="729" y="-301" on="0"/>
        <pt x="766" y="-269" on="0"/>
        <pt x="766" y="-227" on="1"/>
        <pt x="766" y="-205" on="0"/>
        <pt x="735" y="-181" on="0"/>
        <pt x="691" y="-169" on="0"/>
        <pt x="645" y="-166" on="0"/>
        <pt x="629" y="-166" on="1"/>
        <pt x="660" y="-27" on="1"/>
        <pt x="569" y="-23" on="0"/>
        <pt x="413" y="13" on="0"/>
        <pt x="273" y="80" on="0"/>
        <pt x="142" y="181" on="0"/>
        <pt x="77" y="251" on="1"/>
        <pt x="281" y="458" on="1"/>
        <pt x="309" y="389" on="0"/>
        <pt x="407" y="272" on="0"/>
        <pt x="524" y="188" on="0"/>
        <pt x="650" y="140" on="0"/>
        <pt x="706" y="140" on="1"/>
        <pt x="772" y="140" on="0"/>
        <pt x="888" y="159" on="0"/>
        <pt x="974" y="203" on="0"/>
        <pt x="1023" y="276" on="0"/>
        <pt x="1023" y="331" on="1"/>
        <pt x="1023" y="373" on="0"/>
        <pt x="985" y="433" on="0"/>
        <pt x="924" y="476" on="0"/>
        <pt x="846" y="506" on="0"/>
        <pt x="765" y="527" on="0"/>
        <pt x="687" y="544" on="0"/>
        <pt x="657" y="553" on="1"/>
        <pt x="598" y="570" on="0"/>
        <pt x="470" y="609" on="0"/>
        <pt x="346" y="659" on="0"/>
        <pt x="235" y="724" on="0"/>
        <pt x="151" y="813" on="0"/>
        <pt x="101" y="930" on="0"/>
        <pt x="101" y="1006" on="1"/>
        <pt x="101" y="1097" on="0"/>
        <pt x="146" y="1238" on="0"/>
        <pt x="228" y="1342" on="0"/>
        <pt x="340" y="1413" on="0"/>
        <pt x="474" y="1456" on="0"/>
        <pt x="625" y="1475" on="0"/>
        <pt x="704" y="1475" on="1"/>
        <pt x="812" y="1475" on="0"/>
        <pt x="989" y="1435" on="0"/>
        <pt x="1139" y="1361" on="0"/>
        <pt x="1264" y="1258" on="0"/>
        <pt x="1319" y="1195" on="1"/>
        <pt x="1115" y="988" on="1"/>
        <pt x="1091" y="1060" on="0"/>
        <pt x="1006" y="1176" on="0"/>
        <pt x="902" y="1259" on="0"/>
        <pt x="788" y="1304" on="0"/>
        <pt x="735" y="1304" on="1"/>
        <pt x="666" y="1304" on="0"/>
        <pt x="550" y="1285" on="0"/>
        <pt x="467" y="1242" on="0"/>
        <pt x="421" y="1169" on="0"/>
        <pt x="421" y="1115" on="1"/>
        <pt x="421" y="1072" on="0"/>
        <pt x="455" y="1012" on="0"/>
        <pt x="512" y="970" on="0"/>
        <pt x="584" y="943" on="0"/>
        <pt x="661" y="923" on="0"/>
        <pt x="736" y="908" on="0"/>
        <pt x="767" y="899" on="1"/>
        <pt x="827" y="882" on="0"/>
        <pt x="959" y="844" on="0"/>
        <pt x="1087" y="793" on="0"/>
        <pt x="1203" y="727" on="0"/>
        <pt x="1291" y="636" on="0"/>
        <pt x="1343" y="517" on="0"/>
        <pt x="1343" y="440" on="1"/>
        <pt x="1343" y="351" on="0"/>
        <pt x="1300" y="214" on="0"/>
        <pt x="1223" y="112" on="0"/>
        <pt x="1116" y="41" on="0"/>
        <pt x="989" y="-4" on="0"/>
        <pt x="846" y="-26" on="0"/>
        <pt x="771" y="-28" on="1"/>
        <pt x="757" y="-82" on="1"/>
        <pt x="788" y="-82" on="0"/>
        <pt x="849" y="-101" on="0"/>
        <pt x="897" y="-138" on="0"/>
        <pt x="926" y="-192" on="0"/>
      </contour>
    </TTGlyph>
    <TTGlyph name="Scircumflex" xMin="77" yMin="-29" xMax="1343" yMax="1930">
      <component glyphName="S" x="0" y="0" flags="0x204"/>
      <component glyphName="circumflex" x="450" y="496" flags="0x4"/>
    </TTGlyph>
    <TTGlyph name="T" xMin="40" yMin="0" xMax="1221" yMax="1440">
      <contour>
        <pt x="829" y="0" on="1"/>
        <pt x="432" y="0" on="1"/>
        <pt x="432" y="1256" on="1"/>
        <pt x="40" y="1256" on="1"/>
        <pt x="40" y="1440" on="1"/>
        <pt x="1221" y="1440" on="1"/>
        <pt x="1221" y="1256" on="1"/>
        <pt x="829" y="1256" on="1"/>
      </contour>
    </TTGlyph>
    <TTGlyph name="Tbar" xMin="40" yMin="0" xMax="1221" yMax="1440">
      <contour>
        <pt x="829" y="0" on="1"/>
        <pt x="432" y="0" on="1"/>
        <pt x="432" y="609" on="1"/>
        <pt x="238" y="609" on="1"/>
        <pt x="238" y="807" on="1"/>
        <pt x="432" y="807" on="1"/>
        <pt x="432" y="1256" on="1"/>
        <pt x="40" y="1256" on="1"/>
        <pt x="40" y="1440" on="1"/>
        <pt x="1221" y="1440" on="1"/>
        <pt x="1221" y="1256" on="1"/>
        <pt x="829" y="1256" on="1"/>
        <pt x="829" y="807" on="1"/>
        <pt x="1023" y="807" on="1"/>
        <pt x="1023" y="609" on="1"/>
        <pt x="829" y="609" on="1"/>
      </contour>
    </TTGlyph>
    <TTGlyph name="Tcaron" xMin="40" yMin="0" xMax="1221" yMax="1900">
      <component glyphName="T" x="0" y="0" flags="0x204"/>
      <component glyphName="caron" x="352" y="460" flags="0x4"/>
    </TTGlyph>
    <TTGlyph name="Tcommaaccent" xMin="40" yMin="-534" xMax="1221" yMax="1440">
      <component glyphName="T" x="0" y="0" flags="0x204"/>
      <component glyphName="uni0326" x="395" y="0" flags="0x4"/>
    </TTGlyph>
    <TTGlyph name="Thorn" xMin="163" yMin="0" xMax="1454" yMax="1440">
      <contour>
        <pt x="560" y="1029" on="1"/>
        <pt x="560" y="404" on="1"/>
        <pt x="769" y="404" on="1"/>
        <pt x="845" y="404" on="0"/>
        <pt x="952" y="453" on="0"/>
        <pt x="1020" y="541" on="0"/>
        <pt x="1052" y="660" on="0"/>
        <pt x="1052" y="731" on="1"/>
        <pt x="1052" y="870" on="0"/>
        <pt x="911" y="1029" on="0"/>
        <pt x="769" y="1029" on="1"/>
      </contour>
      <contour>
        <pt x="560" y="0" on="1"/>
        <pt x="163" y="0" on="1"/>
        <pt x="163" y="1440" on="1"/>
        <pt x="560" y="1440" on="1"/>
        <pt x="560" y="1170" on="1"/>
        <pt x="941" y="1170" on="1"/>
        <pt x="1042" y="1170" on="0"/>
        <pt x="1227" y="1116" on="0"/>
        <pt x="1369" y="1007" on="0"/>
        <pt x="1454" y="842" on="0"/>
        <pt x="1454" y="731" on="1"/>
        <pt x="1454" y="661" on="0"/>
        <pt x="1414" y="538" on="0"/>
        <pt x="1343" y="436" on="0"/>
        <pt x="1247" y="354" on="0"/>
        <pt x="1133" y="298" on="0"/>
        <pt x="1006" y="268" on="0"/>
        <pt x="941" y="268" on="1"/>
        <pt x="560" y="268" on="1"/>
      </contour>
    </TTGlyph>
    <TTGlyph name="U" xMin="94" yMin="-31" xMax="1484" yMax="1440">
      <contour>
        <pt x="585" y="1440" on="1"/>
        <pt x="558" y="1359" on="0"/>
        <pt x="518" y="1186" on="0"/>
        <pt x="492" y="1013" on="0"/>
        <pt x="479" y="845" on="0"/>
        <pt x="479" y="770" on="1"/>
        <pt x="479" y="715" on="0"/>
        <pt x="480" y="578" on="0"/>
        <pt x="495" y="436" on="0"/>
        <pt x="529" y="301" on="0"/>
        <pt x="596" y="195" on="0"/>
        <pt x="701" y="131" on="0"/>
        <pt x="779" y="131" on="1"/>
        <pt x="848" y="131" on="0"/>
        <pt x="947" y="178" on="0"/>
        <pt x="1016" y="258" on="0"/>
        <pt x="1057" y="362" on="0"/>
        <pt x="1080" y="476" on="0"/>
        <pt x="1087" y="593" on="0"/>
        <pt x="1087" y="646" on="1"/>
        <pt x="1087" y="1440" on="1"/>
        <pt x="1484" y="1440" on="1"/>
        <pt x="1484" y="708" on="1"/>
        <pt x="1484" y="551" on="0"/>
        <pt x="1384" y="281" on="0"/>
        <pt x="1202" y="82" on="0"/>
        <pt x="944" y="-31" on="0"/>
        <pt x="787" y="-31" on="1"/>
        <pt x="679" y="-31" on="0"/>
        <pt x="493" y="30" on="0"/>
        <pt x="338" y="137" on="0"/>
        <pt x="217" y="284" on="0"/>
        <pt x="136" y="458" on="0"/>
        <pt x="94" y="651" on="0"/>
        <pt x="96" y="750" on="1"/>
        <pt x="96" y="770" on="1"/>
        <pt x="97" y="850" on="0"/>
        <pt x="127" y="1021" on="0"/>
        <pt x="178" y="1193" on="0"/>
        <pt x="250" y="1362" on="0"/>
        <pt x="294" y="1440" on="1"/>
      </contour>
    </TTGlyph>
    <TTGlyph name="Uacute" xMin="94" yMin="-31" xMax="1484" yMax="1844">
      <component glyphName="U" x="0" y="0" flags="0x204"/>
      <component glyphName="acute" x="731" y="404" flags="0x4"/>
    </TTGlyph>
    <TTGlyph name="Ubreve" xMin="94" yMin="-31" xMax="1484" yMax="1741">
      <component glyphName="U" x="0" y="0" flags="0x204"/>
      <component glyphName="breve" x="564" y="303" flags="0x4"/>
    </TTGlyph>
    <TTGlyph name="Ucircumflex" xMin="94" yMin="-31" xMax="1484" yMax="1893">
      <component glyphName="U" x="0" y="0" flags="0x204"/>
      <component glyphName="circumflex" x="552" y="459" flags="0x4"/>
    </TTGlyph>
    <TTGlyph name="Udieresis" xMin="94" yMin="-31" xMax="1484" yMax="1839">
      <component glyphName="U" x="0" y="0" flags="0x204"/>
      <component glyphName="dieresis" x="474" y="435" flags="0x4"/>
    </TTGlyph>
    <TTGlyph name="Ugrave" xMin="94" yMin="-31" xMax="1484" yMax="1844">
      <component glyphName="U" x="0" y="0" flags="0x204"/>
      <component glyphName="grave" x="412" y="404" flags="0x4"/>
    </TTGlyph>
    <TTGlyph name="Uhungarumlaut" xMin="94" yMin="-31" xMax="1484" yMax="1894">
      <component glyphName="U" x="0" y="0" flags="0x204"/>
      <component glyphName="hungarumlaut" x="534" y="454" flags="0x4"/>
    </TTGlyph>
    <TTGlyph name="Umacron" xMin="94" yMin="-31" xMax="1484" yMax="1734">
      <component glyphName="U" x="0" y="0" flags="0x204"/>
      <component glyphName="macron" x="560" y="394" flags="0x4"/>
    </TTGlyph>
    <TTGlyph name="Uogonek" xMin="94" yMin="-417" xMax="1484" yMax="1440">
      <contour>
        <pt x="1033" y="-223" on="1"/>
        <pt x="1033" y="-263" on="0"/>
        <pt x="1003" y="-333" on="0"/>
        <pt x="951" y="-386" on="0"/>
        <pt x="881" y="-417" on="0"/>
        <pt x="841" y="-417" on="1"/>
        <pt x="790" y="-417" on="0"/>
        <pt x="705" y="-386" on="0"/>
        <pt x="642" y="-327" on="0"/>
        <pt x="607" y="-244" on="0"/>
        <pt x="607" y="-192" on="1"/>
        <pt x="607" y="-144" on="0"/>
        <pt x="660" y="-59" on="0"/>
        <pt x="699" y="-25" on="1"/>
        <pt x="604" y="-13" on="0"/>
        <pt x="441" y="60" on="0"/>
        <pt x="306" y="170" on="0"/>
        <pt x="201" y="313" on="0"/>
        <pt x="130" y="477" on="0"/>
        <pt x="94" y="658" on="0"/>
        <pt x="96" y="750" on="1"/>
        <pt x="96" y="770" on="1"/>
        <pt x="97" y="850" on="0"/>
        <pt x="127" y="1021" on="0"/>
        <pt x="178" y="1193" on="0"/>
        <pt x="250" y="1362" on="0"/>
        <pt x="294" y="1440" on="1"/>
        <pt x="585" y="1440" on="1"/>
        <pt x="558" y="1359" on="0"/>
        <pt x="518" y="1186" on="0"/>
        <pt x="492" y="1013" on="0"/>
        <pt x="479" y="845" on="0"/>
        <pt x="479" y="770" on="1"/>
        <pt x="479" y="715" on="0"/>
        <pt x="480" y="578" on="0"/>
        <pt x="495" y="436" on="0"/>
        <pt x="529" y="301" on="0"/>
        <pt x="596" y="195" on="0"/>
        <pt x="701" y="131" on="0"/>
        <pt x="779" y="131" on="1"/>
        <pt x="848" y="131" on="0"/>
        <pt x="947" y="178" on="0"/>
        <pt x="1016" y="258" on="0"/>
        <pt x="1057" y="362" on="0"/>
        <pt x="1080" y="476" on="0"/>
        <pt x="1087" y="593" on="0"/>
        <pt x="1087" y="646" on="1"/>
        <pt x="1087" y="1440" on="1"/>
        <pt x="1484" y="1440" on="1"/>
        <pt x="1484" y="708" on="1"/>
        <pt x="1484" y="558" on="0"/>
        <pt x="1392" y="297" on="0"/>
        <pt x="1224" y="101" on="0"/>
        <pt x="986" y="-19" on="0"/>
        <pt x="840" y="-29" on="1"/>
        <pt x="809" y="-65" on="0"/>
        <pt x="766" y="-150" on="0"/>
        <pt x="766" y="-192" on="1"/>
        <pt x="766" y="-231" on="0"/>
        <pt x="803" y="-281" on="0"/>
        <pt x="845" y="-281" on="1"/>
        <pt x="870" y="-281" on="0"/>
        <pt x="919" y="-252" on="0"/>
        <pt x="920" y="-223" on="1"/>
      </contour>
    </TTGlyph>
    <TTGlyph name="Uring" xMin="94" yMin="-31" xMax="1484" yMax="1941">
      <component glyphName="U" x="0" y="0" flags="0x204"/>
      <component glyphName="ring" x="588" y="405" flags="0x4"/>
    </TTGlyph>
    <TTGlyph name="Utilde" xMin="94" yMin="-31" xMax="1484" yMax="1853">
      <component glyphName="U" x="0" y="0" flags="0x204"/>
      <component glyphName="tilde" x="426" y="440" flags="0x4"/>
    </TTGlyph>
    <TTGlyph name="V" xMin="8" yMin="0" xMax="1419" yMax="1440">
      <contour>
        <pt x="909" y="0" on="1"/>
        <pt x="546" y="0" on="1"/>
        <pt x="8" y="1440" on="1"/>
        <pt x="413" y="1440" on="1"/>
        <pt x="812" y="281" on="1"/>
        <pt x="1173" y="1440" on="1"/>
        <pt x="1419" y="1440" on="1"/>
      </contour>
    </TTGlyph>
    <TTGlyph name="W" xMin="58" yMin="0" xMax="2016" yMax="1440">
      <contour>
        <pt x="799" y="0" on="1"/>
        <pt x="436" y="0" on="1"/>
        <pt x="58" y="1440" on="1"/>
        <pt x="463" y="1440" on="1"/>
        <pt x="702" y="418" on="1"/>
        <pt x="914" y="1440" on="1"/>
        <pt x="1278" y="1440" on="1"/>
        <pt x="1510" y="392" on="1"/>
        <pt x="1771" y="1440" on="1"/>
        <pt x="2016" y="1440" on="1"/>
        <pt x="1597" y="0" on="1"/>
        <pt x="1233" y="0" on="1"/>
        <pt x="1030" y="920" on="1"/>
      </contour>
    </TTGlyph>
    <TTGlyph name="Wacute" xMin="58" yMin="0" xMax="2016" yMax="1894">
      <component glyphName="W" x="0" y="0" flags="0x204"/>
      <component glyphName="acute" x="992" y="454" flags="0x4"/>
    </TTGlyph>
    <TTGlyph name="Wcircumflex" xMin="58" yMin="0" xMax="2016" yMax="1893">
      <component glyphName="W" x="0" y="0" flags="0x204"/>
      <component glyphName="circumflex" x="829" y="459" flags="0x4"/>
    </TTGlyph>
    <TTGlyph name="Wdieresis" xMin="58" yMin="0" xMax="2016" yMax="1830">
      <component glyphName="W" x="0" y="0" flags="0x204"/>
      <component glyphName="dieresis" x="766" y="426" flags="0x4"/>
    </TTGlyph>
    <TTGlyph name="Wgrave" xMin="58" yMin="0" xMax="2016" yMax="1890">
      <component glyphName="W" x="0" y="0" flags="0x204"/>
      <component glyphName="grave" x="682" y="450" flags="0x4"/>
    </TTGlyph>
    <TTGlyph name="X" xMin="12" yMin="0" xMax="1381" yMax="1440">
      <contour>
        <pt x="1381" y="0" on="1"/>
        <pt x="976" y="0" on="1"/>
        <pt x="638" y="505" on="1"/>
        <pt x="292" y="0" on="1"/>
        <pt x="12" y="0" on="1"/>
        <pt x="532" y="662" on="1"/>
        <pt x="12" y="1440" on="1"/>
        <pt x="417" y="1440" on="1"/>
        <pt x="744" y="951" on="1"/>
        <pt x="1101" y="1440" on="1"/>
        <pt x="1381" y="1440" on="1"/>
        <pt x="850" y="793" on="1"/>
      </contour>
    </TTGlyph>
    <TTGlyph name="Y" xMin="-2" yMin="0" xMax="1332" yMax="1440">
      <contour>
        <pt x="1332" y="1440" on="1"/>
        <pt x="866" y="605" on="1"/>
        <pt x="866" y="0" on="1"/>
        <pt x="469" y="0" on="1"/>
        <pt x="469" y="583" on="1"/>
        <pt x="-2" y="1440" on="1"/>
        <pt x="403" y="1440" on="1"/>
        <pt x="716" y="716" on="1"/>
        <pt x="1052" y="1440" on="1"/>
      </contour>
    </TTGlyph>
    <TTGlyph name="Yacute" xMin="-2" yMin="0" xMax="1332" yMax="1744">
      <component glyphName="Y" x="0" y="0" flags="0x204"/>
      <component glyphName="acute" x="629" y="304" flags="0x4"/>
    </TTGlyph>
    <TTGlyph name="Ycircumflex" xMin="-2" yMin="0" xMax="1332" yMax="1893">
      <component glyphName="Y" x="0" y="0" flags="0x204"/>
      <component glyphName="circumflex" x="460" y="459" flags="0x4"/>
    </TTGlyph>
    <TTGlyph name="Ydieresis" xMin="-2" yMin="0" xMax="1332" yMax="1781">
      <component glyphName="Y" x="0" y="0" flags="0x204"/>
      <component glyphName="dieresis" x="393" y="377" flags="0x4"/>
    </TTGlyph>
    <TTGlyph name="Ygrave" xMin="-2" yMin="0" xMax="1332" yMax="1744">
      <component glyphName="Y" x="0" y="0" flags="0x204"/>
      <component glyphName="grave" x="300" y="304" flags="0x4"/>
    </TTGlyph>
    <TTGlyph name="Z" xMin="90" yMin="0" xMax="1298" yMax="1440">
      <contour>
        <pt x="1298" y="0" on="1"/>
        <pt x="91" y="0" on="1"/>
        <pt x="91" y="184" on="1"/>
        <pt x="90" y="184" on="1"/>
        <pt x="843" y="1256" on="1"/>
        <pt x="91" y="1256" on="1"/>
        <pt x="91" y="1440" on="1"/>
        <pt x="1298" y="1440" on="1"/>
        <pt x="1298" y="1256" on="1"/>
        <pt x="545" y="184" on="1"/>
        <pt x="1298" y="184" on="1"/>
      </contour>
    </TTGlyph>
    <TTGlyph name="Zacute" xMin="90" yMin="0" xMax="1298" yMax="1890">
      <component glyphName="Z" x="0" y="0" flags="0x204"/>
      <component glyphName="acute" x="574" y="450" flags="0x4"/>
    </TTGlyph>
    <TTGlyph name="Zcaron" xMin="90" yMin="0" xMax="1298" yMax="1890">
      <component glyphName="Z" x="0" y="0" flags="0x204"/>
      <component glyphName="caron" x="416" y="450" flags="0x4"/>
    </TTGlyph>
    <TTGlyph name="Zdotaccent" xMin="90" yMin="0" xMax="1298" yMax="1830">
      <component glyphName="Z" x="0" y="0" flags="0x204"/>
      <component glyphName="dotaccent" x="546" y="426" flags="0x4"/>
    </TTGlyph>
    <TTGlyph name="a" xMin="76" yMin="-23" xMax="1304" yMax="1183">
      <contour>
        <pt x="1304" y="0" on="1"/>
        <pt x="966" y="0" on="1"/>
        <pt x="966" y="138" on="1"/>
        <pt x="906" y="56" on="0"/>
        <pt x="737" y="-23" on="0"/>
        <pt x="636" y="-23" on="1"/>
        <pt x="504" y="-23" on="0"/>
        <pt x="296" y="71" on="0"/>
        <pt x="152" y="234" on="0"/>
        <pt x="76" y="454" on="0"/>
        <pt x="76" y="580" on="1"/>
        <pt x="76" y="706" on="0"/>
        <pt x="152" y="926" on="0"/>
        <pt x="296" y="1089" on="0"/>
        <pt x="504" y="1183" on="0"/>
        <pt x="636" y="1183" on="1"/>
        <pt x="703" y="1183" on="0"/>
        <pt x="824" y="1143" on="0"/>
        <pt x="925" y="1070" on="0"/>
        <pt x="1002" y="967" on="0"/>
        <pt x="1024" y="904" on="1"/>
        <pt x="1174" y="1155" on="1"/>
        <pt x="1304" y="1155" on="1"/>
      </contour>
      <contour>
        <pt x="964" y="580" on="1"/>
        <pt x="964" y="625" on="0"/>
        <pt x="955" y="725" on="0"/>
        <pt x="933" y="823" on="0"/>
        <pt x="894" y="912" on="0"/>
        <pt x="833" y="981" on="0"/>
        <pt x="747" y="1021" on="0"/>
        <pt x="690" y="1021" on="1"/>
        <pt x="633" y="1021" on="0"/>
        <pt x="549" y="980" on="0"/>
        <pt x="489" y="911" on="0"/>
        <pt x="450" y="821" on="0"/>
        <pt x="428" y="723" on="0"/>
        <pt x="419" y="624" on="0"/>
        <pt x="419" y="580" on="1"/>
        <pt x="419" y="536" on="0"/>
        <pt x="428" y="436" on="0"/>
        <pt x="450" y="338" on="0"/>
        <pt x="489" y="248" on="0"/>
        <pt x="549" y="179" on="0"/>
        <pt x="633" y="138" on="0"/>
        <pt x="690" y="138" on="1"/>
        <pt x="742" y="138" on="0"/>
        <pt x="823" y="181" on="0"/>
        <pt x="884" y="253" on="0"/>
        <pt x="926" y="345" on="0"/>
        <pt x="952" y="443" on="0"/>
        <pt x="964" y="540" on="0"/>
      </contour>
    </TTGlyph>
    <TTGlyph name="aacute" xMin="76" yMin="-23" xMax="1304" yMax="1637">
      <component glyphName="a" x="0" y="0" flags="0x204"/>
      <component glyphName="acute" x="561" y="197" flags="0x4"/>
    </TTGlyph>
    <TTGlyph name="abreve" xMin="76" yMin="-23" xMax="1304" yMax="1536">
      <component glyphName="a" x="0" y="0" flags="0x204"/>
      <component glyphName="breve" x="409" y="98" flags="0x4"/>
    </TTGlyph>
    <TTGlyph name="acircumflex" xMin="76" yMin="-23" xMax="1304" yMax="1635">
      <component glyphName="a" x="0" y="0" flags="0x204"/>
      <component glyphName="circumflex" x="427" y="201" flags="0x4"/>
    </TTGlyph>
    <TTGlyph name="acute" xMin="0" yMin="1086" xMax="516" yMax="1440">
      <contour>
        <pt x="516" y="1440" on="1"/>
        <pt x="199" y="1086" on="1"/>
        <pt x="0" y="1086" on="1"/>
        <pt x="198" y="1440" on="1"/>
      </contour>
    </TTGlyph>
    <TTGlyph name="adieresis" xMin="76" yMin="-23" xMax="1304" yMax="1564">
      <component glyphName="a" x="0" y="0" flags="0x204"/>
      <component glyphName="dieresis" x="354" y="160" flags="0x4"/>
    </TTGlyph>
    <TTGlyph name="ae" xMin="70" yMin="-23" xMax="2082" yMax="1183">
      <contour>
        <pt x="904" y="612" on="1"/>
        <pt x="841" y="625" on="0"/>
        <pt x="717" y="642" on="0"/>
        <pt x="654" y="642" on="1"/>
        <pt x="588" y="642" on="0"/>
        <pt x="475" y="617" on="0"/>
        <pt x="392" y="558" on="0"/>
        <pt x="344" y="460" on="0"/>
        <pt x="344" y="387" on="1"/>
        <pt x="344" y="328" on="0"/>
        <pt x="376" y="230" on="0"/>
        <pt x="439" y="160" on="0"/>
        <pt x="532" y="121" on="0"/>
        <pt x="593" y="121" on="1"/>
        <pt x="678" y="121" on="0"/>
        <pt x="797" y="188" on="0"/>
        <pt x="871" y="309" on="0"/>
        <pt x="904" y="478" on="0"/>
        <pt x="904" y="580" on="1"/>
      </contour>
      <contour>
        <pt x="1249" y="548" on="1"/>
        <pt x="1311" y="534" on="0"/>
        <pt x="1435" y="518" on="0"/>
        <pt x="1498" y="518" on="1"/>
        <pt x="1564" y="518" on="0"/>
        <pt x="1677" y="543" on="0"/>
        <pt x="1760" y="602" on="0"/>
        <pt x="1808" y="700" on="0"/>
        <pt x="1808" y="773" on="1"/>
        <pt x="1808" y="832" on="0"/>
        <pt x="1776" y="930" on="0"/>
        <pt x="1713" y="1000" on="0"/>
        <pt x="1621" y="1039" on="0"/>
        <pt x="1560" y="1039" on="1"/>
        <pt x="1503" y="1039" on="0"/>
        <pt x="1412" y="997" on="0"/>
        <pt x="1343" y="926" on="0"/>
        <pt x="1294" y="832" on="0"/>
        <pt x="1262" y="730" on="0"/>
        <pt x="1248" y="626" on="0"/>
        <pt x="1248" y="580" on="1"/>
        <pt x="1248" y="572" on="0"/>
        <pt x="1249" y="556" on="0"/>
      </contour>
      <contour>
        <pt x="2082" y="776" on="1"/>
        <pt x="2082" y="705" on="0"/>
        <pt x="2036" y="594" on="0"/>
        <pt x="1957" y="510" on="0"/>
        <pt x="1853" y="452" on="0"/>
        <pt x="1735" y="415" on="0"/>
        <pt x="1610" y="399" on="0"/>
        <pt x="1551" y="399" on="1"/>
        <pt x="1476" y="399" on="0"/>
        <pt x="1330" y="420" on="0"/>
        <pt x="1259" y="443" on="1"/>
        <pt x="1270" y="377" on="0"/>
        <pt x="1318" y="258" on="0"/>
        <pt x="1399" y="169" on="0"/>
        <pt x="1515" y="117" on="0"/>
        <pt x="1595" y="117" on="1"/>
        <pt x="1648" y="117" on="0"/>
        <pt x="1744" y="149" on="0"/>
        <pt x="1824" y="207" on="0"/>
        <pt x="1885" y="287" on="0"/>
        <pt x="1904" y="336" on="1"/>
        <pt x="2050" y="282" on="1"/>
        <pt x="2017" y="203" on="0"/>
        <pt x="1902" y="88" on="0"/>
        <pt x="1757" y="13" on="0"/>
        <pt x="1594" y="-23" on="0"/>
        <pt x="1514" y="-23" on="1"/>
        <pt x="1422" y="-23" on="0"/>
        <pt x="1276" y="7" on="0"/>
        <pt x="1152" y="70" on="0"/>
        <pt x="1041" y="169" on="0"/>
        <pt x="984" y="239" on="1"/>
        <pt x="965" y="191" on="0"/>
        <pt x="887" y="98" on="0"/>
        <pt x="782" y="23" on="0"/>
        <pt x="656" y="-23" on="0"/>
        <pt x="589" y="-23" on="1"/>
        <pt x="493" y="-23" on="0"/>
        <pt x="306" y="18" on="0"/>
        <pt x="160" y="112" on="0"/>
        <pt x="70" y="268" on="0"/>
        <pt x="70" y="383" on="1"/>
        <pt x="70" y="454" on="0"/>
        <pt x="116" y="566" on="0"/>
        <pt x="195" y="650" on="0"/>
        <pt x="300" y="708" on="0"/>
        <pt x="418" y="745" on="0"/>
        <pt x="543" y="761" on="0"/>
        <pt x="602" y="761" on="1"/>
        <pt x="676" y="761" on="0"/>
        <pt x="822" y="740" on="0"/>
        <pt x="893" y="717" on="1"/>
        <pt x="882" y="783" on="0"/>
        <pt x="834" y="901" on="0"/>
        <pt x="754" y="991" on="0"/>
        <pt x="637" y="1043" on="0"/>
        <pt x="558" y="1043" on="1"/>
        <pt x="505" y="1043" on="0"/>
        <pt x="409" y="1011" on="0"/>
        <pt x="329" y="953" on="0"/>
        <pt x="267" y="872" on="0"/>
        <pt x="249" y="823" on="1"/>
        <pt x="102" y="878" on="1"/>
        <pt x="135" y="957" on="0"/>
        <pt x="251" y="1072" on="0"/>
        <pt x="395" y="1147" on="0"/>
        <pt x="558" y="1183" on="0"/>
        <pt x="639" y="1183" on="1"/>
        <pt x="772" y="1183" on="0"/>
        <pt x="995" y="1094" on="0"/>
        <pt x="1076" y="1013" on="1"/>
        <pt x="1158" y="1094" on="0"/>
        <pt x="1381" y="1183" on="0"/>
        <pt x="1514" y="1183" on="1"/>
        <pt x="1578" y="1183" on="0"/>
        <pt x="1712" y="1165" on="0"/>
        <pt x="1838" y="1126" on="0"/>
        <pt x="1950" y="1064" on="0"/>
        <pt x="2033" y="973" on="0"/>
        <pt x="2082" y="853" on="0"/>
      </contour>
    </TTGlyph>
    <TTGlyph name="aeacute" xMin="70" yMin="-23" xMax="2082" yMax="1560">
      <component glyphName="ae" x="0" y="0" flags="0x204"/>
      <component glyphName="acute" x="980" y="120" flags="0x4"/>
    </TTGlyph>
    <TTGlyph name="agrave" xMin="76" yMin="-23" xMax="1304" yMax="1637">
      <component glyphName="a" x="0" y="0" flags="0x204"/>
      <component glyphName="grave" x="266" y="197" flags="0x4"/>
    </TTGlyph>
    <TTGlyph name="amacron" xMin="76" yMin="-23" xMax="1304" yMax="1482">
      <component glyphName="a" x="0" y="0" flags="0x204"/>
      <component glyphName="macron" x="450" y="142" flags="0x4"/>
    </TTGlyph>
    <TTGlyph name="ampersand" xMin="72" yMin="-56" xMax="1586" yMax="1464">
      <contour>
        <pt x="1586" y="503" on="1"/>
        <pt x="1550" y="428" on="0"/>
        <pt x="1455" y="290" on="0"/>
        <pt x="1396" y="230" on="1"/>
        <pt x="1526" y="107" on="1"/>
        <pt x="1299" y="-56" on="1"/>
        <pt x="1183" y="67" on="1"/>
        <pt x="1092" y="18" on="0"/>
        <pt x="896" y="-29" on="0"/>
        <pt x="793" y="-29" on="1"/>
        <pt x="717" y="-29" on="0"/>
        <pt x="552" y="-16" on="0"/>
        <pt x="391" y="19" on="0"/>
        <pt x="246" y="83" on="0"/>
        <pt x="137" y="183" on="0"/>
        <pt x="72" y="325" on="0"/>
        <pt x="72" y="422" on="1"/>
        <pt x="72" y="498" on="0"/>
        <pt x="129" y="628" on="0"/>
        <pt x="226" y="729" on="0"/>
        <pt x="353" y="798" on="0"/>
        <pt x="424" y="813" on="1"/>
        <pt x="389" y="837" on="0"/>
        <pt x="322" y="906" on="0"/>
        <pt x="269" y="987" on="0"/>
        <pt x="236" y="1075" on="0"/>
        <pt x="236" y="1119" on="1"/>
        <pt x="236" y="1215" on="0"/>
        <pt x="317" y="1347" on="0"/>
        <pt x="447" y="1428" on="0"/>
        <pt x="610" y="1464" on="0"/>
        <pt x="692" y="1464" on="1"/>
        <pt x="773" y="1464" on="0"/>
        <pt x="939" y="1428" on="0"/>
        <pt x="1072" y="1346" on="0"/>
        <pt x="1156" y="1215" on="0"/>
        <pt x="1156" y="1119" on="1"/>
        <pt x="1156" y="1050" on="0"/>
        <pt x="1102" y="939" on="0"/>
        <pt x="1014" y="850" on="0"/>
        <pt x="904" y="780" on="0"/>
        <pt x="849" y="752" on="1"/>
        <pt x="1184" y="433" on="1"/>
        <pt x="1206" y="490" on="0"/>
        <pt x="1230" y="611" on="0"/>
        <pt x="1230" y="672" on="1"/>
      </contour>
      <contour>
        <pt x="843" y="1097" on="1"/>
        <pt x="843" y="1132" on="0"/>
        <pt x="824" y="1196" on="0"/>
        <pt x="787" y="1244" on="0"/>
        <pt x="730" y="1273" on="0"/>
        <pt x="692" y="1273" on="1"/>
        <pt x="651" y="1273" on="0"/>
        <pt x="596" y="1246" on="0"/>
        <pt x="561" y="1198" on="0"/>
        <pt x="546" y="1134" on="0"/>
        <pt x="546" y="1097" on="1"/>
        <pt x="546" y="1069" on="0"/>
        <pt x="575" y="1009" on="0"/>
        <pt x="618" y="953" on="0"/>
        <pt x="666" y="903" on="0"/>
        <pt x="686" y="885" on="1"/>
        <pt x="716" y="901" on="0"/>
        <pt x="773" y="945" on="0"/>
        <pt x="816" y="998" on="0"/>
        <pt x="843" y="1061" on="0"/>
      </contour>
      <contour>
        <pt x="1033" y="218" on="1"/>
        <pt x="594" y="660" on="1"/>
        <pt x="525" y="622" on="0"/>
        <pt x="466" y="498" on="0"/>
        <pt x="466" y="422" on="1"/>
        <pt x="466" y="354" on="0"/>
        <pt x="521" y="249" on="0"/>
        <pt x="613" y="177" on="0"/>
        <pt x="730" y="140" on="0"/>
        <pt x="793" y="140" on="1"/>
        <pt x="859" y="140" on="0"/>
        <pt x="981" y="177" on="0"/>
      </contour>
    </TTGlyph>
    <TTGlyph name="aogonek" xMin="76" yMin="-417" xMax="1355" yMax="1183">
      <contour>
        <pt x="1355" y="-223" on="1"/>
        <pt x="1355" y="-263" on="0"/>
        <pt x="1325" y="-333" on="0"/>
        <pt x="1273" y="-386" on="0"/>
        <pt x="1203" y="-417" on="0"/>
        <pt x="1163" y="-417" on="1"/>
        <pt x="1112" y="-417" on="0"/>
        <pt x="1027" y="-386" on="0"/>
        <pt x="964" y="-327" on="0"/>
        <pt x="929" y="-244" on="0"/>
        <pt x="929" y="-192" on="1"/>
        <pt x="929" y="-164" on="0"/>
        <pt x="949" y="-110" on="0"/>
        <pt x="983" y="-61" on="0"/>
        <pt x="1028" y="-18" on="0"/>
        <pt x="1053" y="0" on="1"/>
        <pt x="966" y="0" on="1"/>
        <pt x="966" y="138" on="1"/>
        <pt x="906" y="56" on="0"/>
        <pt x="737" y="-23" on="0"/>
        <pt x="636" y="-23" on="1"/>
        <pt x="504" y="-23" on="0"/>
        <pt x="296" y="71" on="0"/>
        <pt x="152" y="234" on="0"/>
        <pt x="76" y="454" on="0"/>
        <pt x="76" y="580" on="1"/>
        <pt x="76" y="706" on="0"/>
        <pt x="152" y="926" on="0"/>
        <pt x="296" y="1089" on="0"/>
        <pt x="504" y="1183" on="0"/>
        <pt x="636" y="1183" on="1"/>
        <pt x="703" y="1183" on="0"/>
        <pt x="824" y="1143" on="0"/>
        <pt x="925" y="1070" on="0"/>
        <pt x="1002" y="967" on="0"/>
        <pt x="1024" y="904" on="1"/>
        <pt x="1174" y="1155" on="1"/>
        <pt x="1304" y="1155" on="1"/>
        <pt x="1304" y="0" on="1"/>
        <pt x="1190" y="0" on="1"/>
        <pt x="1170" y="-20" on="0"/>
        <pt x="1133" y="-65" on="0"/>
        <pt x="1105" y="-115" on="0"/>
        <pt x="1088" y="-167" on="0"/>
        <pt x="1088" y="-192" on="1"/>
        <pt x="1088" y="-231" on="0"/>
        <pt x="1125" y="-281" on="0"/>
        <pt x="1167" y="-281" on="1"/>
        <pt x="1192" y="-281" on="0"/>
        <pt x="1241" y="-252" on="0"/>
        <pt x="1242" y="-223" on="1"/>
      </contour>
      <contour>
        <pt x="964" y="580" on="1"/>
        <pt x="964" y="625" on="0"/>
        <pt x="955" y="725" on="0"/>
        <pt x="933" y="823" on="0"/>
        <pt x="894" y="912" on="0"/>
        <pt x="833" y="981" on="0"/>
        <pt x="747" y="1021" on="0"/>
        <pt x="690" y="1021" on="1"/>
        <pt x="633" y="1021" on="0"/>
        <pt x="549" y="980" on="0"/>
        <pt x="489" y="911" on="0"/>
        <pt x="450" y="821" on="0"/>
        <pt x="428" y="723" on="0"/>
        <pt x="419" y="624" on="0"/>
        <pt x="419" y="580" on="1"/>
        <pt x="419" y="536" on="0"/>
        <pt x="428" y="436" on="0"/>
        <pt x="450" y="338" on="0"/>
        <pt x="489" y="248" on="0"/>
        <pt x="549" y="179" on="0"/>
        <pt x="633" y="138" on="0"/>
        <pt x="690" y="138" on="1"/>
        <pt x="742" y="138" on="0"/>
        <pt x="823" y="181" on="0"/>
        <pt x="884" y="253" on="0"/>
        <pt x="926" y="345" on="0"/>
        <pt x="952" y="443" on="0"/>
        <pt x="964" y="540" on="0"/>
      </contour>
    </TTGlyph>
    <TTGlyph name="approxequal" xMin="140" yMin="344" xMax="996" yMax="1088">
      <contour>
        <pt x="996" y="1088" on="1"/>
        <pt x="996" y="1034" on="0"/>
        <pt x="964" y="913" on="0"/>
        <pt x="899" y="811" on="0"/>
        <pt x="802" y="744" on="0"/>
        <pt x="738" y="744" on="1"/>
        <pt x="673" y="744" on="0"/>
        <pt x="570" y="777" on="0"/>
        <pt x="487" y="818" on="0"/>
        <pt x="419" y="851" on="0"/>
        <pt x="389" y="851" on="1"/>
        <pt x="369" y="851" on="0"/>
        <pt x="342" y="830" on="0"/>
        <pt x="326" y="798" on="0"/>
        <pt x="318" y="760" on="0"/>
        <pt x="318" y="744" on="1"/>
        <pt x="140" y="744" on="1"/>
        <pt x="140" y="801" on="0"/>
        <pt x="172" y="923" on="0"/>
        <pt x="238" y="1024" on="0"/>
        <pt x="337" y="1088" on="0"/>
        <pt x="404" y="1088" on="1"/>
        <pt x="464" y="1088" on="0"/>
        <pt x="565" y="1056" on="0"/>
        <pt x="649" y="1018" on="0"/>
        <pt x="716" y="986" on="0"/>
        <pt x="742" y="986" on="1"/>
        <pt x="761" y="986" on="0"/>
        <pt x="788" y="1006" on="0"/>
        <pt x="805" y="1037" on="0"/>
        <pt x="813" y="1073" on="0"/>
        <pt x="814" y="1088" on="1"/>
      </contour>
      <contour>
        <pt x="996" y="688" on="1"/>
        <pt x="996" y="634" on="0"/>
        <pt x="964" y="513" on="0"/>
        <pt x="899" y="411" on="0"/>
        <pt x="802" y="344" on="0"/>
        <pt x="738" y="344" on="1"/>
        <pt x="673" y="344" on="0"/>
        <pt x="570" y="377" on="0"/>
        <pt x="487" y="418" on="0"/>
        <pt x="419" y="451" on="0"/>
        <pt x="389" y="451" on="1"/>
        <pt x="369" y="451" on="0"/>
        <pt x="342" y="430" on="0"/>
        <pt x="326" y="398" on="0"/>
        <pt x="318" y="360" on="0"/>
        <pt x="318" y="344" on="1"/>
        <pt x="140" y="344" on="1"/>
        <pt x="140" y="401" on="0"/>
        <pt x="172" y="523" on="0"/>
        <pt x="238" y="624" on="0"/>
        <pt x="337" y="688" on="0"/>
        <pt x="404" y="688" on="1"/>
        <pt x="464" y="688" on="0"/>
        <pt x="565" y="656" on="0"/>
        <pt x="649" y="618" on="0"/>
        <pt x="716" y="586" on="0"/>
        <pt x="742" y="586" on="1"/>
        <pt x="761" y="586" on="0"/>
        <pt x="788" y="606" on="0"/>
        <pt x="805" y="637" on="0"/>
        <pt x="813" y="673" on="0"/>
        <pt x="814" y="688" on="1"/>
      </contour>
    </TTGlyph>
    <TTGlyph name="aring" xMin="76" yMin="-23" xMax="1304" yMax="1720">
      <component glyphName="a" x="0" y="0" flags="0x204"/>
      <component glyphName="ring" x="464" y="184" flags="0x4"/>
    </TTGlyph>
    <TTGlyph name="asciicircum" xMin="0" yMin="819" xMax="712" yMax="1434">
      <contour>
        <pt x="712" y="819" on="1"/>
        <pt x="403" y="819" on="1"/>
        <pt x="303" y="1167" on="1"/>
        <pt x="290" y="1167" on="1"/>
        <pt x="176" y="819" on="1"/>
        <pt x="0" y="819" on="1"/>
        <pt x="217" y="1434" on="1"/>
        <pt x="497" y="1434" on="1"/>
      </contour>
    </TTGlyph>
    <TTGlyph name="asciitilde" xMin="125" yMin="524" xMax="981" yMax="868">
      <contour>
        <pt x="981" y="868" on="1"/>
        <pt x="981" y="814" on="0"/>
        <pt x="949" y="693" on="0"/>
        <pt x="884" y="591" on="0"/>
        <pt x="787" y="524" on="0"/>
        <pt x="723" y="524" on="1"/>
        <pt x="658" y="524" on="0"/>
        <pt x="555" y="557" on="0"/>
        <pt x="472" y="598" on="0"/>
        <pt x="404" y="631" on="0"/>
        <pt x="374" y="631" on="1"/>
        <pt x="354" y="631" on="0"/>
        <pt x="327" y="610" on="0"/>
        <pt x="311" y="578" on="0"/>
        <pt x="303" y="540" on="0"/>
        <pt x="303" y="524" on="1"/>
        <pt x="125" y="524" on="1"/>
        <pt x="125" y="581" on="0"/>
        <pt x="157" y="703" on="0"/>
        <pt x="223" y="804" on="0"/>
        <pt x="322" y="868" on="0"/>
        <pt x="389" y="868" on="1"/>
        <pt x="449" y="868" on="0"/>
        <pt x="550" y="836" on="0"/>
        <pt x="634" y="798" on="0"/>
        <pt x="701" y="766" on="0"/>
        <pt x="727" y="766" on="1"/>
        <pt x="746" y="766" on="0"/>
        <pt x="773" y="786" on="0"/>
        <pt x="790" y="817" on="0"/>
        <pt x="798" y="853" on="0"/>
        <pt x="799" y="868" on="1"/>
      </contour>
    </TTGlyph>
    <TTGlyph name="asterisk" xMin="84" yMin="819" xMax="727" yMax="1434">
      <contour>
        <pt x="727" y="1130" on="1"/>
        <pt x="530" y="1084" on="1"/>
        <pt x="663" y="938" on="1"/>
        <pt x="508" y="819" on="1"/>
        <pt x="404" y="992" on="1"/>
        <pt x="301" y="819" on="1"/>
        <pt x="145" y="938" on="1"/>
        <pt x="281" y="1084" on="1"/>
        <pt x="84" y="1130" on="1"/>
        <pt x="143" y="1313" on="1"/>
        <pt x="327" y="1230" on="1"/>
        <pt x="307" y="1434" on="1"/>
        <pt x="502" y="1434" on="1"/>
        <pt x="482" y="1232" on="1"/>
        <pt x="663" y="1313" on="1"/>
      </contour>
    </TTGlyph>
    <TTGlyph name="at" xMin="78" yMin="-251" xMax="1734" yMax="1405">
      <contour>
        <pt x="1100" y="523" on="1"/>
        <pt x="1100" y="571" on="0"/>
        <pt x="1085" y="683" on="0"/>
        <pt x="1042" y="778" on="0"/>
        <pt x="965" y="841" on="0"/>
        <pt x="903" y="841" on="1"/>
        <pt x="842" y="841" on="0"/>
        <pt x="766" y="777" on="0"/>
        <pt x="723" y="681" on="0"/>
        <pt x="708" y="570" on="0"/>
        <pt x="708" y="523" on="1"/>
        <pt x="708" y="491" on="0"/>
        <pt x="714" y="420" on="0"/>
        <pt x="730" y="350" on="0"/>
        <pt x="758" y="285" on="0"/>
        <pt x="802" y="235" on="0"/>
        <pt x="862" y="206" on="0"/>
        <pt x="903" y="206" on="1"/>
        <pt x="959" y="206" on="0"/>
        <pt x="1035" y="273" on="0"/>
        <pt x="1081" y="370" on="0"/>
        <pt x="1100" y="480" on="0"/>
      </contour>
      <contour>
        <pt x="1624" y="581" on="1"/>
        <pt x="1624" y="730" on="0"/>
        <pt x="1511" y="991" on="0"/>
        <pt x="1316" y="1186" on="0"/>
        <pt x="1055" y="1299" on="0"/>
        <pt x="906" y="1299" on="1"/>
        <pt x="757" y="1299" on="0"/>
        <pt x="496" y="1186" on="0"/>
        <pt x="301" y="991" on="0"/>
        <pt x="188" y="730" on="0"/>
        <pt x="188" y="581" on="1"/>
        <pt x="188" y="432" on="0"/>
        <pt x="301" y="171" on="0"/>
        <pt x="496" y="-24" on="0"/>
        <pt x="757" y="-137" on="0"/>
        <pt x="906" y="-137" on="1"/>
        <pt x="937" y="-137" on="0"/>
        <pt x="1007" y="-127" on="0"/>
        <pt x="1072" y="-111" on="0"/>
        <pt x="1126" y="-92" on="0"/>
        <pt x="1143" y="-83" on="1"/>
        <pt x="1188" y="-196" on="1"/>
        <pt x="1119" y="-223" on="0"/>
        <pt x="984" y="-251" on="0"/>
        <pt x="906" y="-251" on="1"/>
        <pt x="792" y="-251" on="0"/>
        <pt x="580" y="-192" on="0"/>
        <pt x="396" y="-84" on="0"/>
        <pt x="245" y="67" on="0"/>
        <pt x="137" y="251" on="0"/>
        <pt x="78" y="463" on="0"/>
        <pt x="78" y="577" on="1"/>
        <pt x="78" y="691" on="0"/>
        <pt x="137" y="903" on="0"/>
        <pt x="245" y="1087" on="0"/>
        <pt x="396" y="1238" on="0"/>
        <pt x="580" y="1346" on="0"/>
        <pt x="792" y="1405" on="0"/>
        <pt x="906" y="1405" on="1"/>
        <pt x="1020" y="1405" on="0"/>
        <pt x="1232" y="1346" on="0"/>
        <pt x="1416" y="1238" on="0"/>
        <pt x="1567" y="1087" on="0"/>
        <pt x="1675" y="903" on="0"/>
        <pt x="1734" y="691" on="0"/>
        <pt x="1734" y="577" on="1"/>
        <pt x="1734" y="485" on="0"/>
        <pt x="1690" y="311" on="0"/>
        <pt x="1596" y="175" on="0"/>
        <pt x="1449" y="92" on="0"/>
        <pt x="1345" y="92" on="1"/>
        <pt x="1315" y="92" on="0"/>
        <pt x="1248" y="113" on="0"/>
        <pt x="1188" y="154" on="0"/>
        <pt x="1140" y="212" on="0"/>
        <pt x="1130" y="249" on="1"/>
        <pt x="1110" y="207" on="0"/>
        <pt x="1049" y="146" on="0"/>
        <pt x="978" y="107" on="0"/>
        <pt x="900" y="89" on="0"/>
        <pt x="864" y="89" on="1"/>
        <pt x="769" y="89" on="0"/>
        <pt x="620" y="157" on="0"/>
        <pt x="516" y="274" on="0"/>
        <pt x="461" y="433" on="0"/>
        <pt x="461" y="523" on="1"/>
        <pt x="461" y="614" on="0"/>
        <pt x="516" y="772" on="0"/>
        <pt x="620" y="890" on="0"/>
        <pt x="769" y="958" on="0"/>
        <pt x="864" y="958" on="1"/>
        <pt x="912" y="958" on="0"/>
        <pt x="1000" y="929" on="0"/>
        <pt x="1072" y="877" on="0"/>
        <pt x="1127" y="802" on="0"/>
        <pt x="1143" y="757" on="1"/>
        <pt x="1252" y="938" on="1"/>
        <pt x="1345" y="938" on="1"/>
        <pt x="1345" y="374" on="1"/>
        <pt x="1345" y="323" on="0"/>
        <pt x="1385" y="261" on="0"/>
        <pt x="1443" y="237" on="0"/>
        <pt x="1508" y="251" on="0"/>
        <pt x="1533" y="277" on="1"/>
        <pt x="1575" y="322" on="0"/>
        <pt x="1624" y="477" on="0"/>
      </contour>
    </TTGlyph>
    <TTGlyph name="atilde" xMin="76" yMin="-23" xMax="1304" yMax="1564">
      <component glyphName="a" x="0" y="0" flags="0x204"/>
      <component glyphName="tilde" x="301" y="151" flags="0x4"/>
    </TTGlyph>
    <TTGlyph name="b" xMin="141" yMin="-27" xMax="1369" yMax="1580">
      <contour>
        <pt x="1369" y="576" on="1"/>
        <pt x="1369" y="450" on="0"/>
        <pt x="1293" y="230" on="0"/>
        <pt x="1149" y="67" on="0"/>
        <pt x="941" y="-27" on="0"/>
        <pt x="809" y="-27" on="1"/>
        <pt x="742" y="-27" on="0"/>
        <pt x="621" y="13" on="0"/>
        <pt x="520" y="86" on="0"/>
        <pt x="443" y="188" on="0"/>
        <pt x="421" y="251" on="1"/>
        <pt x="271" y="0" on="1"/>
        <pt x="141" y="0" on="1"/>
        <pt x="141" y="1580" on="1"/>
        <pt x="479" y="1580" on="1"/>
        <pt x="479" y="1017" on="1"/>
        <pt x="539" y="1100" on="0"/>
        <pt x="708" y="1178" on="0"/>
        <pt x="809" y="1178" on="1"/>
        <pt x="941" y="1178" on="0"/>
        <pt x="1149" y="1084" on="0"/>
        <pt x="1293" y="922" on="0"/>
        <pt x="1369" y="702" on="0"/>
      </contour>
      <contour>
        <pt x="1026" y="576" on="1"/>
        <pt x="1026" y="620" on="0"/>
        <pt x="1017" y="719" on="0"/>
        <pt x="995" y="817" on="0"/>
        <pt x="956" y="907" on="0"/>
        <pt x="896" y="976" on="0"/>
        <pt x="812" y="1017" on="0"/>
        <pt x="755" y="1017" on="1"/>
        <pt x="703" y="1017" on="0"/>
        <pt x="622" y="974" on="0"/>
        <pt x="561" y="902" on="0"/>
        <pt x="519" y="810" on="0"/>
        <pt x="493" y="712" on="0"/>
        <pt x="481" y="616" on="0"/>
        <pt x="481" y="576" on="1"/>
        <pt x="481" y="531" on="0"/>
        <pt x="490" y="431" on="0"/>
        <pt x="512" y="332" on="0"/>
        <pt x="551" y="243" on="0"/>
        <pt x="612" y="174" on="0"/>
        <pt x="697" y="134" on="0"/>
        <pt x="755" y="134" on="1"/>
        <pt x="811" y="134" on="0"/>
        <pt x="896" y="175" on="0"/>
        <pt x="956" y="244" on="0"/>
        <pt x="995" y="335" on="0"/>
        <pt x="1017" y="433" on="0"/>
        <pt x="1026" y="532" on="0"/>
      </contour>
    </TTGlyph>
    <TTGlyph name="backslash" xMin="52" yMin="0" xMax="920" yMax="1442">
      <contour>
        <pt x="920" y="0" on="1"/>
        <pt x="582" y="0" on="1"/>
        <pt x="52" y="1442" on="1"/>
        <pt x="390" y="1442" on="1"/>
      </contour>
    </TTGlyph>
    <TTGlyph name="bar" xMin="161" yMin="-205" xMax="458" yMax="1638">
      <contour>
        <pt x="458" y="-205" on="1"/>
        <pt x="161" y="-205" on="1"/>
        <pt x="161" y="1638" on="1"/>
        <pt x="458" y="1638" on="1"/>
      </contour>
    </TTGlyph>
    <TTGlyph name="braceleft" xMin="65" yMin="-207" xMax="817" yMax="1634">
      <contour>
        <pt x="817" y="-207" on="1"/>
        <pt x="647" y="-207" on="1"/>
        <pt x="527" y="-207" on="0"/>
        <pt x="376" y="-172" on="0"/>
        <pt x="291" y="-82" on="0"/>
        <pt x="260" y="71" on="0"/>
        <pt x="260" y="190" on="1"/>
        <pt x="260" y="356" on="1"/>
        <pt x="260" y="407" on="0"/>
        <pt x="231" y="489" on="0"/>
        <pt x="180" y="556" on="0"/>
        <pt x="108" y="608" on="0"/>
        <pt x="65" y="629" on="1"/>
        <pt x="65" y="788" on="1"/>
        <pt x="108" y="809" on="0"/>
        <pt x="180" y="861" on="0"/>
        <pt x="231" y="927" on="0"/>
        <pt x="260" y="1008" on="0"/>
        <pt x="260" y="1059" on="1"/>
        <pt x="260" y="1239" on="1"/>
        <pt x="260" y="1357" on="0"/>
        <pt x="291" y="1511" on="0"/>
        <pt x="376" y="1599" on="0"/>
        <pt x="527" y="1634" on="0"/>
        <pt x="647" y="1634" on="1"/>
        <pt x="817" y="1634" on="1"/>
        <pt x="817" y="1462" on="1"/>
        <pt x="760" y="1450" on="0"/>
        <pt x="680" y="1429" on="0"/>
        <pt x="628" y="1387" on="0"/>
        <pt x="604" y="1313" on="0"/>
        <pt x="604" y="1247" on="1"/>
        <pt x="604" y="1102" on="1"/>
        <pt x="604" y="1023" on="0"/>
        <pt x="569" y="877" on="0"/>
        <pt x="491" y="768" on="0"/>
        <pt x="365" y="705" on="0"/>
        <pt x="274" y="709" on="1"/>
        <pt x="369" y="707" on="0"/>
        <pt x="496" y="647" on="0"/>
        <pt x="572" y="542" on="0"/>
        <pt x="604" y="399" on="0"/>
        <pt x="604" y="315" on="1"/>
        <pt x="604" y="180" on="1"/>
        <pt x="604" y="104" on="0"/>
        <pt x="622" y="22" on="0"/>
        <pt x="670" y="-19" on="0"/>
        <pt x="753" y="-34" on="0"/>
        <pt x="817" y="-43" on="1"/>
      </contour>
    </TTGlyph>
    <TTGlyph name="braceright" xMin="69" yMin="-207" xMax="820" yMax="1634">
      <contour>
        <pt x="820" y="629" on="1"/>
        <pt x="777" y="608" on="0"/>
        <pt x="705" y="556" on="0"/>
        <pt x="654" y="489" on="0"/>
        <pt x="626" y="407" on="0"/>
        <pt x="626" y="356" on="1"/>
        <pt x="626" y="190" on="1"/>
        <pt x="626" y="71" on="0"/>
        <pt x="595" y="-82" on="0"/>
        <pt x="509" y="-172" on="0"/>
        <pt x="359" y="-207" on="0"/>
        <pt x="239" y="-207" on="1"/>
        <pt x="69" y="-207" on="1"/>
        <pt x="69" y="-43" on="1"/>
        <pt x="133" y="-34" on="0"/>
        <pt x="216" y="-19" on="0"/>
        <pt x="264" y="22" on="0"/>
        <pt x="282" y="104" on="0"/>
        <pt x="282" y="180" on="1"/>
        <pt x="282" y="315" on="1"/>
        <pt x="282" y="399" on="0"/>
        <pt x="313" y="542" on="0"/>
        <pt x="389" y="647" on="0"/>
        <pt x="516" y="707" on="0"/>
        <pt x="611" y="709" on="1"/>
        <pt x="520" y="705" on="0"/>
        <pt x="394" y="768" on="0"/>
        <pt x="316" y="877" on="0"/>
        <pt x="282" y="1023" on="0"/>
        <pt x="282" y="1102" on="1"/>
        <pt x="282" y="1247" on="1"/>
        <pt x="282" y="1313" on="0"/>
        <pt x="258" y="1387" on="0"/>
        <pt x="206" y="1429" on="0"/>
        <pt x="126" y="1450" on="0"/>
        <pt x="69" y="1462" on="1"/>
        <pt x="69" y="1634" on="1"/>
        <pt x="239" y="1634" on="1"/>
        <pt x="359" y="1634" on="0"/>
        <pt x="509" y="1599" on="0"/>
        <pt x="595" y="1511" on="0"/>
        <pt x="626" y="1357" on="0"/>
        <pt x="626" y="1239" on="1"/>
        <pt x="626" y="1059" on="1"/>
        <pt x="626" y="1008" on="0"/>
        <pt x="655" y="927" on="0"/>
        <pt x="706" y="861" on="0"/>
        <pt x="777" y="809" on="0"/>
        <pt x="820" y="788" on="1"/>
      </contour>
    </TTGlyph>
    <TTGlyph name="bracketleft" xMin="161" yMin="-205" xMax="675" yMax="1638">
      <contour>
        <pt x="675" y="-205" on="1"/>
        <pt x="161" y="-205" on="1"/>
        <pt x="161" y="1638" on="1"/>
        <pt x="675" y="1638" on="1"/>
        <pt x="675" y="1441" on="1"/>
        <pt x="507" y="1441" on="1"/>
        <pt x="507" y="-8" on="1"/>
        <pt x="675" y="-8" on="1"/>
      </contour>
    </TTGlyph>
    <TTGlyph name="bracketright" xMin="90" yMin="-205" xMax="604" yMax="1638">
      <contour>
        <pt x="604" y="-205" on="1"/>
        <pt x="90" y="-205" on="1"/>
        <pt x="90" y="-8" on="1"/>
        <pt x="256" y="-8" on="1"/>
        <pt x="256" y="1441" on="1"/>
        <pt x="90" y="1441" on="1"/>
        <pt x="90" y="1638" on="1"/>
        <pt x="604" y="1638" on="1"/>
      </contour>
    </TTGlyph>
    <TTGlyph name="breve" xMin="0" yMin="1187" xMax="502" yMax="1438">
      <contour>
        <pt x="502" y="1438" on="1"/>
        <pt x="498" y="1385" on="0"/>
        <pt x="458" y="1294" on="0"/>
        <pt x="392" y="1226" on="0"/>
        <pt x="302" y="1187" on="0"/>
        <pt x="248" y="1187" on="1"/>
        <pt x="194" y="1187" on="0"/>
        <pt x="106" y="1227" on="0"/>
        <pt x="42" y="1296" on="0"/>
        <pt x="4" y="1387" on="0"/>
        <pt x="0" y="1438" on="1"/>
        <pt x="145" y="1438" on="1"/>
        <pt x="145" y="1427" on="0"/>
        <pt x="156" y="1389" on="0"/>
        <pt x="180" y="1353" on="0"/>
        <pt x="219" y="1326" on="0"/>
        <pt x="248" y="1326" on="1"/>
        <pt x="279" y="1326" on="0"/>
        <pt x="320" y="1353" on="0"/>
        <pt x="346" y="1389" on="0"/>
        <pt x="357" y="1427" on="0"/>
        <pt x="358" y="1438" on="1"/>
      </contour>
    </TTGlyph>
    <TTGlyph name="brokenbar" xMin="164" yMin="-205" xMax="461" yMax="1638">
      <contour>
        <pt x="461" y="803" on="1"/>
        <pt x="164" y="803" on="1"/>
        <pt x="164" y="1638" on="1"/>
        <pt x="461" y="1638" on="1"/>
      </contour>
      <contour>
        <pt x="461" y="-205" on="1"/>
        <pt x="164" y="-205" on="1"/>
        <pt x="164" y="631" on="1"/>
        <pt x="461" y="631" on="1"/>
      </contour>
    </TTGlyph>
    <TTGlyph name="bullet" xMin="108" yMin="431" xMax="618" yMax="941">
      <contour>
        <pt x="618" y="686" on="1"/>
        <pt x="618" y="633" on="0"/>
        <pt x="578" y="540" on="0"/>
        <pt x="509" y="471" on="0"/>
        <pt x="416" y="431" on="0"/>
        <pt x="363" y="431" on="1"/>
        <pt x="310" y="431" on="0"/>
        <pt x="217" y="471" on="0"/>
        <pt x="148" y="540" on="0"/>
        <pt x="108" y="633" on="0"/>
        <pt x="108" y="686" on="1"/>
        <pt x="108" y="739" on="0"/>
        <pt x="148" y="832" on="0"/>
        <pt x="217" y="901" on="0"/>
        <pt x="310" y="941" on="0"/>
        <pt x="363" y="941" on="1"/>
        <pt x="416" y="941" on="0"/>
        <pt x="509" y="901" on="0"/>
        <pt x="578" y="832" on="0"/>
        <pt x="618" y="739" on="0"/>
      </contour>
    </TTGlyph>
    <TTGlyph name="c" xMin="74" yMin="-23" xMax="1207" yMax="1183">
      <contour>
        <pt x="1207" y="869" on="1"/>
        <pt x="1061" y="811" on="1"/>
        <pt x="1026" y="921" on="0"/>
        <pt x="862" y="1039" on="0"/>
        <pt x="747" y="1039" on="1"/>
        <pt x="685" y="1039" on="0"/>
        <pt x="588" y="1000" on="0"/>
        <pt x="515" y="932" on="0"/>
        <pt x="464" y="842" on="0"/>
        <pt x="432" y="740" on="0"/>
        <pt x="418" y="631" on="0"/>
        <pt x="418" y="580" on="1"/>
        <pt x="418" y="525" on="0"/>
        <pt x="430" y="413" on="0"/>
        <pt x="459" y="310" on="0"/>
        <pt x="507" y="221" on="0"/>
        <pt x="580" y="155" on="0"/>
        <pt x="681" y="117" on="0"/>
        <pt x="747" y="117" on="1"/>
        <pt x="800" y="117" on="0"/>
        <pt x="896" y="149" on="0"/>
        <pt x="976" y="207" on="0"/>
        <pt x="1038" y="287" on="0"/>
        <pt x="1056" y="336" on="1"/>
        <pt x="1203" y="282" on="1"/>
        <pt x="1170" y="203" on="0"/>
        <pt x="1061" y="88" on="0"/>
        <pt x="923" y="13" on="0"/>
        <pt x="765" y="-23" on="0"/>
        <pt x="684" y="-23" on="1"/>
        <pt x="553" y="-23" on="0"/>
        <pt x="329" y="66" on="0"/>
        <pt x="166" y="227" on="0"/>
        <pt x="74" y="448" on="0"/>
        <pt x="74" y="580" on="1"/>
        <pt x="74" y="713" on="0"/>
        <pt x="165" y="935" on="0"/>
        <pt x="327" y="1095" on="0"/>
        <pt x="551" y="1183" on="0"/>
        <pt x="684" y="1183" on="1"/>
        <pt x="768" y="1183" on="0"/>
        <pt x="928" y="1146" on="0"/>
        <pt x="1065" y="1069" on="0"/>
        <pt x="1174" y="951" on="0"/>
      </contour>
    </TTGlyph>
    <TTGlyph name="cacute" xMin="74" yMin="-23" xMax="1207" yMax="1637">
      <component glyphName="c" x="0" y="0" flags="0x204"/>
      <component glyphName="acute" x="579" y="197" flags="0x4"/>
    </TTGlyph>
    <TTGlyph name="caron" xMin="0" yMin="1086" xMax="557" yMax="1440">
      <contour>
        <pt x="557" y="1440" on="1"/>
        <pt x="358" y="1086" on="1"/>
        <pt x="193" y="1086" on="1"/>
        <pt x="0" y="1440" on="1"/>
        <pt x="246" y="1440" on="1"/>
        <pt x="312" y="1303" on="1"/>
        <pt x="377" y="1440" on="1"/>
      </contour>
    </TTGlyph>
    <TTGlyph name="ccaron" xMin="74" yMin="-23" xMax="1207" yMax="1637">
      <component glyphName="c" x="0" y="0" flags="0x204"/>
      <component glyphName="caron" x="424" y="197" flags="0x4"/>
    </TTGlyph>
    <TTGlyph name="ccedilla" xMin="76" yMin="-447" xMax="1209" yMax="1183">
      <contour>
        <pt x="877" y="-237" on="1"/>
        <pt x="877" y="-290" on="0"/>
        <pt x="841" y="-368" on="0"/>
        <pt x="778" y="-421" on="0"/>
        <pt x="692" y="-447" on="0"/>
        <pt x="643" y="-447" on="1"/>
        <pt x="603" y="-447" on="0"/>
        <pt x="533" y="-416" on="0"/>
        <pt x="481" y="-364" on="0"/>
        <pt x="451" y="-293" on="0"/>
        <pt x="451" y="-253" on="1"/>
        <pt x="564" y="-253" on="1"/>
        <pt x="565" y="-282" on="0"/>
        <pt x="614" y="-311" on="0"/>
        <pt x="639" y="-311" on="1"/>
        <pt x="680" y="-311" on="0"/>
        <pt x="717" y="-279" on="0"/>
        <pt x="717" y="-237" on="1"/>
        <pt x="717" y="-215" on="0"/>
        <pt x="686" y="-191" on="0"/>
        <pt x="642" y="-179" on="0"/>
        <pt x="596" y="-176" on="0"/>
        <pt x="580" y="-176" on="1"/>
        <pt x="615" y="-19" on="1"/>
        <pt x="497" y="-7" on="0"/>
        <pt x="299" y="90" on="0"/>
        <pt x="156" y="248" on="0"/>
        <pt x="76" y="457" on="0"/>
        <pt x="76" y="580" on="1"/>
        <pt x="76" y="713" on="0"/>
        <pt x="167" y="935" on="0"/>
        <pt x="329" y="1095" on="0"/>
        <pt x="553" y="1183" on="0"/>
        <pt x="686" y="1183" on="1"/>
        <pt x="770" y="1183" on="0"/>
        <pt x="930" y="1146" on="0"/>
        <pt x="1067" y="1069" on="0"/>
        <pt x="1176" y="951" on="0"/>
        <pt x="1209" y="869" on="1"/>
        <pt x="1063" y="811" on="1"/>
        <pt x="1028" y="921" on="0"/>
        <pt x="864" y="1039" on="0"/>
        <pt x="749" y="1039" on="1"/>
        <pt x="687" y="1039" on="0"/>
        <pt x="590" y="1000" on="0"/>
        <pt x="517" y="932" on="0"/>
        <pt x="466" y="842" on="0"/>
        <pt x="434" y="740" on="0"/>
        <pt x="420" y="631" on="0"/>
        <pt x="420" y="580" on="1"/>
        <pt x="420" y="525" on="0"/>
        <pt x="432" y="413" on="0"/>
        <pt x="461" y="310" on="0"/>
        <pt x="509" y="221" on="0"/>
        <pt x="582" y="155" on="0"/>
        <pt x="683" y="117" on="0"/>
        <pt x="749" y="117" on="1"/>
        <pt x="802" y="117" on="0"/>
        <pt x="898" y="149" on="0"/>
        <pt x="978" y="207" on="0"/>
        <pt x="1040" y="287" on="0"/>
        <pt x="1058" y="336" on="1"/>
        <pt x="1205" y="282" on="1"/>
        <pt x="1174" y="208" on="0"/>
        <pt x="1074" y="98" on="0"/>
        <pt x="947" y="23" on="0"/>
        <pt x="802" y="-18" on="0"/>
        <pt x="726" y="-22" on="1"/>
        <pt x="708" y="-92" on="1"/>
        <pt x="739" y="-92" on="0"/>
        <pt x="800" y="-111" on="0"/>
        <pt x="848" y="-148" on="0"/>
        <pt x="877" y="-202" on="0"/>
      </contour>
    </TTGlyph>
    <TTGlyph name="ccircumflex" xMin="74" yMin="-23" xMax="1207" yMax="1641">
      <component glyphName="c" x="0" y="0" flags="0x204"/>
      <component glyphName="circumflex" x="425" y="207" flags="0x4"/>
    </TTGlyph>
    <TTGlyph name="cdotaccent" xMin="74" yMin="-23" xMax="1207" yMax="1578">
      <component glyphName="c" x="0" y="0" flags="0x204"/>
      <component glyphName="dotaccent" x="559" y="174" flags="0x4"/>
    </TTGlyph>
    <TTGlyph name="cedilla" xMin="0" yMin="-417" xMax="426" yMax="71">
      <contour>
        <pt x="426" y="-207" on="1"/>
        <pt x="426" y="-260" on="0"/>
        <pt x="390" y="-338" on="0"/>
        <pt x="327" y="-391" on="0"/>
        <pt x="241" y="-417" on="0"/>
        <pt x="192" y="-417" on="1"/>
        <pt x="152" y="-417" on="0"/>
        <pt x="82" y="-386" on="0"/>
        <pt x="30" y="-334" on="0"/>
        <pt x="0" y="-263" on="0"/>
        <pt x="0" y="-223" on="1"/>
        <pt x="113" y="-223" on="1"/>
        <pt x="114" y="-252" on="0"/>
        <pt x="163" y="-281" on="0"/>
        <pt x="188" y="-281" on="1"/>
        <pt x="229" y="-281" on="0"/>
        <pt x="266" y="-249" on="0"/>
        <pt x="266" y="-207" on="1"/>
        <pt x="266" y="-185" on="0"/>
        <pt x="235" y="-161" on="0"/>
        <pt x="191" y="-149" on="0"/>
        <pt x="145" y="-146" on="0"/>
        <pt x="129" y="-146" on="1"/>
        <pt x="178" y="71" on="1"/>
        <pt x="292" y="71" on="1"/>
        <pt x="257" y="-62" on="1"/>
        <pt x="288" y="-62" on="0"/>
        <pt x="349" y="-81" on="0"/>
        <pt x="397" y="-118" on="0"/>
        <pt x="426" y="-172" on="0"/>
      </contour>
    </TTGlyph>
    <TTGlyph name="cent" xMin="68" yMin="-29" xMax="958" yMax="1469">
      <contour>
        <pt x="402" y="421" on="1"/>
        <pt x="577" y="1059" on="1"/>
        <pt x="514" y="1050" on="0"/>
        <pt x="420" y="977" on="0"/>
        <pt x="357" y="873" on="0"/>
        <pt x="326" y="749" on="0"/>
        <pt x="326" y="689" on="1"/>
        <pt x="326" y="617" on="0"/>
        <pt x="362" y="475" on="0"/>
      </contour>
      <contour>
        <pt x="821" y="1469" on="1"/>
        <pt x="731" y="1139" on="1"/>
        <pt x="807" y="1110" on="0"/>
        <pt x="927" y="1002" on="0"/>
        <pt x="958" y="920" on="1"/>
        <pt x="848" y="874" on="1"/>
        <pt x="830" y="934" on="0"/>
        <pt x="758" y="1022" on="0"/>
        <pt x="706" y="1044" on="1"/>
        <pt x="512" y="335" on="1"/>
        <pt x="557" y="317" on="0"/>
        <pt x="613" y="317" on="1"/>
        <pt x="654" y="317" on="0"/>
        <pt x="727" y="344" on="0"/>
        <pt x="787" y="392" on="0"/>
        <pt x="831" y="457" on="0"/>
        <pt x="845" y="495" on="1"/>
        <pt x="955" y="451" on="1"/>
        <pt x="931" y="390" on="0"/>
        <pt x="846" y="299" on="0"/>
        <pt x="738" y="239" on="0"/>
        <pt x="615" y="209" on="0"/>
        <pt x="552" y="209" on="1"/>
        <pt x="533" y="209" on="0"/>
        <pt x="497" y="211" on="0"/>
        <pt x="479" y="214" on="1"/>
        <pt x="413" y="-29" on="1"/>
        <pt x="280" y="-29" on="1"/>
        <pt x="355" y="248" on="1"/>
        <pt x="291" y="275" on="0"/>
        <pt x="185" y="363" on="0"/>
        <pt x="110" y="477" on="0"/>
        <pt x="68" y="613" on="0"/>
        <pt x="68" y="689" on="1"/>
        <pt x="68" y="791" on="0"/>
        <pt x="143" y="967" on="0"/>
        <pt x="273" y="1096" on="0"/>
        <pt x="450" y="1170" on="0"/>
        <pt x="552" y="1170" on="1"/>
        <pt x="566" y="1170" on="0"/>
        <pt x="592" y="1169" on="0"/>
        <pt x="606" y="1168" on="1"/>
        <pt x="688" y="1469" on="1"/>
      </contour>
    </TTGlyph>
    <TTGlyph name="circumflex" xMin="0" yMin="1079" xMax="527" yMax="1434">
      <contour>
        <pt x="527" y="1079" on="1"/>
        <pt x="277" y="1079" on="1"/>
        <pt x="212" y="1217" on="1"/>
        <pt x="146" y="1079" on="1"/>
        <pt x="0" y="1079" on="1"/>
        <pt x="193" y="1434" on="1"/>
        <pt x="328" y="1434" on="1"/>
      </contour>
    </TTGlyph>
    <TTGlyph name="colon" xMin="141" yMin="-33" xMax="505" yMax="1026">
      <contour>
        <pt x="505" y="844" on="1"/>
        <pt x="505" y="806" on="0"/>
        <pt x="476" y="740" on="0"/>
        <pt x="427" y="690" on="0"/>
        <pt x="360" y="662" on="0"/>
        <pt x="323" y="662" on="1"/>
        <pt x="285" y="662" on="0"/>
        <pt x="219" y="690" on="0"/>
        <pt x="170" y="740" on="0"/>
        <pt x="141" y="806" on="0"/>
        <pt x="141" y="844" on="1"/>
        <pt x="141" y="881" on="0"/>
        <pt x="170" y="948" on="0"/>
        <pt x="219" y="997" on="0"/>
        <pt x="285" y="1026" on="0"/>
        <pt x="323" y="1026" on="1"/>
        <pt x="360" y="1026" on="0"/>
        <pt x="427" y="997" on="0"/>
        <pt x="476" y="948" on="0"/>
        <pt x="505" y="881" on="0"/>
      </contour>
      <contour>
        <pt x="505" y="150" on="1"/>
        <pt x="505" y="112" on="0"/>
        <pt x="476" y="45" on="0"/>
        <pt x="427" y="-4" on="0"/>
        <pt x="360" y="-33" on="0"/>
        <pt x="323" y="-33" on="1"/>
        <pt x="285" y="-33" on="0"/>
        <pt x="219" y="-4" on="0"/>
        <pt x="170" y="45" on="0"/>
        <pt x="141" y="112" on="0"/>
        <pt x="141" y="150" on="1"/>
        <pt x="141" y="187" on="0"/>
        <pt x="170" y="254" on="0"/>
        <pt x="219" y="303" on="0"/>
        <pt x="285" y="332" on="0"/>
        <pt x="323" y="332" on="1"/>
        <pt x="360" y="332" on="0"/>
        <pt x="427" y="303" on="0"/>
        <pt x="476" y="254" on="0"/>
        <pt x="505" y="187" on="0"/>
      </contour>
    </TTGlyph>
    <TTGlyph name="comma" xMin="105" yMin="-195" xMax="469" yMax="332">
      <contour>
        <pt x="469" y="150" on="1"/>
        <pt x="469" y="104" on="0"/>
        <pt x="445" y="8" on="0"/>
        <pt x="402" y="-83" on="0"/>
        <pt x="344" y="-164" on="0"/>
        <pt x="310" y="-195" on="1"/>
        <pt x="166" y="-119" on="1"/>
        <pt x="187" y="-103" on="0"/>
        <pt x="230" y="-51" on="0"/>
        <pt x="234" y="-25" on="1"/>
        <pt x="205" y="-16" on="0"/>
        <pt x="158" y="18" on="0"/>
        <pt x="124" y="65" on="0"/>
        <pt x="105" y="120" on="0"/>
        <pt x="105" y="150" on="1"/>
        <pt x="105" y="187" on="0"/>
        <pt x="134" y="254" on="0"/>
        <pt x="183" y="303" on="0"/>
        <pt x="249" y="332" on="0"/>
        <pt x="287" y="332" on="1"/>
        <pt x="325" y="332" on="0"/>
        <pt x="391" y="303" on="0"/>
        <pt x="441" y="254" on="0"/>
        <pt x="469" y="187" on="0"/>
      </contour>
    </TTGlyph>
    <TTGlyph name="copyright" xMin="110" yMin="460" xMax="641" yMax="992">
      <contour>
        <pt x="641" y="726" on="1"/>
        <pt x="641" y="671" on="0"/>
        <pt x="599" y="574" on="0"/>
        <pt x="527" y="502" on="0"/>
        <pt x="431" y="460" on="0"/>
        <pt x="376" y="460" on="1"/>
        <pt x="321" y="460" on="0"/>
        <pt x="224" y="502" on="0"/>
        <pt x="152" y="574" on="0"/>
        <pt x="110" y="671" on="0"/>
        <pt x="110" y="726" on="1"/>
        <pt x="110" y="781" on="0"/>
        <pt x="152" y="878" on="0"/>
        <pt x="224" y="950" on="0"/>
        <pt x="321" y="992" on="0"/>
        <pt x="376" y="992" on="1"/>
        <pt x="431" y="992" on="0"/>
        <pt x="527" y="950" on="0"/>
        <pt x="599" y="878" on="0"/>
        <pt x="641" y="781" on="0"/>
      </contour>
      <contour>
        <pt x="601" y="725" on="1"/>
        <pt x="601" y="771" on="0"/>
        <pt x="566" y="853" on="0"/>
        <pt x="504" y="914" on="0"/>
        <pt x="422" y="949" on="0"/>
        <pt x="376" y="949" on="1"/>
        <pt x="329" y="949" on="0"/>
        <pt x="248" y="914" on="0"/>
        <pt x="187" y="853" on="0"/>
        <pt x="152" y="771" on="0"/>
        <pt x="152" y="725" on="1"/>
        <pt x="152" y="678" on="0"/>
        <pt x="187" y="597" on="0"/>
        <pt x="248" y="535" on="0"/>
        <pt x="329" y="500" on="0"/>
        <pt x="376" y="500" on="1"/>
        <pt x="422" y="500" on="0"/>
        <pt x="504" y="535" on="0"/>
        <pt x="566" y="597" on="0"/>
        <pt x="601" y="678" on="0"/>
      </contour>
      <contour>
        <pt x="537" y="814" on="1"/>
        <pt x="494" y="796" on="1"/>
        <pt x="484" y="828" on="0"/>
        <pt x="437" y="869" on="0"/>
        <pt x="402" y="869" on="1"/>
        <pt x="374" y="869" on="0"/>
        <pt x="332" y="842" on="0"/>
        <pt x="304" y="800" on="0"/>
        <pt x="290" y="749" on="0"/>
        <pt x="290" y="724" on="1"/>
        <pt x="290" y="698" on="0"/>
        <pt x="302" y="646" on="0"/>
        <pt x="329" y="605" on="0"/>
        <pt x="372" y="579" on="0"/>
        <pt x="402" y="579" on="1"/>
        <pt x="434" y="579" on="0"/>
        <pt x="481" y="619" on="0"/>
        <pt x="492" y="648" on="1"/>
        <pt x="535" y="631" on="1"/>
        <pt x="516" y="583" on="0"/>
        <pt x="427" y="536" on="0"/>
        <pt x="378" y="536" on="1"/>
        <pt x="338" y="536" on="0"/>
        <pt x="269" y="565" on="0"/>
        <pt x="218" y="616" on="0"/>
        <pt x="189" y="684" on="0"/>
        <pt x="189" y="724" on="1"/>
        <pt x="189" y="764" on="0"/>
        <pt x="218" y="833" on="0"/>
        <pt x="269" y="883" on="0"/>
        <pt x="338" y="912" on="0"/>
        <pt x="378" y="912" on="1"/>
        <pt x="429" y="912" on="0"/>
        <pt x="517" y="864" on="0"/>
      </contour>
    </TTGlyph>
    <TTGlyph name="currency" xMin="100" yMin="387" xMax="793" yMax="1074">
      <contour>
        <pt x="565" y="738" on="1"/>
        <pt x="565" y="761" on="0"/>
        <pt x="547" y="802" on="0"/>
        <pt x="516" y="833" on="0"/>
        <pt x="475" y="851" on="0"/>
        <pt x="452" y="851" on="1"/>
        <pt x="429" y="851" on="0"/>
        <pt x="389" y="833" on="0"/>
        <pt x="359" y="802" on="0"/>
        <pt x="341" y="761" on="0"/>
        <pt x="341" y="738" on="1"/>
        <pt x="341" y="715" on="0"/>
        <pt x="358" y="674" on="0"/>
        <pt x="388" y="642" on="0"/>
        <pt x="429" y="624" on="0"/>
        <pt x="452" y="624" on="1"/>
        <pt x="475" y="624" on="0"/>
        <pt x="516" y="642" on="0"/>
        <pt x="547" y="673" on="0"/>
        <pt x="565" y="715" on="0"/>
      </contour>
      <contour>
        <pt x="705" y="396" on="1"/>
        <pt x="564" y="537" on="1"/>
        <pt x="513" y="509" on="0"/>
        <pt x="454" y="509" on="1"/>
        <pt x="422" y="509" on="0"/>
        <pt x="365" y="525" on="0"/>
        <pt x="340" y="539" on="1"/>
        <pt x="187" y="387" on="1"/>
        <pt x="100" y="475" on="1"/>
        <pt x="255" y="630" on="1"/>
        <pt x="229" y="677" on="0"/>
        <pt x="229" y="736" on="1"/>
        <pt x="229" y="794" on="0"/>
        <pt x="257" y="845" on="1"/>
        <pt x="115" y="987" on="1"/>
        <pt x="203" y="1074" on="1"/>
        <pt x="343" y="933" on="1"/>
        <pt x="368" y="947" on="0"/>
        <pt x="424" y="963" on="0"/>
        <pt x="454" y="963" on="1"/>
        <pt x="483" y="963" on="0"/>
        <pt x="537" y="949" on="0"/>
        <pt x="561" y="936" on="1"/>
        <pt x="690" y="1065" on="1"/>
        <pt x="778" y="977" on="1"/>
        <pt x="650" y="849" on="1"/>
        <pt x="681" y="798" on="0"/>
        <pt x="681" y="736" on="1"/>
        <pt x="681" y="706" on="0"/>
        <pt x="666" y="650" on="0"/>
        <pt x="652" y="625" on="1"/>
        <pt x="793" y="484" on="1"/>
      </contour>
    </TTGlyph>
    <TTGlyph name="d" xMin="77" yMin="-27" xMax="1305" yMax="1580">
      <contour>
        <pt x="1305" y="0" on="1"/>
        <pt x="1175" y="0" on="1"/>
        <pt x="1025" y="251" on="1"/>
        <pt x="1003" y="188" on="0"/>
        <pt x="926" y="86" on="0"/>
        <pt x="825" y="13" on="0"/>
        <pt x="704" y="-27" on="0"/>
        <pt x="637" y="-27" on="1"/>
        <pt x="505" y="-27" on="0"/>
        <pt x="297" y="67" on="0"/>
        <pt x="153" y="230" on="0"/>
        <pt x="77" y="450" on="0"/>
        <pt x="77" y="576" on="1"/>
        <pt x="77" y="702" on="0"/>
        <pt x="153" y="922" on="0"/>
        <pt x="297" y="1084" on="0"/>
        <pt x="505" y="1178" on="0"/>
        <pt x="637" y="1178" on="1"/>
        <pt x="738" y="1178" on="0"/>
        <pt x="907" y="1100" on="0"/>
        <pt x="967" y="1017" on="1"/>
        <pt x="967" y="1580" on="1"/>
        <pt x="1305" y="1580" on="1"/>
      </contour>
      <contour>
        <pt x="965" y="576" on="1"/>
        <pt x="965" y="616" on="0"/>
        <pt x="953" y="712" on="0"/>
        <pt x="927" y="810" on="0"/>
        <pt x="885" y="902" on="0"/>
        <pt x="824" y="974" on="0"/>
        <pt x="743" y="1017" on="0"/>
        <pt x="691" y="1017" on="1"/>
        <pt x="634" y="1017" on="0"/>
        <pt x="550" y="976" on="0"/>
        <pt x="490" y="907" on="0"/>
        <pt x="451" y="817" on="0"/>
        <pt x="429" y="719" on="0"/>
        <pt x="420" y="620" on="0"/>
        <pt x="420" y="576" on="1"/>
        <pt x="420" y="532" on="0"/>
        <pt x="429" y="433" on="0"/>
        <pt x="451" y="335" on="0"/>
        <pt x="490" y="244" on="0"/>
        <pt x="550" y="175" on="0"/>
        <pt x="634" y="134" on="0"/>
        <pt x="691" y="134" on="1"/>
        <pt x="748" y="134" on="0"/>
        <pt x="834" y="174" on="0"/>
        <pt x="895" y="243" on="0"/>
        <pt x="934" y="332" on="0"/>
        <pt x="956" y="431" on="0"/>
        <pt x="965" y="531" on="0"/>
      </contour>
    </TTGlyph>
    <TTGlyph name="dagger" xMin="66" yMin="-150" xMax="825" yMax="1580">
      <contour>
        <pt x="575" y="-150" on="1"/>
        <pt x="326" y="-150" on="1"/>
        <pt x="326" y="1021" on="1"/>
        <pt x="66" y="1021" on="1"/>
        <pt x="66" y="1155" on="1"/>
        <pt x="326" y="1155" on="1"/>
        <pt x="326" y="1580" on="1"/>
        <pt x="575" y="1580" on="1"/>
        <pt x="575" y="1155" on="1"/>
        <pt x="825" y="1155" on="1"/>
        <pt x="825" y="1021" on="1"/>
        <pt x="575" y="1021" on="1"/>
      </contour>
    </TTGlyph>
    <TTGlyph name="daggerdbl" xMin="80" yMin="-150" xMax="839" yMax="1580">
      <contour>
        <pt x="839" y="1021" on="1"/>
        <pt x="589" y="1021" on="1"/>
        <pt x="589" y="409" on="1"/>
        <pt x="839" y="409" on="1"/>
        <pt x="839" y="274" on="1"/>
        <pt x="589" y="274" on="1"/>
        <pt x="589" y="-150" on="1"/>
        <pt x="340" y="-150" on="1"/>
        <pt x="340" y="274" on="1"/>
        <pt x="80" y="274" on="1"/>
        <pt x="80" y="409" on="1"/>
        <pt x="340" y="409" on="1"/>
        <pt x="340" y="1021" on="1"/>
        <pt x="80" y="1021" on="1"/>
        <pt x="80" y="1155" on="1"/>
        <pt x="340" y="1155" on="1"/>
        <pt x="340" y="1580" on="1"/>
        <pt x="589" y="1580" on="1"/>
        <pt x="589" y="1155" on="1"/>
        <pt x="839" y="1155" on="1"/>
      </contour>
    </TTGlyph>
    <TTGlyph name="dcaron" xMin="77" yMin="-27" xMax="1901" yMax="1580">
      <component glyphName="d" x="0" y="0" flags="0x4"/>
      <component glyphName="quoteright" x="1446" y="0" flags="0x4"/>
    </TTGlyph>
    <TTGlyph name="dcroat" xMin="77" yMin="-27" xMax="1447" yMax="1580">
      <contour>
        <pt x="1305" y="0" on="1"/>
        <pt x="1175" y="0" on="1"/>
        <pt x="1025" y="251" on="1"/>
        <pt x="1003" y="188" on="0"/>
        <pt x="926" y="86" on="0"/>
        <pt x="825" y="13" on="0"/>
        <pt x="704" y="-27" on="0"/>
        <pt x="637" y="-27" on="1"/>
        <pt x="505" y="-27" on="0"/>
        <pt x="297" y="67" on="0"/>
        <pt x="153" y="230" on="0"/>
        <pt x="77" y="450" on="0"/>
        <pt x="77" y="576" on="1"/>
        <pt x="77" y="702" on="0"/>
        <pt x="153" y="922" on="0"/>
        <pt x="297" y="1084" on="0"/>
        <pt x="505" y="1178" on="0"/>
        <pt x="637" y="1178" on="1"/>
        <pt x="738" y="1178" on="0"/>
        <pt x="907" y="1100" on="0"/>
        <pt x="967" y="1017" on="1"/>
        <pt x="967" y="1268" on="1"/>
        <pt x="825" y="1268" on="1"/>
        <pt x="825" y="1452" on="1"/>
        <pt x="967" y="1452" on="1"/>
        <pt x="967" y="1580" on="1"/>
        <pt x="1305" y="1580" on="1"/>
        <pt x="1305" y="1452" on="1"/>
        <pt x="1447" y="1452" on="1"/>
        <pt x="1447" y="1268" on="1"/>
        <pt x="1305" y="1268" on="1"/>
      </contour>
      <contour>
        <pt x="965" y="576" on="1"/>
        <pt x="965" y="616" on="0"/>
        <pt x="953" y="712" on="0"/>
        <pt x="927" y="810" on="0"/>
        <pt x="885" y="902" on="0"/>
        <pt x="824" y="974" on="0"/>
        <pt x="743" y="1017" on="0"/>
        <pt x="691" y="1017" on="1"/>
        <pt x="634" y="1017" on="0"/>
        <pt x="550" y="976" on="0"/>
        <pt x="490" y="907" on="0"/>
        <pt x="451" y="817" on="0"/>
        <pt x="429" y="719" on="0"/>
        <pt x="420" y="620" on="0"/>
        <pt x="420" y="576" on="1"/>
        <pt x="420" y="532" on="0"/>
        <pt x="429" y="433" on="0"/>
        <pt x="451" y="335" on="0"/>
        <pt x="490" y="244" on="0"/>
        <pt x="550" y="175" on="0"/>
        <pt x="634" y="134" on="0"/>
        <pt x="691" y="134" on="1"/>
        <pt x="748" y="134" on="0"/>
        <pt x="834" y="174" on="0"/>
        <pt x="895" y="243" on="0"/>
        <pt x="934" y="332" on="0"/>
        <pt x="956" y="431" on="0"/>
        <pt x="965" y="531" on="0"/>
      </contour>
    </TTGlyph>
    <TTGlyph name="degree" xMin="93" yMin="1012" xMax="545" yMax="1466">
      <contour>
        <pt x="545" y="1239" on="1"/>
        <pt x="545" y="1192" on="0"/>
        <pt x="509" y="1109" on="0"/>
        <pt x="448" y="1048" on="0"/>
        <pt x="365" y="1012" on="0"/>
        <pt x="318" y="1012" on="1"/>
        <pt x="271" y="1012" on="0"/>
        <pt x="189" y="1048" on="0"/>
        <pt x="128" y="1109" on="0"/>
        <pt x="93" y="1192" on="0"/>
        <pt x="93" y="1239" on="1"/>
        <pt x="93" y="1285" on="0"/>
        <pt x="128" y="1368" on="0"/>
        <pt x="189" y="1430" on="0"/>
        <pt x="271" y="1466" on="0"/>
        <pt x="318" y="1466" on="1"/>
        <pt x="365" y="1466" on="0"/>
        <pt x="448" y="1430" on="0"/>
        <pt x="509" y="1369" on="0"/>
        <pt x="545" y="1286" on="0"/>
      </contour>
      <contour>
        <pt x="402" y="1239" on="1"/>
        <pt x="402" y="1273" on="0"/>
        <pt x="352" y="1323" on="0"/>
        <pt x="318" y="1323" on="1"/>
        <pt x="284" y="1323" on="0"/>
        <pt x="236" y="1273" on="0"/>
        <pt x="236" y="1239" on="1"/>
        <pt x="236" y="1205" on="0"/>
        <pt x="283" y="1155" on="0"/>
        <pt x="318" y="1155" on="1"/>
        <pt x="353" y="1155" on="0"/>
        <pt x="402" y="1204" on="0"/>
      </contour>
    </TTGlyph>
    <TTGlyph name="dieresis" xMin="0" yMin="1110" xMax="672" yMax="1404">
      <contour>
        <pt x="672" y="1257" on="1"/>
        <pt x="672" y="1227" on="0"/>
        <pt x="649" y="1173" on="0"/>
        <pt x="609" y="1133" on="0"/>
        <pt x="555" y="1110" on="0"/>
        <pt x="524" y="1110" on="1"/>
        <pt x="494" y="1110" on="0"/>
        <pt x="440" y="1133" on="0"/>
        <pt x="400" y="1173" on="0"/>
        <pt x="377" y="1227" on="0"/>
        <pt x="377" y="1257" on="1"/>
        <pt x="377" y="1287" on="0"/>
        <pt x="400" y="1341" on="0"/>
        <pt x="440" y="1381" on="0"/>
        <pt x="494" y="1404" on="0"/>
        <pt x="524" y="1404" on="1"/>
        <pt x="555" y="1404" on="0"/>
        <pt x="609" y="1381" on="0"/>
        <pt x="649" y="1341" on="0"/>
        <pt x="672" y="1287" on="0"/>
      </contour>
      <contour>
        <pt x="295" y="1257" on="1"/>
        <pt x="295" y="1227" on="0"/>
        <pt x="272" y="1173" on="0"/>
        <pt x="232" y="1133" on="0"/>
        <pt x="178" y="1110" on="0"/>
        <pt x="147" y="1110" on="1"/>
        <pt x="117" y="1110" on="0"/>
        <pt x="63" y="1133" on="0"/>
        <pt x="23" y="1173" on="0"/>
        <pt x="0" y="1227" on="0"/>
        <pt x="0" y="1257" on="1"/>
        <pt x="0" y="1287" on="0"/>
        <pt x="23" y="1341" on="0"/>
        <pt x="63" y="1381" on="0"/>
        <pt x="117" y="1404" on="0"/>
        <pt x="147" y="1404" on="1"/>
        <pt x="178" y="1404" on="0"/>
        <pt x="232" y="1381" on="0"/>
        <pt x="272" y="1341" on="0"/>
        <pt x="295" y="1287" on="0"/>
      </contour>
    </TTGlyph>
    <TTGlyph name="divide" xMin="91" yMin="264" xMax="926" yMax="1185">
      <contour>
        <pt x="926" y="629" on="1"/>
        <pt x="91" y="629" on="1"/>
        <pt x="91" y="813" on="1"/>
        <pt x="926" y="813" on="1"/>
      </contour>
      <contour>
        <pt x="654" y="410" on="1"/>
        <pt x="654" y="380" on="0"/>
        <pt x="631" y="326" on="0"/>
        <pt x="592" y="287" on="0"/>
        <pt x="539" y="264" on="0"/>
        <pt x="509" y="264" on="1"/>
        <pt x="479" y="264" on="0"/>
        <pt x="425" y="287" on="0"/>
        <pt x="386" y="326" on="0"/>
        <pt x="363" y="380" on="0"/>
        <pt x="363" y="410" on="1"/>
        <pt x="363" y="440" on="0"/>
        <pt x="386" y="493" on="0"/>
        <pt x="425" y="532" on="0"/>
        <pt x="479" y="555" on="0"/>
        <pt x="509" y="555" on="1"/>
        <pt x="539" y="555" on="0"/>
        <pt x="592" y="532" on="0"/>
        <pt x="631" y="493" on="0"/>
        <pt x="654" y="440" on="0"/>
      </contour>
      <contour>
        <pt x="654" y="1040" on="1"/>
        <pt x="654" y="1010" on="0"/>
        <pt x="631" y="956" on="0"/>
        <pt x="592" y="917" on="0"/>
        <pt x="539" y="894" on="0"/>
        <pt x="509" y="894" on="1"/>
        <pt x="479" y="894" on="0"/>
        <pt x="425" y="917" on="0"/>
        <pt x="386" y="956" on="0"/>
        <pt x="363" y="1010" on="0"/>
        <pt x="363" y="1040" on="1"/>
        <pt x="363" y="1070" on="0"/>
        <pt x="386" y="1123" on="0"/>
        <pt x="425" y="1162" on="0"/>
        <pt x="479" y="1185" on="0"/>
        <pt x="509" y="1185" on="1"/>
        <pt x="539" y="1185" on="0"/>
        <pt x="592" y="1162" on="0"/>
        <pt x="631" y="1123" on="0"/>
        <pt x="654" y="1070" on="0"/>
      </contour>
    </TTGlyph>
    <TTGlyph name="dollar" xMin="72" yMin="-33" xMax="882" yMax="1470">
      <contour>
        <pt x="540" y="586" on="1"/>
        <pt x="540" y="351" on="1"/>
        <pt x="565" y="354" on="0"/>
        <pt x="615" y="368" on="0"/>
        <pt x="654" y="394" on="0"/>
        <pt x="678" y="434" on="0"/>
        <pt x="678" y="464" on="1"/>
        <pt x="678" y="490" on="0"/>
        <pt x="654" y="529" on="0"/>
        <pt x="615" y="558" on="0"/>
        <pt x="566" y="578" on="0"/>
      </contour>
      <contour>
        <pt x="420" y="857" on="1"/>
        <pt x="420" y="1089" on="1"/>
        <pt x="396" y="1086" on="0"/>
        <pt x="350" y="1071" on="0"/>
        <pt x="314" y="1046" on="0"/>
        <pt x="292" y="1006" on="0"/>
        <pt x="292" y="978" on="1"/>
        <pt x="292" y="951" on="0"/>
        <pt x="314" y="912" on="0"/>
        <pt x="350" y="883" on="0"/>
        <pt x="396" y="864" on="0"/>
      </contour>
      <contour>
        <pt x="540" y="-33" on="1"/>
        <pt x="420" y="-33" on="1"/>
        <pt x="420" y="243" on="1"/>
        <pt x="377" y="246" on="0"/>
        <pt x="298" y="263" on="0"/>
        <pt x="217" y="297" on="0"/>
        <pt x="127" y="347" on="0"/>
        <pt x="72" y="383" on="1"/>
        <pt x="197" y="552" on="1"/>
        <pt x="212" y="514" on="0"/>
        <pt x="257" y="447" on="0"/>
        <pt x="313" y="394" on="0"/>
        <pt x="381" y="358" on="0"/>
        <pt x="420" y="352" on="1"/>
        <pt x="420" y="618" on="1"/>
        <pt x="364" y="634" on="0"/>
        <pt x="247" y="675" on="0"/>
        <pt x="149" y="738" on="0"/>
        <pt x="87" y="832" on="0"/>
        <pt x="87" y="902" on="1"/>
        <pt x="87" y="982" on="0"/>
        <pt x="140" y="1092" on="0"/>
        <pt x="232" y="1162" on="0"/>
        <pt x="352" y="1196" on="0"/>
        <pt x="420" y="1201" on="1"/>
        <pt x="420" y="1470" on="1"/>
        <pt x="540" y="1470" on="1"/>
        <pt x="540" y="1199" on="1"/>
        <pt x="576" y="1197" on="0"/>
        <pt x="651" y="1183" on="0"/>
        <pt x="730" y="1151" on="0"/>
        <pt x="817" y="1099" on="0"/>
        <pt x="867" y="1059" on="1"/>
        <pt x="742" y="890" on="1"/>
        <pt x="715" y="970" on="0"/>
        <pt x="618" y="1079" on="0"/>
        <pt x="540" y="1090" on="1"/>
        <pt x="540" y="826" on="1"/>
        <pt x="596" y="810" on="0"/>
        <pt x="717" y="769" on="0"/>
        <pt x="817" y="705" on="0"/>
        <pt x="882" y="610" on="0"/>
        <pt x="882" y="540" on="1"/>
        <pt x="882" y="458" on="0"/>
        <pt x="826" y="347" on="0"/>
        <pt x="732" y="278" on="0"/>
        <pt x="608" y="245" on="0"/>
        <pt x="540" y="241" on="1"/>
      </contour>
    </TTGlyph>
    <TTGlyph name="dotaccent" xMin="0" yMin="1110" xMax="295" yMax="1404">
      <contour>
        <pt x="295" y="1257" on="1"/>
        <pt x="295" y="1227" on="0"/>
        <pt x="272" y="1173" on="0"/>
        <pt x="232" y="1133" on="0"/>
        <pt x="178" y="1110" on="0"/>
        <pt x="148" y="1110" on="1"/>
        <pt x="117" y="1110" on="0"/>
        <pt x="63" y="1133" on="0"/>
        <pt x="23" y="1173" on="0"/>
        <pt x="0" y="1227" on="0"/>
        <pt x="0" y="1257" on="1"/>
        <pt x="0" y="1287" on="0"/>
        <pt x="23" y="1341" on="0"/>
        <pt x="63" y="1381" on="0"/>
        <pt x="117" y="1404" on="0"/>
        <pt x="148" y="1404" on="1"/>
        <pt x="178" y="1404" on="0"/>
        <pt x="232" y="1381" on="0"/>
        <pt x="272" y="1341" on="0"/>
        <pt x="295" y="1287" on="0"/>
      </contour>
    </TTGlyph>
    <TTGlyph name="dotlessi" xMin="142" yMin="0" xMax="481" yMax="1154">
      <contour>
        <pt x="481" y="0" on="1"/>
        <pt x="142" y="0" on="1"/>
        <pt x="142" y="1154" on="1"/>
        <pt x="481" y="1154" on="1"/>
      </contour>
    </TTGlyph>
    <TTGlyph name="dotlessj" xMin="-60" yMin="-533" xMax="483" yMax="1155">
      <contour>
        <pt x="483" y="334" on="1"/>
        <pt x="483" y="215" on="0"/>
        <pt x="423" y="-30" on="0"/>
        <pt x="314" y="-259" on="0"/>
        <pt x="163" y="-460" on="0"/>
        <pt x="72" y="-533" on="1"/>
        <pt x="-60" y="-453" on="1"/>
        <pt x="-9" y="-383" on="0"/>
        <pt x="67" y="-206" on="0"/>
        <pt x="118" y="-16" on="0"/>
        <pt x="144" y="177" on="0"/>
        <pt x="144" y="264" on="1"/>
        <pt x="144" y="1155" on="1"/>
        <pt x="483" y="1155" on="1"/>
      </contour>
    </TTGlyph>
    <TTGlyph name="e" xMin="74" yMin="-23" xMax="1252" yMax="1183">
      <contour>
        <pt x="419" y="548" on="1"/>
        <pt x="481" y="534" on="0"/>
        <pt x="605" y="518" on="0"/>
        <pt x="668" y="518" on="1"/>
        <pt x="734" y="518" on="0"/>
        <pt x="847" y="543" on="0"/>
        <pt x="930" y="602" on="0"/>
        <pt x="978" y="700" on="0"/>
        <pt x="978" y="773" on="1"/>
        <pt x="978" y="832" on="0"/>
        <pt x="946" y="930" on="0"/>
        <pt x="883" y="1000" on="0"/>
        <pt x="791" y="1039" on="0"/>
        <pt x="730" y="1039" on="1"/>
        <pt x="673" y="1039" on="0"/>
        <pt x="582" y="997" on="0"/>
        <pt x="513" y="926" on="0"/>
        <pt x="464" y="832" on="0"/>
        <pt x="432" y="730" on="0"/>
        <pt x="418" y="626" on="0"/>
        <pt x="418" y="580" on="1"/>
        <pt x="418" y="572" on="0"/>
        <pt x="418" y="556" on="0"/>
      </contour>
      <contour>
        <pt x="1252" y="776" on="1"/>
        <pt x="1252" y="705" on="0"/>
        <pt x="1206" y="594" on="0"/>
        <pt x="1127" y="510" on="0"/>
        <pt x="1023" y="452" on="0"/>
        <pt x="905" y="415" on="0"/>
        <pt x="780" y="399" on="0"/>
        <pt x="721" y="399" on="1"/>
        <pt x="646" y="399" on="0"/>
        <pt x="500" y="420" on="0"/>
        <pt x="429" y="443" on="1"/>
        <pt x="440" y="377" on="0"/>
        <pt x="488" y="258" on="0"/>
        <pt x="568" y="169" on="0"/>
        <pt x="685" y="117" on="0"/>
        <pt x="765" y="117" on="1"/>
        <pt x="818" y="117" on="0"/>
        <pt x="914" y="149" on="0"/>
        <pt x="994" y="207" on="0"/>
        <pt x="1055" y="287" on="0"/>
        <pt x="1074" y="336" on="1"/>
        <pt x="1220" y="282" on="1"/>
        <pt x="1187" y="203" on="0"/>
        <pt x="1072" y="88" on="0"/>
        <pt x="927" y="13" on="0"/>
        <pt x="764" y="-23" on="0"/>
        <pt x="684" y="-23" on="1"/>
        <pt x="552" y="-23" on="0"/>
        <pt x="328" y="66" on="0"/>
        <pt x="166" y="226" on="0"/>
        <pt x="74" y="448" on="0"/>
        <pt x="74" y="580" on="1"/>
        <pt x="74" y="712" on="0"/>
        <pt x="166" y="934" on="0"/>
        <pt x="328" y="1094" on="0"/>
        <pt x="552" y="1183" on="0"/>
        <pt x="684" y="1183" on="1"/>
        <pt x="748" y="1183" on="0"/>
        <pt x="882" y="1165" on="0"/>
        <pt x="1008" y="1126" on="0"/>
        <pt x="1120" y="1064" on="0"/>
        <pt x="1203" y="973" on="0"/>
        <pt x="1252" y="853" on="0"/>
      </contour>
    </TTGlyph>
    <TTGlyph name="eacute" xMin="74" yMin="-23" xMax="1252" yMax="1637">
      <component glyphName="e" x="0" y="0" flags="0x204"/>
      <component glyphName="acute" x="600" y="197" flags="0x4"/>
    </TTGlyph>
    <TTGlyph name="ebreve" xMin="74" yMin="-23" xMax="1252" yMax="1533">
      <component glyphName="e" x="0" y="0" flags="0x204"/>
      <component glyphName="breve" x="440" y="95" flags="0x4"/>
    </TTGlyph>
    <TTGlyph name="ecaron" xMin="74" yMin="-23" xMax="1252" yMax="1637">
      <component glyphName="e" x="0" y="0" flags="0x204"/>
      <component glyphName="caron" x="415" y="197" flags="0x4"/>
    </TTGlyph>
    <TTGlyph name="ecircumflex" xMin="74" yMin="-23" xMax="1252" yMax="1641">
      <component glyphName="e" x="0" y="0" flags="0x204"/>
      <component glyphName="circumflex" x="459" y="207" flags="0x4"/>
    </TTGlyph>
    <TTGlyph name="edieresis" xMin="74" yMin="-23" xMax="1252" yMax="1555">
      <component glyphName="e" x="0" y="0" flags="0x204"/>
      <component glyphName="dieresis" x="368" y="151" flags="0x4"/>
    </TTGlyph>
    <TTGlyph name="edotaccent" xMin="74" yMin="-23" xMax="1252" yMax="1578">
      <component glyphName="e" x="0" y="0" flags="0x204"/>
      <component glyphName="dotaccent" x="545" y="174" flags="0x4"/>
    </TTGlyph>
    <TTGlyph name="egrave" xMin="74" yMin="-23" xMax="1252" yMax="1637">
      <component glyphName="e" x="0" y="0" flags="0x204"/>
      <component glyphName="grave" x="288" y="197" flags="0x4"/>
    </TTGlyph>
    <TTGlyph name="eight" xMin="85" yMin="-29" xMax="1517" yMax="1464">
      <contour>
        <pt x="1123" y="422" on="1"/>
        <pt x="1123" y="497" on="0"/>
        <pt x="1072" y="604" on="0"/>
        <pt x="983" y="672" on="0"/>
        <pt x="864" y="704" on="0"/>
        <pt x="796" y="704" on="1"/>
        <pt x="730" y="704" on="0"/>
        <pt x="614" y="669" on="0"/>
        <pt x="529" y="599" on="0"/>
        <pt x="479" y="493" on="0"/>
        <pt x="479" y="422" on="1"/>
        <pt x="479" y="353" on="0"/>
        <pt x="530" y="248" on="0"/>
        <pt x="616" y="176" on="0"/>
        <pt x="731" y="140" on="0"/>
        <pt x="796" y="140" on="1"/>
        <pt x="858" y="140" on="0"/>
        <pt x="976" y="177" on="0"/>
        <pt x="1067" y="249" on="0"/>
        <pt x="1123" y="354" on="0"/>
      </contour>
      <contour>
        <pt x="447" y="814" on="1"/>
        <pt x="400" y="831" on="0"/>
        <pt x="314" y="888" on="0"/>
        <pt x="247" y="960" on="0"/>
        <pt x="207" y="1046" on="0"/>
        <pt x="207" y="1093" on="1"/>
        <pt x="207" y="1166" on="0"/>
        <pt x="261" y="1279" on="0"/>
        <pt x="353" y="1361" on="0"/>
        <pt x="473" y="1416" on="0"/>
        <pt x="604" y="1450" on="0"/>
        <pt x="737" y="1464" on="0"/>
        <pt x="796" y="1464" on="1"/>
        <pt x="856" y="1464" on="0"/>
        <pt x="991" y="1451" on="0"/>
        <pt x="1123" y="1419" on="0"/>
        <pt x="1245" y="1365" on="0"/>
        <pt x="1337" y="1283" on="0"/>
        <pt x="1392" y="1169" on="0"/>
        <pt x="1392" y="1093" on="1"/>
        <pt x="1392" y="1047" on="0"/>
        <pt x="1352" y="960" on="0"/>
        <pt x="1288" y="886" on="0"/>
        <pt x="1206" y="829" on="0"/>
        <pt x="1164" y="813" on="1"/>
        <pt x="1234" y="798" on="0"/>
        <pt x="1362" y="729" on="0"/>
        <pt x="1460" y="628" on="0"/>
        <pt x="1517" y="498" on="0"/>
        <pt x="1517" y="422" on="1"/>
        <pt x="1517" y="325" on="0"/>
        <pt x="1452" y="182" on="0"/>
        <pt x="1342" y="82" on="0"/>
        <pt x="1197" y="19" on="0"/>
        <pt x="1037" y="-16" on="0"/>
        <pt x="871" y="-29" on="0"/>
        <pt x="796" y="-29" on="1"/>
        <pt x="724" y="-29" on="0"/>
        <pt x="563" y="-13" on="0"/>
        <pt x="405" y="27" on="0"/>
        <pt x="260" y="93" on="0"/>
        <pt x="150" y="193" on="0"/>
        <pt x="85" y="331" on="0"/>
        <pt x="85" y="422" on="1"/>
        <pt x="85" y="499" on="0"/>
        <pt x="145" y="631" on="0"/>
        <pt x="245" y="733" on="0"/>
        <pt x="376" y="801" on="0"/>
      </contour>
      <contour>
        <pt x="796" y="1273" on="1"/>
        <pt x="746" y="1273" on="0"/>
        <pt x="659" y="1250" on="0"/>
        <pt x="594" y="1202" on="0"/>
        <pt x="557" y="1126" on="0"/>
        <pt x="557" y="1073" on="1"/>
        <pt x="557" y="1022" on="0"/>
        <pt x="595" y="947" on="0"/>
        <pt x="660" y="898" on="0"/>
        <pt x="747" y="874" on="0"/>
        <pt x="796" y="874" on="1"/>
        <pt x="843" y="874" on="0"/>
        <pt x="932" y="898" on="0"/>
        <pt x="1001" y="948" on="0"/>
        <pt x="1043" y="1023" on="0"/>
        <pt x="1043" y="1073" on="1"/>
        <pt x="1043" y="1129" on="0"/>
        <pt x="1005" y="1205" on="0"/>
        <pt x="938" y="1252" on="0"/>
        <pt x="848" y="1273" on="0"/>
      </contour>
    </TTGlyph>
    <TTGlyph name="ellipsis" xMin="105" yMin="-33" xMax="1813" yMax="332">
      <contour>
        <pt x="1813" y="150" on="1"/>
        <pt x="1813" y="112" on="0"/>
        <pt x="1784" y="45" on="0"/>
        <pt x="1735" y="-4" on="0"/>
        <pt x="1668" y="-33" on="0"/>
        <pt x="1630" y="-33" on="1"/>
        <pt x="1592" y="-33" on="0"/>
        <pt x="1526" y="-4" on="0"/>
        <pt x="1477" y="45" on="0"/>
        <pt x="1448" y="112" on="0"/>
        <pt x="1448" y="150" on="1"/>
        <pt x="1448" y="187" on="0"/>
        <pt x="1477" y="254" on="0"/>
        <pt x="1526" y="303" on="0"/>
        <pt x="1592" y="332" on="0"/>
        <pt x="1630" y="332" on="1"/>
        <pt x="1668" y="332" on="0"/>
        <pt x="1735" y="303" on="0"/>
        <pt x="1784" y="254" on="0"/>
        <pt x="1813" y="187" on="0"/>
      </contour>
      <contour>
        <pt x="1141" y="150" on="1"/>
        <pt x="1141" y="112" on="0"/>
        <pt x="1112" y="45" on="0"/>
        <pt x="1063" y="-4" on="0"/>
        <pt x="996" y="-33" on="0"/>
        <pt x="959" y="-33" on="1"/>
        <pt x="921" y="-33" on="0"/>
        <pt x="854" y="-4" on="0"/>
        <pt x="805" y="45" on="0"/>
        <pt x="776" y="112" on="0"/>
        <pt x="776" y="150" on="1"/>
        <pt x="776" y="187" on="0"/>
        <pt x="805" y="254" on="0"/>
        <pt x="854" y="303" on="0"/>
        <pt x="921" y="332" on="0"/>
        <pt x="959" y="332" on="1"/>
        <pt x="996" y="332" on="0"/>
        <pt x="1063" y="303" on="0"/>
        <pt x="1112" y="254" on="0"/>
        <pt x="1141" y="187" on="0"/>
      </contour>
      <contour>
        <pt x="469" y="150" on="1"/>
        <pt x="469" y="112" on="0"/>
        <pt x="441" y="45" on="0"/>
        <pt x="391" y="-4" on="0"/>
        <pt x="325" y="-33" on="0"/>
        <pt x="287" y="-33" on="1"/>
        <pt x="249" y="-33" on="0"/>
        <pt x="183" y="-4" on="0"/>
        <pt x="133" y="45" on="0"/>
        <pt x="105" y="112" on="0"/>
        <pt x="105" y="150" on="1"/>
        <pt x="105" y="187" on="0"/>
        <pt x="133" y="254" on="0"/>
        <pt x="183" y="303" on="0"/>
        <pt x="249" y="332" on="0"/>
        <pt x="287" y="332" on="1"/>
        <pt x="325" y="332" on="0"/>
        <pt x="391" y="303" on="0"/>
        <pt x="441" y="254" on="0"/>
        <pt x="469" y="187" on="0"/>
      </contour>
    </TTGlyph>
    <TTGlyph name="emacron" xMin="74" yMin="-23" xMax="1252" yMax="1482">
      <component glyphName="e" x="0" y="0" flags="0x204"/>
      <component glyphName="macron" x="388" y="142" flags="0x4"/>
    </TTGlyph>
    <TTGlyph name="emdash" xMin="141" yMin="629" xMax="1141" yMax="813">
      <contour>
        <pt x="1141" y="629" on="1"/>
        <pt x="141" y="629" on="1"/>
        <pt x="141" y="813" on="1"/>
        <pt x="1141" y="813" on="1"/>
      </contour>
    </TTGlyph>
    <TTGlyph name="endash" xMin="141" yMin="629" xMax="641" yMax="813">
      <contour>
        <pt x="641" y="629" on="1"/>
        <pt x="141" y="629" on="1"/>
        <pt x="141" y="813" on="1"/>
        <pt x="641" y="813" on="1"/>
      </contour>
    </TTGlyph>
    <TTGlyph name="eng" xMin="141" yMin="-606" xMax="1323" yMax="1183">
      <contour>
        <pt x="1322" y="562" on="1"/>
        <pt x="1323" y="395" on="0"/>
        <pt x="1267" y="59" on="0"/>
        <pt x="1162" y="-249" on="0"/>
        <pt x="1009" y="-512" on="0"/>
        <pt x="912" y="-606" on="1"/>
        <pt x="780" y="-526" on="1"/>
        <pt x="818" y="-467" on="0"/>
        <pt x="879" y="-322" on="0"/>
        <pt x="924" y="-163" on="0"/>
        <pt x="955" y="4" on="0"/>
        <pt x="975" y="162" on="0"/>
        <pt x="984" y="306" on="0"/>
        <pt x="984" y="364" on="1"/>
        <pt x="985" y="520" on="0"/>
        <pt x="969" y="766" on="0"/>
        <pt x="920" y="935" on="0"/>
        <pt x="827" y="1024" on="0"/>
        <pt x="750" y="1024" on="1"/>
        <pt x="700" y="1024" on="0"/>
        <pt x="622" y="979" on="0"/>
        <pt x="562" y="906" on="0"/>
        <pt x="519" y="812" on="0"/>
        <pt x="492" y="713" on="0"/>
        <pt x="480" y="617" on="0"/>
        <pt x="480" y="579" on="1"/>
        <pt x="480" y="0" on="1"/>
        <pt x="141" y="0" on="1"/>
        <pt x="141" y="1155" on="1"/>
        <pt x="271" y="1155" on="1"/>
        <pt x="426" y="886" on="1"/>
        <pt x="454" y="953" on="0"/>
        <pt x="538" y="1063" on="0"/>
        <pt x="644" y="1141" on="0"/>
        <pt x="773" y="1183" on="0"/>
        <pt x="848" y="1183" on="1"/>
        <pt x="1087" y="1183" on="0"/>
        <pt x="1320" y="872" on="0"/>
      </contour>
    </TTGlyph>
    <TTGlyph name="eogonek" xMin="74" yMin="-417" xMax="1252" yMax="1183">
      <contour>
        <pt x="928" y="-223" on="1"/>
        <pt x="928" y="-263" on="0"/>
        <pt x="898" y="-333" on="0"/>
        <pt x="846" y="-386" on="0"/>
        <pt x="776" y="-417" on="0"/>
        <pt x="736" y="-417" on="1"/>
        <pt x="685" y="-417" on="0"/>
        <pt x="600" y="-386" on="0"/>
        <pt x="537" y="-327" on="0"/>
        <pt x="502" y="-244" on="0"/>
        <pt x="502" y="-192" on="1"/>
        <pt x="502" y="-141" on="0"/>
        <pt x="560" y="-53" on="0"/>
        <pt x="602" y="-18" on="1"/>
        <pt x="486" y="-5" on="0"/>
        <pt x="292" y="94" on="0"/>
        <pt x="152" y="251" on="0"/>
        <pt x="74" y="458" on="0"/>
        <pt x="74" y="580" on="1"/>
        <pt x="74" y="712" on="0"/>
        <pt x="166" y="934" on="0"/>
        <pt x="328" y="1094" on="0"/>
        <pt x="552" y="1183" on="0"/>
        <pt x="684" y="1183" on="1"/>
        <pt x="748" y="1183" on="0"/>
        <pt x="882" y="1165" on="0"/>
        <pt x="1008" y="1126" on="0"/>
        <pt x="1120" y="1064" on="0"/>
        <pt x="1203" y="973" on="0"/>
        <pt x="1252" y="853" on="0"/>
        <pt x="1252" y="776" on="1"/>
        <pt x="1252" y="705" on="0"/>
        <pt x="1206" y="594" on="0"/>
        <pt x="1127" y="510" on="0"/>
        <pt x="1023" y="452" on="0"/>
        <pt x="905" y="415" on="0"/>
        <pt x="780" y="399" on="0"/>
        <pt x="721" y="399" on="1"/>
        <pt x="646" y="399" on="0"/>
        <pt x="500" y="420" on="0"/>
        <pt x="429" y="443" on="1"/>
        <pt x="440" y="377" on="0"/>
        <pt x="488" y="258" on="0"/>
        <pt x="568" y="169" on="0"/>
        <pt x="685" y="117" on="0"/>
        <pt x="765" y="117" on="1"/>
        <pt x="818" y="117" on="0"/>
        <pt x="914" y="149" on="0"/>
        <pt x="994" y="207" on="0"/>
        <pt x="1055" y="287" on="0"/>
        <pt x="1074" y="336" on="1"/>
        <pt x="1220" y="282" on="1"/>
        <pt x="1190" y="210" on="0"/>
        <pt x="1089" y="103" on="0"/>
        <pt x="962" y="28" on="0"/>
        <pt x="816" y="-14" on="0"/>
        <pt x="743" y="-20" on="1"/>
        <pt x="709" y="-58" on="0"/>
        <pt x="661" y="-147" on="0"/>
        <pt x="661" y="-192" on="1"/>
        <pt x="661" y="-231" on="0"/>
        <pt x="698" y="-281" on="0"/>
        <pt x="740" y="-281" on="1"/>
        <pt x="765" y="-281" on="0"/>
        <pt x="814" y="-252" on="0"/>
        <pt x="815" y="-223" on="1"/>
      </contour>
      <contour>
        <pt x="419" y="548" on="1"/>
        <pt x="481" y="534" on="0"/>
        <pt x="605" y="518" on="0"/>
        <pt x="668" y="518" on="1"/>
        <pt x="734" y="518" on="0"/>
        <pt x="847" y="543" on="0"/>
        <pt x="930" y="602" on="0"/>
        <pt x="978" y="700" on="0"/>
        <pt x="978" y="773" on="1"/>
        <pt x="978" y="832" on="0"/>
        <pt x="946" y="930" on="0"/>
        <pt x="883" y="1000" on="0"/>
        <pt x="791" y="1039" on="0"/>
        <pt x="730" y="1039" on="1"/>
        <pt x="673" y="1039" on="0"/>
        <pt x="582" y="997" on="0"/>
        <pt x="513" y="926" on="0"/>
        <pt x="464" y="832" on="0"/>
        <pt x="432" y="730" on="0"/>
        <pt x="418" y="626" on="0"/>
        <pt x="418" y="580" on="1"/>
        <pt x="418" y="572" on="0"/>
        <pt x="418" y="556" on="0"/>
      </contour>
    </TTGlyph>
    <TTGlyph name="equal" xMin="140" yMin="469" xMax="975" yMax="983">
      <contour>
        <pt x="975" y="799" on="1"/>
        <pt x="140" y="799" on="1"/>
        <pt x="140" y="983" on="1"/>
        <pt x="975" y="983" on="1"/>
      </contour>
      <contour>
        <pt x="975" y="469" on="1"/>
        <pt x="140" y="469" on="1"/>
        <pt x="140" y="653" on="1"/>
        <pt x="975" y="653" on="1"/>
      </contour>
    </TTGlyph>
    <TTGlyph name="eth" xMin="72" yMin="-23" xMax="1361" yMax="1725">
      <contour>
        <pt x="1017" y="580" on="1"/>
        <pt x="1017" y="628" on="0"/>
        <pt x="1006" y="735" on="0"/>
        <pt x="980" y="838" on="0"/>
        <pt x="935" y="933" on="0"/>
        <pt x="869" y="1004" on="0"/>
        <pt x="777" y="1047" on="0"/>
        <pt x="716" y="1047" on="1"/>
        <pt x="658" y="1047" on="0"/>
        <pt x="568" y="1003" on="0"/>
        <pt x="501" y="930" on="0"/>
        <pt x="456" y="834" on="0"/>
        <pt x="428" y="731" on="0"/>
        <pt x="416" y="626" on="0"/>
        <pt x="416" y="580" on="1"/>
        <pt x="416" y="534" on="0"/>
        <pt x="428" y="429" on="0"/>
        <pt x="456" y="325" on="0"/>
        <pt x="501" y="230" on="0"/>
        <pt x="568" y="157" on="0"/>
        <pt x="658" y="113" on="0"/>
        <pt x="716" y="113" on="1"/>
        <pt x="776" y="113" on="0"/>
        <pt x="868" y="156" on="0"/>
        <pt x="935" y="228" on="0"/>
        <pt x="979" y="322" on="0"/>
        <pt x="1006" y="426" on="0"/>
        <pt x="1017" y="532" on="0"/>
      </contour>
      <contour>
        <pt x="1315" y="1498" on="1"/>
        <pt x="1146" y="1445" on="1"/>
        <pt x="1206" y="1334" on="0"/>
        <pt x="1289" y="1104" on="0"/>
        <pt x="1339" y="883" on="0"/>
        <pt x="1361" y="680" on="0"/>
        <pt x="1361" y="595" on="1"/>
        <pt x="1361" y="451" on="0"/>
        <pt x="1255" y="222" on="0"/>
        <pt x="1076" y="62" on="0"/>
        <pt x="843" y="-23" on="0"/>
        <pt x="716" y="-23" on="1"/>
        <pt x="630" y="-23" on="0"/>
        <pt x="468" y="17" on="0"/>
        <pt x="325" y="91" on="0"/>
        <pt x="205" y="198" on="0"/>
        <pt x="120" y="332" on="0"/>
        <pt x="72" y="491" on="0"/>
        <pt x="72" y="580" on="1"/>
        <pt x="72" y="669" on="0"/>
        <pt x="120" y="828" on="0"/>
        <pt x="205" y="962" on="0"/>
        <pt x="325" y="1069" on="0"/>
        <pt x="468" y="1143" on="0"/>
        <pt x="630" y="1183" on="0"/>
        <pt x="716" y="1183" on="1"/>
        <pt x="794" y="1183" on="0"/>
        <pt x="946" y="1128" on="0"/>
        <pt x="1008" y="1070" on="1"/>
        <pt x="998" y="1140" on="0"/>
        <pt x="958" y="1300" on="0"/>
        <pt x="932" y="1378" on="1"/>
        <pt x="679" y="1298" on="1"/>
        <pt x="679" y="1482" on="1"/>
        <pt x="869" y="1542" on="1"/>
        <pt x="856" y="1571" on="0"/>
        <pt x="831" y="1623" on="0"/>
        <pt x="818" y="1645" on="1"/>
        <pt x="950" y="1725" on="1"/>
        <pt x="977" y="1694" on="0"/>
        <pt x="1028" y="1631" on="0"/>
        <pt x="1051" y="1599" on="1"/>
        <pt x="1315" y="1682" on="1"/>
      </contour>
    </TTGlyph>
    <TTGlyph name="exclam" xMin="120" yMin="-33" xMax="548" yMax="1540">
      <contour>
        <pt x="548" y="1540" on="1"/>
        <pt x="436" y="395" on="1"/>
        <pt x="231" y="395" on="1"/>
        <pt x="120" y="1540" on="1"/>
      </contour>
      <contour>
        <pt x="516" y="150" on="1"/>
        <pt x="516" y="112" on="0"/>
        <pt x="487" y="45" on="0"/>
        <pt x="438" y="-4" on="0"/>
        <pt x="371" y="-33" on="0"/>
        <pt x="334" y="-33" on="1"/>
        <pt x="296" y="-33" on="0"/>
        <pt x="229" y="-4" on="0"/>
        <pt x="180" y="45" on="0"/>
        <pt x="151" y="112" on="0"/>
        <pt x="151" y="150" on="1"/>
        <pt x="151" y="187" on="0"/>
        <pt x="180" y="254" on="0"/>
        <pt x="229" y="303" on="0"/>
        <pt x="296" y="332" on="0"/>
        <pt x="334" y="332" on="1"/>
        <pt x="371" y="332" on="0"/>
        <pt x="438" y="303" on="0"/>
        <pt x="487" y="254" on="0"/>
        <pt x="516" y="187" on="0"/>
      </contour>
    </TTGlyph>
    <TTGlyph name="exclamdown" xMin="120" yMin="-83" xMax="548" yMax="1490">
      <contour>
        <pt x="516" y="1308" on="1"/>
        <pt x="516" y="1270" on="0"/>
        <pt x="487" y="1203" on="0"/>
        <pt x="438" y="1154" on="0"/>
        <pt x="371" y="1125" on="0"/>
        <pt x="334" y="1125" on="1"/>
        <pt x="296" y="1125" on="0"/>
        <pt x="229" y="1154" on="0"/>
        <pt x="180" y="1203" on="0"/>
        <pt x="151" y="1270" on="0"/>
        <pt x="151" y="1308" on="1"/>
        <pt x="151" y="1345" on="0"/>
        <pt x="180" y="1412" on="0"/>
        <pt x="229" y="1461" on="0"/>
        <pt x="296" y="1490" on="0"/>
        <pt x="334" y="1490" on="1"/>
        <pt x="371" y="1490" on="0"/>
        <pt x="438" y="1461" on="0"/>
        <pt x="487" y="1412" on="0"/>
        <pt x="516" y="1345" on="0"/>
      </contour>
      <contour>
        <pt x="548" y="-83" on="1"/>
        <pt x="120" y="-83" on="1"/>
        <pt x="231" y="1062" on="1"/>
        <pt x="436" y="1062" on="1"/>
      </contour>
    </TTGlyph>
    <TTGlyph name="f" xMin="27" yMin="0" xMax="1220" yMax="1759">
      <contour>
        <pt x="1220" y="1630" on="1"/>
        <pt x="1029" y="1314" on="1"/>
        <pt x="1026" y="1352" on="0"/>
        <pt x="1004" y="1451" on="0"/>
        <pt x="953" y="1539" on="0"/>
        <pt x="864" y="1600" on="0"/>
        <pt x="795" y="1600" on="1"/>
        <pt x="724" y="1600" on="0"/>
        <pt x="638" y="1544" on="0"/>
        <pt x="592" y="1432" on="0"/>
        <pt x="576" y="1266" on="0"/>
        <pt x="576" y="1156" on="1"/>
        <pt x="926" y="1156" on="1"/>
        <pt x="926" y="1022" on="1"/>
        <pt x="576" y="1022" on="1"/>
        <pt x="576" y="0" on="1"/>
        <pt x="237" y="0" on="1"/>
        <pt x="237" y="1022" on="1"/>
        <pt x="27" y="1022" on="1"/>
        <pt x="27" y="1156" on="1"/>
        <pt x="237" y="1156" on="1"/>
        <pt x="237" y="1315" on="0"/>
        <pt x="305" y="1543" on="0"/>
        <pt x="443" y="1690" on="0"/>
        <pt x="652" y="1759" on="0"/>
        <pt x="792" y="1759" on="1"/>
        <pt x="876" y="1759" on="0"/>
        <pt x="1009" y="1736" on="0"/>
        <pt x="1112" y="1699" on="0"/>
        <pt x="1190" y="1653" on="0"/>
      </contour>
    </TTGlyph>
    <TTGlyph name="fi" xMin="27" yMin="0" xMax="1489" yMax="1789">
      <contour>
        <pt x="1183" y="1660" on="1"/>
        <pt x="1140" y="1645" on="0"/>
        <pt x="1085" y="1593" on="0"/>
        <pt x="1053" y="1531" on="0"/>
        <pt x="1039" y="1464" on="0"/>
        <pt x="1035" y="1404" on="0"/>
        <pt x="1038" y="1356" on="0"/>
        <pt x="1039" y="1344" on="1"/>
        <pt x="1037" y="1370" on="0"/>
        <pt x="1025" y="1432" on="0"/>
        <pt x="1001" y="1496" on="0"/>
        <pt x="965" y="1556" on="0"/>
        <pt x="912" y="1602" on="0"/>
        <pt x="841" y="1630" on="0"/>
        <pt x="795" y="1630" on="1"/>
        <pt x="724" y="1630" on="0"/>
        <pt x="638" y="1564" on="0"/>
        <pt x="592" y="1441" on="0"/>
        <pt x="576" y="1266" on="0"/>
        <pt x="576" y="1156" on="1"/>
        <pt x="926" y="1156" on="1"/>
        <pt x="926" y="1022" on="1"/>
        <pt x="576" y="1022" on="1"/>
        <pt x="576" y="0" on="1"/>
        <pt x="237" y="0" on="1"/>
        <pt x="237" y="1022" on="1"/>
        <pt x="27" y="1022" on="1"/>
        <pt x="27" y="1156" on="1"/>
        <pt x="237" y="1156" on="1"/>
        <pt x="237" y="1474" on="0"/>
        <pt x="511" y="1789" on="0"/>
        <pt x="792" y="1789" on="1"/>
        <pt x="876" y="1789" on="0"/>
        <pt x="1005" y="1758" on="0"/>
        <pt x="1100" y="1715" on="0"/>
        <pt x="1164" y="1672" on="0"/>
      </contour>
      <contour>
        <pt x="1489" y="1434" on="1"/>
        <pt x="1489" y="1396" on="0"/>
        <pt x="1460" y="1328" on="0"/>
        <pt x="1410" y="1278" on="0"/>
        <pt x="1342" y="1249" on="0"/>
        <pt x="1304" y="1249" on="1"/>
        <pt x="1266" y="1249" on="0"/>
        <pt x="1199" y="1278" on="0"/>
        <pt x="1149" y="1328" on="0"/>
        <pt x="1120" y="1396" on="0"/>
        <pt x="1120" y="1434" on="1"/>
        <pt x="1120" y="1472" on="0"/>
        <pt x="1149" y="1539" on="0"/>
        <pt x="1199" y="1589" on="0"/>
        <pt x="1266" y="1618" on="0"/>
        <pt x="1304" y="1618" on="1"/>
        <pt x="1342" y="1618" on="0"/>
        <pt x="1410" y="1589" on="0"/>
        <pt x="1460" y="1539" on="0"/>
        <pt x="1489" y="1472" on="0"/>
      </contour>
      <contour>
        <pt x="1474" y="0" on="1"/>
        <pt x="1135" y="0" on="1"/>
        <pt x="1135" y="1154" on="1"/>
        <pt x="1474" y="1154" on="1"/>
      </contour>
    </TTGlyph>
    <TTGlyph name="five" xMin="44" yMin="-29" xMax="1458" yMax="1440">
      <contour>
        <pt x="1458" y="442" on="1"/>
        <pt x="1458" y="345" on="0"/>
        <pt x="1393" y="199" on="0"/>
        <pt x="1284" y="95" on="0"/>
        <pt x="1139" y="27" on="0"/>
        <pt x="979" y="-13" on="0"/>
        <pt x="813" y="-29" on="0"/>
        <pt x="738" y="-29" on="1"/>
        <pt x="649" y="-29" on="0"/>
        <pt x="441" y="12" on="0"/>
        <pt x="245" y="95" on="0"/>
        <pt x="85" y="219" on="0"/>
        <pt x="44" y="303" on="1"/>
        <pt x="401" y="472" on="1"/>
        <pt x="401" y="403" on="0"/>
        <pt x="458" y="282" on="0"/>
        <pt x="552" y="192" on="0"/>
        <pt x="673" y="140" on="0"/>
        <pt x="738" y="140" on="1"/>
        <pt x="800" y="140" on="0"/>
        <pt x="918" y="183" on="0"/>
        <pt x="1009" y="263" on="0"/>
        <pt x="1065" y="374" on="0"/>
        <pt x="1065" y="442" on="1"/>
        <pt x="1065" y="517" on="0"/>
        <pt x="1014" y="631" on="0"/>
        <pt x="925" y="706" on="0"/>
        <pt x="806" y="744" on="0"/>
        <pt x="738" y="744" on="1"/>
        <pt x="580" y="744" on="0"/>
        <pt x="350" y="719" on="0"/>
        <pt x="275" y="704" on="1"/>
        <pt x="187" y="686" on="0"/>
        <pt x="128" y="664" on="1"/>
        <pt x="278" y="1440" on="1"/>
        <pt x="1339" y="1440" on="1"/>
        <pt x="1339" y="1256" on="1"/>
        <pt x="605" y="1256" on="1"/>
        <pt x="534" y="905" on="1"/>
        <pt x="578" y="909" on="0"/>
        <pt x="679" y="914" on="0"/>
        <pt x="738" y="914" on="1"/>
        <pt x="871" y="914" on="0"/>
        <pt x="1082" y="872" on="0"/>
        <pt x="1242" y="801" on="0"/>
        <pt x="1354" y="707" on="0"/>
        <pt x="1425" y="602" on="0"/>
        <pt x="1458" y="493" on="0"/>
      </contour>
    </TTGlyph>
    <TTGlyph name="fl" xMin="27" yMin="0" xMax="1455" yMax="1789">
      <contour>
        <pt x="1117" y="0" on="1"/>
        <pt x="1455" y="0" on="1"/>
        <pt x="1455" y="1687" on="1"/>
        <pt x="1325" y="1687" on="1"/>
        <pt x="1117" y="1336" on="1"/>
      </contour>
      <contour>
        <pt x="1220" y="1660" on="1"/>
        <pt x="1029" y="1344" on="1"/>
        <pt x="1026" y="1382" on="0"/>
        <pt x="1004" y="1481" on="0"/>
        <pt x="953" y="1569" on="0"/>
        <pt x="864" y="1630" on="0"/>
        <pt x="795" y="1630" on="1"/>
        <pt x="724" y="1630" on="0"/>
        <pt x="638" y="1564" on="0"/>
        <pt x="592" y="1441" on="0"/>
        <pt x="576" y="1266" on="0"/>
        <pt x="576" y="1156" on="1"/>
        <pt x="926" y="1156" on="1"/>
        <pt x="926" y="1022" on="1"/>
        <pt x="576" y="1022" on="1"/>
        <pt x="576" y="0" on="1"/>
        <pt x="237" y="0" on="1"/>
        <pt x="237" y="1022" on="1"/>
        <pt x="27" y="1022" on="1"/>
        <pt x="27" y="1156" on="1"/>
        <pt x="237" y="1156" on="1"/>
        <pt x="237" y="1474" on="0"/>
        <pt x="511" y="1789" on="0"/>
        <pt x="792" y="1789" on="1"/>
        <pt x="876" y="1789" on="0"/>
        <pt x="1009" y="1766" on="0"/>
        <pt x="1112" y="1729" on="0"/>
        <pt x="1190" y="1683" on="0"/>
      </contour>
    </TTGlyph>
    <TTGlyph name="four" xMin="26" yMin="0" xMax="1346" yMax="1440">
      <contour>
        <pt x="1346" y="328" on="1"/>
        <pt x="1246" y="328" on="1"/>
        <pt x="1246" y="0" on="1"/>
        <pt x="849" y="0" on="1"/>
        <pt x="849" y="328" on="1"/>
        <pt x="26" y="328" on="1"/>
        <pt x="53" y="443" on="0"/>
        <pt x="139" y="683" on="0"/>
        <pt x="248" y="917" on="0"/>
        <pt x="376" y="1141" on="0"/>
        <pt x="446" y="1240" on="1"/>
        <pt x="723" y="1240" on="1"/>
        <pt x="637" y="1097" on="0"/>
        <pt x="522" y="835" on="0"/>
        <pt x="487" y="733" on="1"/>
        <pt x="446" y="614" on="0"/>
        <pt x="423" y="511" on="1"/>
        <pt x="849" y="511" on="1"/>
        <pt x="849" y="1440" on="1"/>
        <pt x="1246" y="1440" on="1"/>
        <pt x="1246" y="511" on="1"/>
        <pt x="1346" y="511" on="1"/>
      </contour>
    </TTGlyph>
    <TTGlyph name="fraction" xMin="-16" yMin="50" xMax="981" yMax="1390">
      <contour>
        <pt x="981" y="1390" on="1"/>
        <pt x="192" y="50" on="1"/>
        <pt x="-16" y="50" on="1"/>
        <pt x="763" y="1390" on="1"/>
      </contour>
    </TTGlyph>
    <TTGlyph name="g" xMin="76" yMin="-533" xMax="1304" yMax="1183">
      <contour>
        <pt x="1304" y="139" on="1"/>
        <pt x="1304" y="1" on="0"/>
        <pt x="1222" y="-243" on="0"/>
        <pt x="1066" y="-426" on="0"/>
        <pt x="839" y="-533" on="0"/>
        <pt x="694" y="-533" on="1"/>
        <pt x="614" y="-533" on="0"/>
        <pt x="451" y="-497" on="0"/>
        <pt x="306" y="-422" on="0"/>
        <pt x="191" y="-307" on="0"/>
        <pt x="158" y="-229" on="1"/>
        <pt x="304" y="-174" on="1"/>
        <pt x="323" y="-223" on="0"/>
        <pt x="384" y="-305" on="0"/>
        <pt x="464" y="-364" on="0"/>
        <pt x="560" y="-397" on="0"/>
        <pt x="613" y="-397" on="1"/>
        <pt x="713" y="-397" on="0"/>
        <pt x="848" y="-315" on="0"/>
        <pt x="930" y="-183" on="0"/>
        <pt x="966" y="-16" on="0"/>
        <pt x="966" y="70" on="1"/>
        <pt x="966" y="138" on="1"/>
        <pt x="906" y="56" on="0"/>
        <pt x="737" y="-23" on="0"/>
        <pt x="636" y="-23" on="1"/>
        <pt x="504" y="-23" on="0"/>
        <pt x="296" y="71" on="0"/>
        <pt x="152" y="234" on="0"/>
        <pt x="76" y="454" on="0"/>
        <pt x="76" y="580" on="1"/>
        <pt x="76" y="706" on="0"/>
        <pt x="152" y="926" on="0"/>
        <pt x="296" y="1089" on="0"/>
        <pt x="504" y="1183" on="0"/>
        <pt x="636" y="1183" on="1"/>
        <pt x="703" y="1183" on="0"/>
        <pt x="824" y="1143" on="0"/>
        <pt x="925" y="1070" on="0"/>
        <pt x="1002" y="967" on="0"/>
        <pt x="1024" y="904" on="1"/>
        <pt x="1174" y="1155" on="1"/>
        <pt x="1304" y="1155" on="1"/>
      </contour>
      <contour>
        <pt x="964" y="580" on="1"/>
        <pt x="964" y="625" on="0"/>
        <pt x="955" y="725" on="0"/>
        <pt x="933" y="823" on="0"/>
        <pt x="894" y="912" on="0"/>
        <pt x="833" y="981" on="0"/>
        <pt x="747" y="1021" on="0"/>
        <pt x="690" y="1021" on="1"/>
        <pt x="633" y="1021" on="0"/>
        <pt x="549" y="980" on="0"/>
        <pt x="489" y="911" on="0"/>
        <pt x="450" y="821" on="0"/>
        <pt x="428" y="723" on="0"/>
        <pt x="419" y="624" on="0"/>
        <pt x="419" y="580" on="1"/>
        <pt x="419" y="536" on="0"/>
        <pt x="428" y="436" on="0"/>
        <pt x="450" y="338" on="0"/>
        <pt x="489" y="248" on="0"/>
        <pt x="549" y="179" on="0"/>
        <pt x="633" y="138" on="0"/>
        <pt x="690" y="138" on="1"/>
        <pt x="742" y="138" on="0"/>
        <pt x="823" y="181" on="0"/>
        <pt x="884" y="253" on="0"/>
        <pt x="926" y="345" on="0"/>
        <pt x="952" y="443" on="0"/>
        <pt x="964" y="540" on="0"/>
      </contour>
    </TTGlyph>
    <TTGlyph name="gbreve" xMin="76" yMin="-533" xMax="1304" yMax="1535">
      <component glyphName="g" x="0" y="0" flags="0x204"/>
      <component glyphName="breve" x="471" y="97" flags="0x4"/>
    </TTGlyph>
    <TTGlyph name="gcircumflex" xMin="76" yMin="-533" xMax="1304" yMax="1640">
      <component glyphName="g" x="0" y="0" flags="0x204"/>
      <component glyphName="circumflex" x="459" y="206" flags="0x4"/>
    </TTGlyph>
    <TTGlyph name="gcommaaccent" xMin="76" yMin="-533" xMax="1304" yMax="1703">
      <component glyphName="g" x="0" y="0" flags="0x204"/>
      <component glyphName="uni0312" x="425" y="280" flags="0x4"/>
    </TTGlyph>
    <TTGlyph name="gdotaccent" xMin="76" yMin="-533" xMax="1304" yMax="1578">
      <component glyphName="g" x="0" y="0" flags="0x204"/>
      <component glyphName="dotaccent" x="575" y="174" flags="0x4"/>
    </TTGlyph>
    <TTGlyph name="germandbls" xMin="27" yMin="-23" xMax="1794" yMax="1759">
      <contour>
        <pt x="1029" y="1314" on="1"/>
        <pt x="1029" y="1339" on="0"/>
        <pt x="1022" y="1401" on="0"/>
        <pt x="1003" y="1465" on="0"/>
        <pt x="970" y="1525" on="0"/>
        <pt x="918" y="1572" on="0"/>
        <pt x="845" y="1600" on="0"/>
        <pt x="795" y="1600" on="1"/>
        <pt x="738" y="1600" on="0"/>
        <pt x="661" y="1556" on="0"/>
        <pt x="612" y="1483" on="0"/>
        <pt x="587" y="1389" on="0"/>
        <pt x="577" y="1291" on="0"/>
        <pt x="576" y="1195" on="0"/>
        <pt x="576" y="1156" on="1"/>
        <pt x="576" y="0" on="1"/>
        <pt x="237" y="0" on="1"/>
        <pt x="237" y="1022" on="1"/>
        <pt x="27" y="1022" on="1"/>
        <pt x="27" y="1156" on="1"/>
        <pt x="237" y="1156" on="1"/>
        <pt x="237" y="1295" on="0"/>
        <pt x="294" y="1519" on="0"/>
        <pt x="425" y="1675" on="0"/>
        <pt x="637" y="1759" on="0"/>
        <pt x="792" y="1759" on="1"/>
        <pt x="847" y="1759" on="0"/>
        <pt x="963" y="1746" on="0"/>
        <pt x="1073" y="1712" on="0"/>
        <pt x="1171" y="1655" on="0"/>
        <pt x="1244" y="1567" on="0"/>
        <pt x="1286" y="1445" on="0"/>
        <pt x="1286" y="1364" on="1"/>
        <pt x="1286" y="1295" on="0"/>
        <pt x="1246" y="1187" on="0"/>
        <pt x="1186" y="1102" on="0"/>
        <pt x="1117" y="1035" on="0"/>
        <pt x="1057" y="979" on="0"/>
        <pt x="1017" y="928" on="0"/>
        <pt x="1017" y="902" on="1"/>
        <pt x="1017" y="867" on="0"/>
        <pt x="1051" y="815" on="0"/>
        <pt x="1106" y="777" on="0"/>
        <pt x="1175" y="751" on="0"/>
        <pt x="1247" y="733" on="0"/>
        <pt x="1315" y="719" on="0"/>
        <pt x="1340" y="712" on="1"/>
        <pt x="1386" y="699" on="0"/>
        <pt x="1489" y="672" on="0"/>
        <pt x="1590" y="637" on="0"/>
        <pt x="1682" y="588" on="0"/>
        <pt x="1752" y="521" on="0"/>
        <pt x="1794" y="430" on="0"/>
        <pt x="1794" y="369" on="1"/>
        <pt x="1794" y="293" on="0"/>
        <pt x="1750" y="175" on="0"/>
        <pt x="1673" y="88" on="0"/>
        <pt x="1570" y="29" on="0"/>
        <pt x="1450" y="-7" on="0"/>
        <pt x="1321" y="-23" on="0"/>
        <pt x="1257" y="-23" on="1"/>
        <pt x="1168" y="-23" on="0"/>
        <pt x="1032" y="1" on="0"/>
        <pt x="912" y="51" on="0"/>
        <pt x="796" y="128" on="0"/>
        <pt x="727" y="182" on="1"/>
        <pt x="924" y="343" on="1"/>
        <pt x="943" y="307" on="0"/>
        <pt x="1019" y="227" on="0"/>
        <pt x="1112" y="160" on="0"/>
        <pt x="1211" y="117" on="0"/>
        <pt x="1254" y="117" on="1"/>
        <pt x="1290" y="117" on="0"/>
        <pt x="1383" y="124" on="0"/>
        <pt x="1467" y="153" on="0"/>
        <pt x="1525" y="209" on="0"/>
        <pt x="1525" y="258" on="1"/>
        <pt x="1525" y="306" on="0"/>
        <pt x="1458" y="369" on="0"/>
        <pt x="1349" y="413" on="0"/>
        <pt x="1209" y="447" on="0"/>
        <pt x="1063" y="484" on="0"/>
        <pt x="923" y="532" on="0"/>
        <pt x="814" y="606" on="0"/>
        <pt x="747" y="713" on="0"/>
        <pt x="747" y="791" on="1"/>
        <pt x="747" y="847" on="0"/>
        <pt x="771" y="928" on="0"/>
        <pt x="811" y="989" on="0"/>
        <pt x="862" y="1036" on="0"/>
        <pt x="914" y="1079" on="0"/>
        <pt x="965" y="1125" on="0"/>
        <pt x="1005" y="1184" on="0"/>
        <pt x="1029" y="1261" on="0"/>
      </contour>
    </TTGlyph>
    <TTGlyph name="grave" xMin="0" yMin="1086" xMax="516" yMax="1440">
      <contour>
        <pt x="516" y="1086" on="1"/>
        <pt x="316" y="1086" on="1"/>
        <pt x="0" y="1440" on="1"/>
        <pt x="317" y="1440" on="1"/>
      </contour>
    </TTGlyph>
    <TTGlyph name="greater" xMin="136" yMin="220" xMax="850" yMax="1172">
      <contour>
        <pt x="850" y="627" on="1"/>
        <pt x="136" y="220" on="1"/>
        <pt x="136" y="416" on="1"/>
        <pt x="614" y="690" on="1"/>
        <pt x="614" y="703" on="1"/>
        <pt x="136" y="963" on="1"/>
        <pt x="136" y="1172" on="1"/>
        <pt x="850" y="767" on="1"/>
      </contour>
    </TTGlyph>
    <TTGlyph name="guillemotleft" xMin="74" yMin="200" xMax="1268" yMax="952">
      <contour>
        <pt x="688" y="952" on="1"/>
        <pt x="688" y="743" on="1"/>
        <pt x="310" y="583" on="1"/>
        <pt x="310" y="570" on="1"/>
        <pt x="688" y="396" on="1"/>
        <pt x="688" y="200" on="1"/>
        <pt x="74" y="507" on="1"/>
        <pt x="74" y="647" on="1"/>
      </contour>
      <contour>
        <pt x="1268" y="952" on="1"/>
        <pt x="1268" y="743" on="1"/>
        <pt x="890" y="583" on="1"/>
        <pt x="890" y="570" on="1"/>
        <pt x="1268" y="396" on="1"/>
        <pt x="1268" y="200" on="1"/>
        <pt x="654" y="507" on="1"/>
        <pt x="654" y="647" on="1"/>
      </contour>
    </TTGlyph>
    <TTGlyph name="guillemotright" xMin="144" yMin="200" xMax="1338" yMax="952">
      <contour>
        <pt x="758" y="507" on="1"/>
        <pt x="144" y="200" on="1"/>
        <pt x="144" y="396" on="1"/>
        <pt x="522" y="570" on="1"/>
        <pt x="522" y="583" on="1"/>
        <pt x="144" y="743" on="1"/>
        <pt x="144" y="952" on="1"/>
        <pt x="758" y="647" on="1"/>
      </contour>
      <contour>
        <pt x="1338" y="507" on="1"/>
        <pt x="724" y="200" on="1"/>
        <pt x="724" y="396" on="1"/>
        <pt x="1102" y="570" on="1"/>
        <pt x="1102" y="583" on="1"/>
        <pt x="724" y="743" on="1"/>
        <pt x="724" y="952" on="1"/>
        <pt x="1338" y="647" on="1"/>
      </contour>
    </TTGlyph>
    <TTGlyph name="guilsinglleft" xMin="74" yMin="200" xMax="688" yMax="952">
      <contour>
        <pt x="688" y="952" on="1"/>
        <pt x="688" y="743" on="1"/>
        <pt x="310" y="583" on="1"/>
        <pt x="310" y="570" on="1"/>
        <pt x="688" y="396" on="1"/>
        <pt x="688" y="200" on="1"/>
        <pt x="74" y="507" on="1"/>
        <pt x="74" y="647" on="1"/>
      </contour>
    </TTGlyph>
    <TTGlyph name="guilsinglright" xMin="144" yMin="200" xMax="758" yMax="952">
      <contour>
        <pt x="758" y="507" on="1"/>
        <pt x="144" y="200" on="1"/>
        <pt x="144" y="396" on="1"/>
        <pt x="522" y="570" on="1"/>
        <pt x="522" y="583" on="1"/>
        <pt x="144" y="743" on="1"/>
        <pt x="144" y="952" on="1"/>
        <pt x="758" y="647" on="1"/>
      </contour>
    </TTGlyph>
    <TTGlyph name="h" xMin="141" yMin="-246" xMax="1322" yMax="1580">
      <contour>
        <pt x="1322" y="662" on="1"/>
        <pt x="1322" y="545" on="0"/>
        <pt x="1265" y="291" on="0"/>
        <pt x="1163" y="47" on="0"/>
        <pt x="1021" y="-168" on="0"/>
        <pt x="936" y="-246" on="1"/>
        <pt x="809" y="-177" on="1"/>
        <pt x="836" y="-127" on="0"/>
        <pt x="884" y="-3" on="0"/>
        <pt x="923" y="136" on="0"/>
        <pt x="954" y="284" on="0"/>
        <pt x="975" y="429" on="0"/>
        <pt x="986" y="566" on="0"/>
        <pt x="986" y="625" on="1"/>
        <pt x="986" y="664" on="0"/>
        <pt x="980" y="753" on="0"/>
        <pt x="961" y="842" on="0"/>
        <pt x="929" y="924" on="0"/>
        <pt x="876" y="986" on="0"/>
        <pt x="801" y="1024" on="0"/>
        <pt x="750" y="1024" on="1"/>
        <pt x="700" y="1024" on="0"/>
        <pt x="622" y="979" on="0"/>
        <pt x="562" y="906" on="0"/>
        <pt x="519" y="812" on="0"/>
        <pt x="492" y="713" on="0"/>
        <pt x="480" y="617" on="0"/>
        <pt x="480" y="579" on="1"/>
        <pt x="480" y="0" on="1"/>
        <pt x="141" y="0" on="1"/>
        <pt x="141" y="1580" on="1"/>
        <pt x="479" y="1580" on="1"/>
        <pt x="479" y="985" on="1"/>
        <pt x="544" y="1080" on="0"/>
        <pt x="733" y="1183" on="0"/>
        <pt x="848" y="1183" on="1"/>
        <pt x="968" y="1183" on="0"/>
        <pt x="1146" y="1105" on="0"/>
        <pt x="1264" y="966" on="0"/>
        <pt x="1322" y="775" on="0"/>
      </contour>
    </TTGlyph>
    <TTGlyph name="hbar" xMin="40" yMin="-246" xMax="1322" yMax="1580">
      <contour>
        <pt x="585" y="1242" on="1"/>
        <pt x="479" y="1242" on="1"/>
        <pt x="479" y="985" on="1"/>
        <pt x="544" y="1080" on="0"/>
        <pt x="733" y="1183" on="0"/>
        <pt x="848" y="1183" on="1"/>
        <pt x="968" y="1183" on="0"/>
        <pt x="1146" y="1105" on="0"/>
        <pt x="1264" y="966" on="0"/>
        <pt x="1322" y="775" on="0"/>
        <pt x="1322" y="662" on="1"/>
        <pt x="1322" y="545" on="0"/>
        <pt x="1265" y="291" on="0"/>
        <pt x="1163" y="47" on="0"/>
        <pt x="1021" y="-168" on="0"/>
        <pt x="936" y="-246" on="1"/>
        <pt x="809" y="-177" on="1"/>
        <pt x="836" y="-127" on="0"/>
        <pt x="884" y="-3" on="0"/>
        <pt x="923" y="136" on="0"/>
        <pt x="954" y="284" on="0"/>
        <pt x="975" y="429" on="0"/>
        <pt x="986" y="566" on="0"/>
        <pt x="986" y="625" on="1"/>
        <pt x="986" y="664" on="0"/>
        <pt x="980" y="753" on="0"/>
        <pt x="961" y="842" on="0"/>
        <pt x="929" y="924" on="0"/>
        <pt x="876" y="986" on="0"/>
        <pt x="801" y="1024" on="0"/>
        <pt x="750" y="1024" on="1"/>
        <pt x="700" y="1024" on="0"/>
        <pt x="622" y="979" on="0"/>
        <pt x="562" y="906" on="0"/>
        <pt x="519" y="812" on="0"/>
        <pt x="492" y="713" on="0"/>
        <pt x="480" y="617" on="0"/>
        <pt x="480" y="579" on="1"/>
        <pt x="480" y="0" on="1"/>
        <pt x="141" y="0" on="1"/>
        <pt x="141" y="1242" on="1"/>
        <pt x="40" y="1242" on="1"/>
        <pt x="40" y="1440" on="1"/>
        <pt x="141" y="1440" on="1"/>
        <pt x="141" y="1580" on="1"/>
        <pt x="479" y="1580" on="1"/>
        <pt x="479" y="1440" on="1"/>
        <pt x="585" y="1440" on="1"/>
      </contour>
    </TTGlyph>
    <TTGlyph name="hcircumflex" xMin="141" yMin="-246" xMax="1322" yMax="1650">
      <component glyphName="h" x="0" y="0" flags="0x204"/>
      <component glyphName="circumflex" x="599" y="216" flags="0x4"/>
    </TTGlyph>
    <TTGlyph name="hungarumlaut" xMin="0" yMin="1086" xMax="885" yMax="1440">
      <contour>
        <pt x="885" y="1440" on="1"/>
        <pt x="569" y="1086" on="1"/>
        <pt x="369" y="1086" on="1"/>
        <pt x="568" y="1440" on="1"/>
      </contour>
      <contour>
        <pt x="516" y="1440" on="1"/>
        <pt x="200" y="1086" on="1"/>
        <pt x="0" y="1086" on="1"/>
        <pt x="199" y="1440" on="1"/>
      </contour>
    </TTGlyph>
    <TTGlyph name="hyphen" xMin="141" yMin="629" xMax="813" yMax="813">
      <contour>
        <pt x="813" y="629" on="1"/>
        <pt x="141" y="629" on="1"/>
        <pt x="141" y="813" on="1"/>
        <pt x="813" y="813" on="1"/>
      </contour>
    </TTGlyph>
    <TTGlyph name="i" xMin="127" yMin="0" xMax="496" yMax="1618">
      <contour>
        <pt x="496" y="1434" on="1"/>
        <pt x="496" y="1396" on="0"/>
        <pt x="467" y="1328" on="0"/>
        <pt x="417" y="1278" on="0"/>
        <pt x="349" y="1249" on="0"/>
        <pt x="311" y="1249" on="1"/>
        <pt x="273" y="1249" on="0"/>
        <pt x="206" y="1278" on="0"/>
        <pt x="156" y="1328" on="0"/>
        <pt x="127" y="1396" on="0"/>
        <pt x="127" y="1434" on="1"/>
        <pt x="127" y="1472" on="0"/>
        <pt x="156" y="1539" on="0"/>
        <pt x="206" y="1589" on="0"/>
        <pt x="273" y="1618" on="0"/>
        <pt x="311" y="1618" on="1"/>
        <pt x="349" y="1618" on="0"/>
        <pt x="417" y="1589" on="0"/>
        <pt x="467" y="1539" on="0"/>
        <pt x="496" y="1472" on="0"/>
      </contour>
      <contour>
        <pt x="481" y="0" on="1"/>
        <pt x="142" y="0" on="1"/>
        <pt x="142" y="1154" on="1"/>
        <pt x="481" y="1154" on="1"/>
      </contour>
    </TTGlyph>
    <TTGlyph name="iacute" xMin="142" yMin="0" xMax="723" yMax="1610">
      <component glyphName="dotlessi" x="0" y="0" flags="0x4"/>
      <component glyphName="acute" x="207" y="170" flags="0x4"/>
    </TTGlyph>
    <TTGlyph name="ibreve" xMin="60" yMin="0" xMax="562" yMax="1508">
      <component glyphName="dotlessi" x="0" y="0" flags="0x204"/>
      <component glyphName="breve" x="60" y="70" flags="0x4"/>
    </TTGlyph>
    <TTGlyph name="icircumflex" xMin="48" yMin="0" xMax="575" yMax="1613">
      <component glyphName="dotlessi" x="0" y="0" flags="0x204"/>
      <component glyphName="circumflex" x="48" y="179" flags="0x4"/>
    </TTGlyph>
    <TTGlyph name="idieresis" xMin="-24" yMin="0" xMax="648" yMax="1550">
      <component glyphName="dotlessi" x="0" y="0" flags="0x4"/>
      <component glyphName="dieresis" x="-24" y="146" flags="0x4"/>
    </TTGlyph>
    <TTGlyph name="igrave" xMin="-97" yMin="0" xMax="481" yMax="1609">
      <component glyphName="dotlessi" x="0" y="0" flags="0x204"/>
      <component glyphName="grave" x="-97" y="169" flags="0x4"/>
    </TTGlyph>
    <TTGlyph name="ij" xMin="127" yMin="-533" xMax="1121" yMax="1618">
      <component glyphName="i" x="0" y="0" flags="0x4"/>
      <component glyphName="j" x="623" y="0" flags="0x4"/>
    </TTGlyph>
    <TTGlyph name="imacron" xMin="39" yMin="0" xMax="584" yMax="1453">
      <component glyphName="dotlessi" x="0" y="0" flags="0x204"/>
      <component glyphName="macron" x="39" y="113" flags="0x4"/>
    </TTGlyph>
</ttFont>
